<?xml version="1.0" encoding="UTF-8"?>
<!DOCTYPE svg PUBLIC "-//W3C//DTD SVG 1.1//EN" "http://www.w3.org/Graphics/SVG/1.1/DTD/svg11.dtd">
<!-- Creator: CorelDRAW 2019 (64-Bit) -->
<svg xmlns="http://www.w3.org/2000/svg" xml:space="preserve" width="300px" height="300px" version="1.1" style="shape-rendering:geometricPrecision; text-rendering:geometricPrecision; image-rendering:optimizeQuality; fill-rule:evenodd; clip-rule:evenodd"
viewBox="0 0 261.84 261.84"
 xmlns:xlink="http://www.w3.org/1999/xlink">
 <defs>
  <style type="text/css">
   <![CDATA[
    .fil0 {fill:none}
    .fil1 {fill:#1F124E}
    .fil2 {fill:#2E7AC5;fill-rule:nonzero}
   ]]>
  </style>
 </defs>
 <g id="Слой_x0020_1">
  <metadata id="CorelCorpID_0Corel-Layer"/>
  <rect class="fil0" width="261.84" height="261.84"/>
  <g id="_2460979548576">
   <path class="fil1" d="M130.65 39.14c2.6,0 4.71,2.11 4.71,4.72 0,2.6 -2.11,4.71 -4.71,4.71 -3.94,0 -7.6,0.26 -10.99,0.76 -11.78,1.76 -20.45,6.48 -26.12,13.57 -5.73,7.17 -8.55,16.93 -8.55,28.64 0,2.76 0.16,5.62 0.47,8.56l0.62 0c0.22,-3.07 0.66,-6.75 1.67,-10.23 1.57,-5.4 4.46,-10.25 9.81,-12.16l0.01 0.02 0.27 -0.09c7.33,-2.14 15.03,0.05 22.2,2.08 3.98,1.13 7.76,2.21 10.61,2.21 2.6,0 4.71,2.11 4.71,4.71 0,2.61 -2.11,4.72 -4.71,4.72 -4.09,0 -8.51,-1.26 -13.15,-2.57 -5.82,-1.66 -12.08,-3.43 -16.77,-2.2 -1.91,0.68 -3.14,3.1 -3.96,5.9 -1.04,3.61 -1.33,7.8 -1.45,10.71l-0.08 1.91c0.04,2.89 0.12,5.87 0.22,8.9 0.1,2.87 0.23,5.93 0.38,9.09l-0.01 0.01 0.01 0.12c0.03,1.56 0.08,3.3 0.14,5.03 0.04,1.46 0.09,2.92 0.12,4.58l0.01 0.17c0.07,2.38 1.41,5.12 3.29,7.79 2.79,3.95 6.65,7.52 9.77,9.87 6.37,3.5 13.09,7.13 21.48,7.13 2.6,0 4.71,2.11 4.71,4.72 0,2.6 -2.11,4.71 -4.71,4.71 -8.18,0 -14.66,-2.45 -20.56,-5.41 -0.22,1.37 -0.52,2.68 -0.92,4 -1.02,3.29 -2.63,6.37 -5.28,9.64 1.14,3.61 3.87,6.44 7.3,8.56 5.76,3.56 13.37,5.15 19.46,5.15 2.6,0 4.71,2.11 4.71,4.72 0,2.6 -2.11,4.71 -4.71,4.71 -7.51,0 -17.02,-2.03 -24.39,-6.58 -4.2,-2.6 -7.73,-5.99 -9.94,-10.26l-0.59 0.33c-2.16,1.19 -4.47,2.15 -6.98,2.89 -1.91,0.57 -4.45,1.26 -7.05,1.98 -11.89,3.25 -25.34,6.93 -32.78,15.24 -2.02,2.25 -3.48,4.71 -4.47,7.34 -1,2.68 -1.52,5.57 -1.63,8.6 -0.09,2.6 -2.27,4.63 -4.86,4.53 -2.6,-0.09 -4.63,-2.26 -4.53,-4.86 0.15,-4.02 0.85,-7.89 2.22,-11.55 1.39,-3.7 3.44,-7.17 6.27,-10.32 9.3,-10.38 24.17,-14.45 37.31,-18.04 2.2,-0.61 4.34,-1.19 6.87,-1.94 1.82,-0.54 3.51,-1.24 5.1,-2.12 1.51,-0.83 2.92,-1.81 4.25,-2.95l0.39 -0.45c2.29,-2.64 3.59,-4.96 4.34,-7.39 0.61,-1.98 0.89,-4.16 1.05,-6.69 -3.23,-2.71 -6.79,-6.26 -9.53,-10.14 -1.99,-2.82 -3.58,-5.86 -4.39,-8.98 -2.7,-0.55 -4.43,-1.62 -7.12,-5.11 -1.08,-1.4 -2,-2.93 -2.76,-4.52 -0.82,-1.69 -1.48,-3.48 -2,-5.24 -0.75,-2.58 -1.48,-6.6 -1.27,-10.28 0.16,-2.76 0.84,-5.44 2.35,-7.56 -0.63,-4.52 -0.94,-8.86 -0.94,-12.99 0,-13.85 3.5,-25.59 10.61,-34.49 7.16,-8.98 17.84,-14.91 32.12,-17.03 3.87,-0.58 7.99,-0.88 12.35,-0.88zm-45.92 70.24l-0.51 0.55c-0.4,0.43 -0.6,1.45 -0.67,2.67 -0.14,2.52 0.38,5.33 0.91,7.16 0.36,1.24 0.84,2.52 1.44,3.76 0.18,0.38 0.37,0.75 0.57,1.11l-0.02 -1.08c-0.14,-2.95 -0.27,-6 -0.38,-9.25 -0.06,-1.59 -0.1,-3.21 -0.14,-4.85l-1.2 -0.07z"/>
   <path class="fil1" d="M130.65 48.57c-2.61,0 -4.72,-2.11 -4.72,-4.71 0,-2.61 2.11,-4.72 4.72,-4.72 17.82,0 31.28,4.87 40.5,13.59 9.75,9.22 14.55,22.52 14.56,38.75 0,2.59 -2.1,4.69 -4.69,4.69 -2.6,0 -4.7,-2.1 -4.7,-4.69 -0.01,-13.59 -3.84,-24.55 -11.62,-31.9 -7.47,-7.06 -18.77,-11.01 -34.05,-11.01zm52.24 53.84c0.13,0.11 0.25,0.23 0.37,0.36l0.71 0.76c2.09,2.24 2.98,5.34 3.17,8.56 0.21,3.68 -0.53,7.7 -1.28,10.28 -0.51,1.76 -1.17,3.55 -1.99,5.24 -0.77,1.59 -1.69,3.12 -2.76,4.52 -2.7,3.49 -4.42,4.56 -7.12,5.11 -0.48,1.85 -1.24,3.67 -2.19,5.43 -1.79,3.31 -4.3,6.48 -6.95,9.23 -1.8,1.87 -4.78,1.93 -6.65,0.13 -1.87,-1.8 -1.93,-4.78 -0.13,-6.65 2.12,-2.2 4.1,-4.67 5.45,-7.17 0.98,-1.82 1.62,-3.61 1.67,-5.2l0 -0.17c0.04,-1.66 0.08,-3.12 0.13,-4.58 0.05,-1.73 0.1,-3.47 0.14,-5.03l0 -0.12 0 -0.01c0.15,-3.16 0.28,-6.22 0.38,-9.09 0.1,-3.03 0.18,-6.01 0.22,-8.9l-0.08 -1.91c-0.1,-2.6 1.92,-4.78 4.51,-4.88 1.56,-0.06 2.98,0.65 3.88,1.79 2.9,-0.09 6.12,0.16 8.52,2.3zm-5.81 7.52l-0.52 -0.55 -1.19 0.07c-0.04,1.64 -0.09,3.26 -0.14,4.85 -0.11,3.25 -0.24,6.31 -0.38,9.25l-0.03 1.08c0.2,-0.36 0.4,-0.73 0.58,-1.11 0.6,-1.24 1.08,-2.52 1.44,-3.76 0.53,-1.83 1.05,-4.64 0.9,-7.16 -0.07,-1.22 -0.26,-2.24 -0.66,-2.67zm50.79 107.88c0.09,2.6 -1.94,4.77 -4.53,4.86 -2.59,0.1 -4.77,-1.93 -4.86,-4.53 -0.12,-3.03 -0.64,-5.92 -1.64,-8.6 -0.98,-2.63 -2.44,-5.09 -4.46,-7.34 -7.45,-8.31 -20.9,-11.99 -32.79,-15.24 -2.6,-0.72 -5.13,-1.41 -7.05,-1.98 -2.51,-0.74 -4.82,-1.7 -6.98,-2.89l-0.59 -0.33c-2.2,4.27 -5.73,7.66 -9.93,10.26 -7.37,4.55 -16.88,6.58 -24.39,6.58 -2.61,0 -4.72,-2.11 -4.72,-4.71 0,-2.61 2.11,-4.72 4.72,-4.72 6.08,0 13.69,-1.59 19.45,-5.15 3.43,-2.12 6.16,-4.95 7.3,-8.56 -1.87,-2.31 -3.22,-4.54 -4.22,-6.82 -0.98,-2.23 -1.59,-4.46 -1.98,-6.84 -0.11,0.06 -0.23,0.13 -0.35,0.19 -2.89,1.43 -5.93,2.73 -9.21,3.67 -3.38,0.97 -7.01,1.57 -10.99,1.57 -2.61,0 -4.72,-2.11 -4.72,-4.71 0,-2.61 2.11,-4.72 4.72,-4.72 3.04,0 5.82,-0.46 8.41,-1.2 2.7,-0.78 5.22,-1.85 7.63,-3.04 2.33,-1.15 5.15,-0.2 6.3,2.13l0.08 0.19c0.58,-0.39 1.26,-0.65 2,-0.74 2.57,-0.33 4.92,1.49 5.25,4.07 0.26,2.05 0.7,3.89 1.47,5.67 0.78,1.78 1.95,3.58 3.67,5.56l0.38 0.45c1.34,1.14 2.75,2.12 4.25,2.95 1.6,0.88 3.28,1.58 5.1,2.12 2.54,0.75 4.68,1.33 6.87,1.94 13.15,3.59 28.02,7.66 37.32,18.04 2.82,3.15 4.88,6.62 6.26,10.32 1.37,3.66 2.08,7.53 2.23,11.55zm-97.22 -126.45c-2.61,0 -4.72,-2.11 -4.72,-4.72 0,-2.6 2.11,-4.71 4.72,-4.71 2.84,0 6.62,-1.08 10.6,-2.21 7.17,-2.03 14.87,-4.22 22.21,-2.08l0.27 0.09 0 -0.02c1.7,0.61 3.19,1.56 4.49,2.77 1.2,1.11 2.2,2.41 3.03,3.85 1.29,2.24 0.51,5.11 -1.73,6.41 -2.25,1.29 -5.12,0.51 -6.41,-1.74 -0.38,-0.65 -0.8,-1.21 -1.26,-1.64 -0.36,-0.33 -0.78,-0.59 -1.28,-0.77 -4.7,-1.23 -10.95,0.54 -16.78,2.2 -4.64,1.31 -9.05,2.57 -13.14,2.57z"/>
   <g>
    <path class="fil2" d="M196.84 132.27l25.18 14.53 0.01 0c2.33,1.35 3.9,3.52 4.55,5.94 0.57,2.12 0.43,4.45 -0.54,6.56l0 0.1 -0.44 0.76c-1.34,2.33 -3.51,3.9 -5.93,4.54 -2.13,0.57 -4.45,0.43 -6.57,-0.53l-0.08 0 -0.77 -0.44 0 -0.01 -25.16 -14.53 3.18 -5.53 24.42 14.1 0.01 0 0.76 0.43c0.79,0.46 1.71,0.55 2.56,0.33 0.83,-0.23 1.57,-0.76 2.04,-1.54l0.01 -0.03c0.46,-0.8 0.55,-1.72 0.32,-2.56 -0.22,-0.84 -0.76,-1.59 -1.56,-2.05l0 -0.01 -25.17 -14.53 3.18 -5.53z"/>
    <path class="fil2" d="M134.3 107.43c-4.41,7.65 -5.31,16.37 -3.19,24.29 2.12,7.91 7.26,15.01 14.91,19.43 7.65,4.42 16.37,5.31 24.28,3.19 7.91,-2.12 15.02,-7.25 19.43,-14.89 4.42,-7.65 5.31,-16.38 3.19,-24.29 -2.12,-7.91 -7.26,-15.02 -14.91,-19.43 -7.64,-4.42 -16.36,-5.31 -24.28,-3.19 -7.91,2.12 -15.01,7.25 -19.43,14.89zm-9.37 25.94c-2.54,-9.48 -1.46,-19.94 3.84,-29.12 5.31,-9.19 13.83,-15.36 23.31,-17.9 9.49,-2.54 19.95,-1.46 29.14,3.84 9.18,5.3 15.34,13.82 17.89,23.31 2.54,9.49 1.46,19.94 -3.85,29.13 -5.3,9.19 -13.82,15.36 -23.31,17.9 -9.48,2.54 -19.95,1.46 -29.13,-3.84 -9.18,-5.31 -15.35,-13.83 -17.89,-23.32z"/>
   </g>
   <circle class="fil1" cx="156.4" cy="102.96" r="3.21"/>
   <circle class="fil1" cx="141.74" cy="113.82" r="3.21"/>
   <circle class="fil1" cx="140.79" cy="131.23" r="3.21"/>
   <circle class="fil1" cx="158.1" cy="116.96" r="3.21"/>
   <circle class="fil1" cx="155.06" cy="132.65" r="3.21"/>
  </g>
 </g>
</svg>
