<?xml version="1.0" encoding="UTF-8"?>
<!DOCTYPE svg PUBLIC "-//W3C//DTD SVG 1.1//EN" "http://www.w3.org/Graphics/SVG/1.1/DTD/svg11.dtd">
<!-- Creator: CorelDRAW 2019 (64-Bit) -->
<svg xmlns="http://www.w3.org/2000/svg" xml:space="preserve" width="300px" height="300px" version="1.1" style="shape-rendering:geometricPrecision; text-rendering:geometricPrecision; image-rendering:optimizeQuality; fill-rule:evenodd; clip-rule:evenodd"
viewBox="0 0 95.45 95.45"
 xmlns:xlink="http://www.w3.org/1999/xlink">
 <defs>
  <style type="text/css">
   <![CDATA[
    .fil0 {fill:none}
    .fil1 {fill:#1F124E;fill-rule:nonzero}
    .fil2 {fill:#2E7AC5;fill-rule:nonzero}
   ]]>
  </style>
 </defs>
 <g id="Слой_x0020_1">
  <metadata id="CorelCorpID_0Corel-Layer"/>
  <rect class="fil0" width="95.45" height="95.45"/>
  <path class="fil1" d="M47.73 72.53l0.01 0 0 0c5.36,-3.4 12.63,-8.44 18.53,-14.35 5.75,-5.76 10.21,-12.35 10.21,-18.99 0,-2.96 -0.8,-5.81 -2.26,-8.27 -1.45,-2.46 -3.55,-4.55 -6.14,-5.97 -1.21,-0.67 -2.49,-1.18 -3.79,-1.52 -1.31,-0.33 -2.68,-0.51 -4.06,-0.51 -2.16,0 -4.24,0.42 -6.16,1.2 -1.92,0.79 -3.7,1.96 -5.22,3.46 -0.62,0.61 -1.62,0.61 -2.25,0 -1.52,-1.5 -3.29,-2.67 -5.22,-3.46 -1.91,-0.78 -4,-1.2 -6.15,-1.2 -1.39,0 -2.76,0.18 -4.06,0.51 -1.31,0.34 -2.59,0.85 -3.8,1.52 -2.59,1.42 -4.69,3.51 -6.14,5.97 -1.45,2.46 -2.26,5.31 -2.26,8.27 0,6.64 4.46,13.23 10.22,18.99 5.9,5.91 13.17,10.95 18.52,14.35l0.01 0 0.01 0zm0.87 3.09c-0.28,0.08 -0.58,0.12 -0.87,0.12 -0.3,0 -0.59,-0.04 -0.88,-0.12 -0.27,-0.08 -0.53,-0.19 -0.77,-0.32l-0.07 -0.05c-5.49,-3.48 -12.96,-8.66 -19.09,-14.81 -6.29,-6.29 -11.16,-13.61 -11.16,-21.25 0,-3.54 0.97,-6.95 2.71,-9.9 1.74,-2.95 4.25,-5.44 7.36,-7.16 1.42,-0.78 2.95,-1.39 4.55,-1.8 1.59,-0.41 3.23,-0.62 4.85,-0.62 2.55,0 5.04,0.5 7.36,1.45 1.86,0.76 3.59,1.81 5.14,3.11 1.54,-1.3 3.28,-2.35 5.14,-3.11 2.31,-0.95 4.81,-1.45 7.36,-1.45 1.62,0 3.25,0.21 4.85,0.62 1.59,0.41 3.12,1.02 4.55,1.8 3.1,1.72 5.62,4.21 7.35,7.16 1.75,2.95 2.71,6.36 2.71,9.9 0,7.64 -4.87,14.96 -11.15,21.25 -6.14,6.15 -13.61,11.33 -19.09,14.81l-0.03 0.02c-0.25,0.15 -0.52,0.27 -0.82,0.35z"/>
  <path class="fil2" d="M10.8 51.55c-0.88,0 -1.6,-0.72 -1.6,-1.61 0,-0.89 0.72,-1.61 1.6,-1.61l26.94 0c0.53,0 0.99,0.25 1.28,0.64l3.36 4.1 9.4 -14.27c0.49,-0.74 1.48,-0.94 2.22,-0.46 0.2,0.13 0.36,0.3 0.48,0.49l0 0 6.07 9.67 23.99 0c0.89,0 1.61,0.72 1.61,1.61 0,0.88 -0.72,1.6 -1.61,1.6l-24.87 0 0 0c-0.54,0 -1.06,-0.27 -1.36,-0.75l-5.22 -8.32 -9.16 13.9c-0.1,0.18 -0.23,0.34 -0.4,0.48 -0.69,0.56 -1.7,0.46 -2.26,-0.23l-4.29 -5.24 -26.18 0z"/>
  <path class="fil1" d="M43.65 32.02c0.64,0.7 0.58,1.78 -0.12,2.42 -0.7,0.64 -1.78,0.59 -2.42,-0.12 -0.73,-0.8 -1.61,-1.43 -2.58,-1.85 -0.96,-0.43 -2.02,-0.66 -3.11,-0.66 -2.04,0 -3.9,0.79 -5.28,2.09 -1.37,1.3 -2.27,3.11 -2.39,5.14 -0.06,0.94 -0.86,1.67 -1.81,1.62 -0.94,-0.06 -1.67,-0.86 -1.62,-1.81 0.17,-2.94 1.48,-5.56 3.47,-7.44 2,-1.89 4.69,-3.04 7.63,-3.04 1.56,0 3.09,0.33 4.5,0.95 1.4,0.63 2.67,1.54 3.73,2.7z"/>
 </g>
</svg>
