<?xml version="1.0" encoding="UTF-8"?>
<!DOCTYPE svg PUBLIC "-//W3C//DTD SVG 1.1//EN" "http://www.w3.org/Graphics/SVG/1.1/DTD/svg11.dtd">
<!-- Creator: CorelDRAW 2019 (64-Bit) -->
<svg xmlns="http://www.w3.org/2000/svg" xml:space="preserve" width="300px" height="300px" version="1.1" style="shape-rendering:geometricPrecision; text-rendering:geometricPrecision; image-rendering:optimizeQuality; fill-rule:evenodd; clip-rule:evenodd"
viewBox="0 0 55.2 55.2"
 xmlns:xlink="http://www.w3.org/1999/xlink">
 <defs>
  <style type="text/css">
   <![CDATA[
    .fil0 {fill:none}
    .fil1 {fill:#1F124E;fill-rule:nonzero}
    .fil2 {fill:#2E7AC5;fill-rule:nonzero}
   ]]>
  </style>
 </defs>
 <g id="Слой_x0020_1">
  <metadata id="CorelCorpID_0Corel-Layer"/>
  <rect class="fil0" width="55.2" height="55.2"/>
  <path class="fil1" d="M33.69 21.23c0,0.55 -0.45,1 -0.99,1 -0.55,0 -1,-0.45 -1,-1l0 -4.53c0,-0.44 0.18,-0.84 0.47,-1.12 0.03,-0.03 0.06,-0.06 0.09,-0.09 0.28,-0.23 0.64,-0.38 1.03,-0.38 4.3,0 8.19,2.41 11.04,6.08 2.9,3.75 4.72,8.83 4.72,13.96l0 6.74c0,1.15 -0.47,2.19 -1.23,2.95 -0.75,0.75 -1.8,1.22 -2.95,1.22l-2.63 0c-2.9,0 -5.54,-1.18 -7.44,-3.09 -1.91,-1.91 -3.1,-4.55 -3.1,-7.44l0 -4.79c0,-0.55 0.45,-1 1,-1 0.54,0 0.99,0.45 0.99,1l0 4.79c0,2.35 0.96,4.48 2.51,6.03 1.55,1.55 3.69,2.51 6.04,2.51l2.63 0c0.6,0 1.15,-0.24 1.55,-0.64 0.39,-0.4 0.64,-0.94 0.64,-1.54l0 -6.74c0,-4.69 -1.65,-9.33 -4.3,-12.75 -2.39,-3.08 -5.58,-5.14 -9.07,-5.29l0 4.12z"/>
  <path class="fil2" d="M29 10.14c0,-0.38 0.31,-0.68 0.68,-0.68 0.37,0 0.67,0.3 0.67,0.68l0 12.11c1.8,1.11 10.46,6.61 13.19,10.88 0.2,0.32 0.1,0.73 -0.21,0.93 -0.31,0.2 -0.73,0.11 -0.93,-0.2 -2.75,-4.32 -12.22,-10.14 -13.01,-10.62 -0.23,-0.11 -0.39,-0.34 -0.39,-0.61l0 -12.49z"/>
  <path class="fil2" d="M37.04 28.48c-0.36,-0.1 -0.57,-0.47 -0.47,-0.83 0.09,-0.36 0.47,-0.57 0.83,-0.48 0,0.01 2.83,0.79 4.75,-0.45 0.32,-0.2 0.74,-0.11 0.94,0.2 0.2,0.32 0.11,0.73 -0.21,0.93 -2.42,1.57 -5.83,0.63 -5.84,0.63z"/>
  <path class="fil2" d="M27.27 25.19c-0.32,-0.19 -0.44,-0.6 -0.25,-0.92 0.18,-0.32 0.59,-0.44 0.91,-0.26 3.15,1.78 5.75,3.44 8.21,5.52 2.46,2.08 4.76,4.59 7.29,8.07 0.22,0.3 0.16,0.72 -0.14,0.94 -0.3,0.22 -0.73,0.15 -0.94,-0.15 -2.46,-3.38 -4.7,-5.81 -7.08,-7.83 -2.39,-2.03 -4.93,-3.64 -8,-5.37z"/>
  <path class="fil2" d="M37.4 32.42c-0.11,-0.35 0.08,-0.73 0.44,-0.85 0.35,-0.11 0.73,0.08 0.85,0.44 0,0 0.77,2.36 -0.67,5.51 -0.15,0.33 -0.55,0.48 -0.89,0.33 -0.34,-0.16 -0.49,-0.56 -0.33,-0.89 1.22,-2.67 0.61,-4.53 0.6,-4.54z"/>
  <path class="fil2" d="M24.85 10.14c0,-0.38 0.3,-0.68 0.67,-0.68 0.38,0 0.68,0.3 0.68,0.68l0 12.49c0,0.27 -0.16,0.5 -0.38,0.61 -0.8,0.48 -10.27,6.3 -13.02,10.62 -0.2,0.31 -0.61,0.4 -0.93,0.2 -0.31,-0.2 -0.4,-0.61 -0.2,-0.93 2.72,-4.27 11.39,-9.77 13.18,-10.88l0 -12.11z"/>
  <path class="fil2" d="M17.81 27.17c0.36,-0.09 0.73,0.12 0.83,0.48 0.1,0.36 -0.12,0.73 -0.48,0.83 -0.01,0 -3.41,0.94 -5.84,-0.63 -0.31,-0.2 -0.4,-0.61 -0.2,-0.93 0.2,-0.31 0.62,-0.4 0.93,-0.2 1.92,1.24 4.75,0.46 4.76,0.45z"/>
  <path class="fil2" d="M27.27 24.01c0.33,-0.18 0.74,-0.06 0.92,0.26 0.18,0.32 0.07,0.73 -0.26,0.92 -3.06,1.73 -5.6,3.34 -7.99,5.37 -2.39,2.02 -4.62,4.45 -7.08,7.83 -0.22,0.3 -0.64,0.37 -0.94,0.15 -0.3,-0.22 -0.37,-0.64 -0.15,-0.94 2.53,-3.48 4.84,-5.99 7.3,-8.07 2.45,-2.08 5.06,-3.74 8.2,-5.52z"/>
  <path class="fil2" d="M16.52 32.01c0.11,-0.36 0.49,-0.55 0.85,-0.44 0.35,0.12 0.54,0.5 0.43,0.85 0,0.01 -0.61,1.87 0.61,4.54 0.15,0.33 0,0.73 -0.33,0.89 -0.34,0.15 -0.74,0 -0.9,-0.33 -1.44,-3.15 -0.67,-5.51 -0.66,-5.51z"/>
  <path class="fil1" d="M23.5 21.23c0,0.55 -0.44,1 -0.99,1 -0.55,0 -0.99,-0.45 -0.99,-1l0 -4.12c-3.49,0.15 -6.69,2.21 -9.07,5.29 -2.65,3.42 -4.3,8.06 -4.3,12.75l0 6.74c0,0.6 0.24,1.14 0.64,1.54 0.4,0.4 0.94,0.64 1.54,0.64l2.64 0c2.35,0 4.48,-0.96 6.03,-2.51 1.55,-1.55 2.52,-3.68 2.52,-6.03l0 -4.79c0,-0.55 0.44,-1 0.99,-1 0.55,0 0.99,0.45 0.99,1l0 4.79c0,2.89 -1.18,5.53 -3.09,7.44 -1.91,1.91 -4.54,3.09 -7.44,3.09l-2.64 0c-1.15,0 -2.19,-0.47 -2.95,-1.22 -0.75,-0.76 -1.22,-1.8 -1.22,-2.95l0 -6.74c0,-5.13 1.81,-10.21 4.72,-13.96 2.84,-3.67 6.74,-6.08 11.04,-6.08 0.43,0 0.82,0.18 1.11,0.46l0.01 0.01c0.29,0.29 0.46,0.68 0.46,1.12l0 4.53z"/>
 </g>
</svg>
