<?xml version="1.0" encoding="UTF-8"?>
<!DOCTYPE svg PUBLIC "-//W3C//DTD SVG 1.1//EN" "http://www.w3.org/Graphics/SVG/1.1/DTD/svg11.dtd">
<!-- Creator: CorelDRAW 2019 (64-Bit) -->
<svg xmlns="http://www.w3.org/2000/svg" xml:space="preserve" width="300px" height="300px" version="1.1" style="shape-rendering:geometricPrecision; text-rendering:geometricPrecision; image-rendering:optimizeQuality; fill-rule:evenodd; clip-rule:evenodd"
viewBox="0 0 55.2 55.2"
 xmlns:xlink="http://www.w3.org/1999/xlink">
 <defs>
  <style type="text/css">
   <![CDATA[
    .fil0 {fill:none}
    .fil1 {fill:#1F124E;fill-rule:nonzero}
    .fil2 {fill:#2E7AC5;fill-rule:nonzero}
   ]]>
  </style>
 </defs>
 <g id="Слой_x0020_1">
  <metadata id="CorelCorpID_0Corel-Layer"/>
  <rect class="fil0" width="55.2" height="55.2"/>
  <path class="fil1" d="M36.31 13.93c0.65,0.8 1.16,1.69 1.51,2.62l1.48 -0.4c0.53,-0.14 1.07,0.17 1.21,0.7 0.14,0.53 -0.17,1.08 -0.7,1.22l-1.48 0.4c0.08,0.5 0.12,1 0.12,1.51 0,0.5 -0.04,1.01 -0.12,1.51l2.57 0.69c0.53,0.14 0.85,0.69 0.71,1.22 -0.14,0.53 -0.69,0.84 -1.22,0.7l-2.57 -0.69c-0.35,0.93 -0.86,1.82 -1.51,2.62l1.08 1.08c0.39,0.39 0.39,1.02 0,1.41 -0.39,0.39 -1.02,0.39 -1.41,0l-1.08 -1.08c-0.8,0.65 -1.69,1.15 -2.62,1.51l0.69 2.57c0.14,0.53 -0.17,1.07 -0.7,1.22 -0.53,0.14 -1.08,-0.18 -1.22,-0.71l-0.69 -2.57c-0.5,0.08 -1,0.12 -1.51,0.12 -0.51,0 -1.01,-0.04 -1.51,-0.12l-0.4 1.48c-0.14,0.53 -0.68,0.84 -1.21,0.7 -0.53,-0.14 -0.85,-0.68 -0.71,-1.21l0.4 -1.48c-0.93,-0.36 -1.82,-0.86 -2.62,-1.51l-1.88 1.88c-0.39,0.39 -1.02,0.39 -1.41,0 -0.39,-0.39 -0.39,-1.02 0,-1.41l1.88 -1.88c-0.65,-0.8 -1.16,-1.69 -1.51,-2.62l-1.48 0.4c-0.53,0.14 -1.07,-0.18 -1.21,-0.71 -0.14,-0.53 0.17,-1.07 0.7,-1.21l1.48 -0.4c-0.08,-0.5 -0.12,-1.01 -0.12,-1.51 0,-0.51 0.04,-1.01 0.12,-1.51l-2.57 -0.69c-0.53,-0.15 -0.85,-0.69 -0.71,-1.22 0.15,-0.53 0.69,-0.84 1.22,-0.7l2.57 0.69c0.35,-0.93 0.86,-1.82 1.51,-2.62l-1.08 -1.08c-0.39,-0.39 -0.39,-1.02 0,-1.41 0.39,-0.39 1.02,-0.39 1.41,0l1.08 1.08c0.8,-0.65 1.69,-1.16 2.62,-1.51l-0.69 -2.57c-0.14,-0.53 0.17,-1.08 0.7,-1.22 0.53,-0.14 1.08,0.18 1.22,0.7l0.69 2.57c0.5,-0.07 1,-0.11 1.51,-0.11 0.51,0 1.01,0.04 1.51,0.11l0.4 -1.47c0.14,-0.53 0.69,-0.85 1.21,-0.7 0.53,0.14 0.85,0.68 0.71,1.21l-0.4 1.48c0.93,0.35 1.82,0.86 2.62,1.51l1.88 -1.88c0.39,-0.39 1.02,-0.39 1.41,0 0.39,0.39 0.39,1.02 0,1.4l-1.88 1.89zm-5.32 9.71c0.39,0.38 0.39,1.01 0,1.4 -0.39,0.39 -1.02,0.39 -1.41,0 -0.39,-0.39 -0.39,-1.02 0,-1.4 0.39,-0.39 1.02,-0.39 1.41,0zm2.52 -6.65c0.61,0.61 0.92,1.41 0.92,2.21 0,0.8 -0.31,1.61 -0.92,2.22 -0.61,0.61 -1.41,0.91 -2.21,0.91 -0.8,0 -1.6,-0.3 -2.22,-0.91 -0.61,-0.61 -0.91,-1.42 -0.91,-2.22 0,-0.8 0.3,-1.6 0.91,-2.21 0.62,-0.61 1.42,-0.92 2.22,-0.92 0.8,0 1.6,0.31 2.21,0.92zm-1.4 1.4c-0.23,-0.22 -0.52,-0.33 -0.81,-0.33 -0.29,0 -0.59,0.11 -0.81,0.33 -0.22,0.23 -0.34,0.52 -0.34,0.81 0,0.29 0.12,0.59 0.34,0.81 0.22,0.22 0.52,0.34 0.81,0.34 0.29,0 0.58,-0.12 0.81,-0.34 0.22,-0.22 0.33,-0.52 0.33,-0.81 0,-0.29 -0.11,-0.58 -0.33,-0.81zm-6.18 -2.57c0.39,0.39 0.39,1.02 0,1.41 -0.39,0.38 -1.02,0.38 -1.4,0 -0.39,-0.39 -0.39,-1.02 0,-1.41 0.38,-0.39 1.01,-0.39 1.4,0zm-0.41 5.88c0.39,0.39 0.39,1.02 0,1.4 -0.39,0.39 -1.02,0.39 -1.41,0 -0.39,-0.38 -0.39,-1.01 0,-1.4 0.39,-0.39 1.02,-0.39 1.41,0zm8.72 -7.1l0 -0.01 -0.01 0c-1.48,-1.48 -3.43,-2.23 -5.38,-2.23 -1.95,0 -3.9,0.75 -5.38,2.23l0 0 0 0 -0.01 0.01c-1.48,1.48 -2.22,3.43 -2.22,5.38 0,1.95 0.74,3.9 2.23,5.38 1.48,1.49 3.43,2.23 5.38,2.23 1.95,0 3.9,-0.74 5.38,-2.22l0.01 -0.01 0 0 0 0c1.48,-1.49 2.23,-3.43 2.23,-5.38 0,-1.95 -0.75,-3.9 -2.23,-5.38z"/>
  <path class="fil1" d="M44.21 36.12c0.26,0.35 0.47,0.72 0.65,1.11l0.58 -0.15c0.53,-0.15 1.07,0.17 1.21,0.7 0.14,0.53 -0.17,1.07 -0.7,1.21l-0.58 0.16c0.02,0.21 0.03,0.43 0.03,0.64 0,0.22 -0.01,0.43 -0.03,0.65l1.25 0.33c0.53,0.14 0.84,0.69 0.7,1.22 -0.14,0.53 -0.68,0.84 -1.21,0.7l-1.25 -0.34c-0.18,0.39 -0.39,0.77 -0.65,1.12l0.43 0.42c0.38,0.39 0.38,1.02 0,1.41 -0.39,0.39 -1.02,0.39 -1.41,0l-0.42 -0.43c-0.36,0.26 -0.73,0.47 -1.12,0.65l0.34 1.25c0.14,0.53 -0.18,1.07 -0.7,1.21 -0.53,0.14 -1.08,-0.17 -1.22,-0.7l-0.33 -1.25c-0.22,0.02 -0.43,0.03 -0.65,0.03 -0.21,0 -0.43,-0.01 -0.64,-0.03l-0.16 0.58c-0.14,0.53 -0.68,0.84 -1.21,0.7 -0.53,-0.14 -0.85,-0.68 -0.71,-1.21l0.16 -0.58c-0.39,-0.18 -0.76,-0.39 -1.11,-0.65l-0.92 0.92c-0.39,0.39 -1.02,0.39 -1.4,0 -0.39,-0.39 -0.39,-1.02 0,-1.41l0.91 -0.91c-0.26,-0.35 -0.47,-0.73 -0.64,-1.12l-0.58 0.16c-0.53,0.14 -1.08,-0.17 -1.22,-0.7 -0.14,-0.53 0.17,-1.08 0.7,-1.22l0.58 -0.15c-0.02,-0.22 -0.03,-0.43 -0.03,-0.65 0,-0.21 0.01,-0.43 0.03,-0.64l-1.25 -0.34c-0.53,-0.14 -0.84,-0.68 -0.7,-1.21 0.14,-0.53 0.69,-0.85 1.22,-0.7l1.25 0.33c0.17,-0.39 0.38,-0.76 0.64,-1.11l-0.42 -0.43c-0.39,-0.39 -0.39,-1.02 0,-1.4 0.38,-0.39 1.01,-0.39 1.4,0l0.43 0.42c0.35,-0.26 0.72,-0.47 1.11,-0.64l-0.34 -1.25c-0.14,-0.53 0.18,-1.08 0.71,-1.22 0.53,-0.14 1.07,0.18 1.21,0.7l0.34 1.25c0.21,-0.02 0.43,-0.03 0.64,-0.03 0.22,0 0.43,0.01 0.65,0.03l0.15 -0.57c0.14,-0.53 0.69,-0.85 1.22,-0.71 0.53,0.14 0.84,0.69 0.7,1.22l-0.16 0.58c0.39,0.17 0.76,0.38 1.12,0.64l0.91 -0.91c0.39,-0.39 1.02,-0.39 1.41,0 0.39,0.38 0.39,1.01 0,1.4l-0.92 0.92zm-3.65 4.97c0.39,0.39 0.39,1.02 0,1.41 -0.39,0.39 -1.02,0.39 -1.4,0 -0.39,-0.39 -0.39,-1.02 0,-1.41 0.38,-0.38 1.01,-0.38 1.4,0zm0.79 -4.01c0.39,0.39 0.39,1.02 0,1.41 -0.39,0.38 -1.02,0.38 -1.41,0 -0.38,-0.39 -0.38,-1.02 0,-1.41 0.39,-0.39 1.02,-0.39 1.41,0zm-3.4 1.35c0.39,0.38 0.39,1.01 0,1.4 -0.39,0.39 -1.02,0.39 -1.4,0 -0.39,-0.39 -0.39,-1.02 0,-1.4 0.38,-0.39 1.01,-0.39 1.4,0zm4.21 4.39l0 0 0 0c0.84,-0.84 1.25,-1.93 1.25,-3.03 0,-1.09 -0.41,-2.19 -1.25,-3.02l0 -0.01 0 0 0 0c-0.84,-0.83 -1.93,-1.25 -3.03,-1.25 -1.09,0 -2.19,0.42 -3.03,1.25 -0.83,0.84 -1.25,1.94 -1.25,3.03 0,1.1 0.42,2.19 1.25,3.03l0 0 0 0 0 0c0.84,0.84 1.94,1.26 3.03,1.26 1.1,0 2.19,-0.42 3.03,-1.26z"/>
  <path class="fil2" d="M21.15 35.77c0.26,0.35 0.47,0.72 0.65,1.11l0.58 -0.15c0.53,-0.15 1.07,0.17 1.21,0.7 0.14,0.53 -0.17,1.07 -0.7,1.21l-0.58 0.16c0.02,0.21 0.03,0.43 0.03,0.64 0,0.22 -0.01,0.43 -0.03,0.65l1.25 0.33c0.53,0.14 0.84,0.69 0.7,1.22 -0.14,0.53 -0.68,0.84 -1.21,0.7l-1.25 -0.34c-0.18,0.39 -0.39,0.77 -0.65,1.12l0.43 0.42c0.39,0.39 0.39,1.02 0,1.41 -0.39,0.39 -1.02,0.39 -1.41,0l-0.42 -0.43c-0.35,0.26 -0.73,0.47 -1.12,0.65l0.34 1.25c0.14,0.53 -0.17,1.07 -0.7,1.21 -0.53,0.14 -1.08,-0.17 -1.22,-0.7l-0.33 -1.25c-0.22,0.02 -0.43,0.03 -0.65,0.03 -0.21,0 -0.43,-0.01 -0.64,-0.03l-0.16 0.58c-0.14,0.53 -0.68,0.84 -1.21,0.7 -0.53,-0.14 -0.85,-0.68 -0.7,-1.21l0.15 -0.58c-0.39,-0.18 -0.76,-0.39 -1.11,-0.65l-0.92 0.92c-0.39,0.39 -1.02,0.39 -1.4,0 -0.39,-0.39 -0.39,-1.02 0,-1.41l0.91 -0.91c-0.25,-0.35 -0.47,-0.73 -0.64,-1.12l-0.58 0.16c-0.53,0.14 -1.08,-0.17 -1.22,-0.7 -0.14,-0.53 0.18,-1.08 0.71,-1.22l0.58 -0.15c-0.03,-0.22 -0.04,-0.43 -0.04,-0.65 0,-0.21 0.01,-0.43 0.04,-0.64l-1.25 -0.34c-0.53,-0.14 -0.85,-0.68 -0.71,-1.21 0.14,-0.53 0.69,-0.85 1.22,-0.7l1.25 0.33c0.17,-0.39 0.39,-0.76 0.64,-1.11l-0.42 -0.43c-0.39,-0.39 -0.39,-1.01 0,-1.4 0.39,-0.39 1.01,-0.39 1.4,0l0.43 0.42c0.35,-0.25 0.72,-0.47 1.11,-0.64l-0.33 -1.25c-0.15,-0.53 0.17,-1.08 0.7,-1.22 0.53,-0.14 1.07,0.18 1.21,0.71l0.34 1.25c0.21,-0.03 0.43,-0.04 0.64,-0.04 0.22,0 0.43,0.01 0.65,0.04l0.15 -0.58c0.14,-0.53 0.69,-0.85 1.22,-0.71 0.53,0.14 0.84,0.69 0.7,1.22l-0.16 0.58c0.39,0.17 0.77,0.39 1.12,0.64l0.91 -0.91c0.39,-0.39 1.02,-0.39 1.41,0 0.39,0.38 0.39,1.01 0,1.4l-0.92 0.92zm-3.64 4.77c0.39,0.39 0.39,1.02 0,1.41 -0.38,0.39 -1.01,0.39 -1.4,0 -0.39,-0.39 -0.39,-1.02 0,-1.41 0.39,-0.38 1.02,-0.38 1.4,0zm-2.61 -2.66c0.39,0.38 0.39,1.01 0,1.4 -0.39,0.39 -1.01,0.39 -1.4,0 -0.39,-0.39 -0.39,-1.02 0,-1.4 0.39,-0.39 1.01,-0.39 1.4,0zm5.46 1.56c0,-1.09 -0.42,-2.19 -1.26,-3.03 -0.84,-0.83 -1.93,-1.25 -3.03,-1.25 -1.09,0 -2.19,0.42 -3.03,1.25l0 0c-0.83,0.84 -1.25,1.94 -1.25,3.03 0,1.1 0.42,2.2 1.25,3.03l0 0c0.84,0.84 1.94,1.26 3.03,1.26 1.1,0 2.19,-0.42 3.03,-1.26 0.84,-0.83 1.26,-1.93 1.26,-3.03z"/>
 </g>
</svg>
