<?xml version="1.0" encoding="UTF-8"?>
<!DOCTYPE svg PUBLIC "-//W3C//DTD SVG 1.1//EN" "http://www.w3.org/Graphics/SVG/1.1/DTD/svg11.dtd">
<!-- Creator: CorelDRAW 2019 (64-Bit) -->
<svg xmlns="http://www.w3.org/2000/svg" xml:space="preserve" width="300px" height="300px" version="1.1" style="shape-rendering:geometricPrecision; text-rendering:geometricPrecision; image-rendering:optimizeQuality; fill-rule:evenodd; clip-rule:evenodd"
viewBox="0 0 40.37 40.37"
 xmlns:xlink="http://www.w3.org/1999/xlink">
 <defs>
  <style type="text/css">
   <![CDATA[
    .fil0 {fill:none}
    .fil1 {fill:#1F124E;fill-rule:nonzero}
    .fil2 {fill:#2E7AC5;fill-rule:nonzero}
   ]]>
  </style>
 </defs>
 <g id="Слой_x0020_1">
  <metadata id="CorelCorpID_0Corel-Layer"/>
  <rect class="fil0" width="40.37" height="40.37"/>
  <path class="fil1" d="M16.32 22.93l0.03 -0.06c0.18,-0.34 0.32,-0.73 0.41,-1.13 0.11,-0.42 0.17,-0.86 0.21,-1.28l0 0 0 -0.03c-0.71,-0.57 -1.3,-1.3 -1.78,-2.19 -0.24,-0.44 -0.41,-1 -0.53,-1.59 -0.15,-0.74 -0.22,-1.52 -0.24,-2.12l0 -0.04 0.01 -0.62c0,-0.4 0.33,-0.72 0.73,-0.72 0.4,0.01 0.72,0.34 0.71,0.74l-0.01 0.6c0.03,0.54 0.09,1.23 0.22,1.87 0.09,0.46 0.22,0.89 0.38,1.19 0.43,0.79 0.95,1.42 1.58,1.87l0.05 0.04c0.03,0.01 0.06,0.03 0.09,0.05 0.57,0.38 1.23,0.62 2,0.71 0.78,-0.09 1.44,-0.33 2.01,-0.71 0.03,-0.02 0.06,-0.04 0.09,-0.05l0.05 -0.04c0.63,-0.45 1.15,-1.08 1.58,-1.87 0.16,-0.3 0.29,-0.73 0.38,-1.19 0.13,-0.64 0.19,-1.33 0.21,-1.87l-0.01 -0.6c0,-0.4 0.32,-0.73 0.72,-0.74 0.4,0 0.73,0.32 0.73,0.72l0.01 0.6c0,0.02 0,0.04 0,0.06 -0.02,0.6 -0.09,1.38 -0.24,2.12 -0.12,0.59 -0.29,1.15 -0.53,1.59 -0.48,0.89 -1.07,1.62 -1.79,2.19l0.01 0.03 0 0c0.03,0.42 0.1,0.86 0.2,1.28 0.1,0.4 0.24,0.79 0.42,1.13l0.03 0.06c0.09,-0.03 0.19,-0.04 0.29,-0.04l0.29 0.02c1.55,0.09 2.94,0.78 3.93,1.84 1,1.06 1.61,2.48 1.61,4.03l0 4.18c0,0.4 -0.32,0.72 -0.73,0.72l-18.52 0c-0.4,0 -0.72,-0.32 -0.72,-0.72l0 -4.18c0,-1.55 0.61,-2.97 1.6,-4.03 1,-1.06 2.39,-1.75 3.94,-1.84l0.29 -0.02c0.1,0 0.2,0.01 0.29,0.04zm1.29 0.67l-0.13 0.22 2.32 1.87c0.11,0.09 0.25,0.13 0.38,0.13 0.14,0 0.28,-0.04 0.39,-0.13l2.32 -1.87 -0.13 -0.22c-0.01,-0.02 -0.01,-0.03 -0.02,-0.05 -0.24,-0.46 -0.42,-0.96 -0.54,-1.46 -0.07,-0.28 -0.13,-0.57 -0.17,-0.86 -0.54,0.22 -1.12,0.37 -1.75,0.44 -0.06,0.01 -0.11,0.01 -0.17,0 -0.64,-0.06 -1.23,-0.21 -1.77,-0.44 -0.04,0.29 -0.1,0.58 -0.17,0.86 -0.12,0.5 -0.3,1 -0.54,1.46 -0.01,0.02 -0.02,0.03 -0.02,0.05zm-5.96 5.18l0 3.45 17.07 0 0 -3.45c0,-1.17 -0.46,-2.24 -1.21,-3.04 -0.75,-0.8 -1.8,-1.32 -2.96,-1.38l-0.02 0 -3.06 2.46c-0.37,0.3 -0.83,0.46 -1.29,0.46 -0.45,0 -0.91,-0.16 -1.29,-0.46l-3.06 -2.46 -0.01 0c-1.17,0.06 -2.21,0.58 -2.96,1.38 -0.75,0.8 -1.21,1.87 -1.21,3.04z"/>
  <path class="fil2" d="M16.45 14.13l-1.03 0.42c-0.37,0.15 -0.79,-0.03 -0.94,-0.4 -0.04,-0.09 -0.06,-0.18 -0.06,-0.27l0 0 0 -4.21c0,-0.13 0.04,-0.25 0.09,-0.35l0.07 -0.13c0.16,-0.32 0.39,-0.62 0.65,-0.88 0.27,-0.27 0.59,-0.51 0.91,-0.7 1.06,-0.62 2.56,-0.92 4.04,-0.92 1.49,0 2.99,0.3 4.05,0.92 0.32,0.19 0.64,0.43 0.91,0.7 0.26,0.26 0.49,0.56 0.65,0.88l0.08 0.16c0.05,0.1 0.08,0.21 0.08,0.32l0 4.21c0,0.4 -0.33,0.73 -0.73,0.73 -0.11,0 -0.22,-0.03 -0.31,-0.07l-1 -0.41c-0.98,-0.4 -2.35,-0.6 -3.73,-0.6 -1.37,0 -2.74,0.2 -3.73,0.6zm-0.57 -1.33l0.03 -0.01c1.16,-0.48 2.73,-0.71 4.27,-0.71 1.55,0 3.12,0.23 4.28,0.71l0.03 0.01 0 -2.96 0 0c-0.09,-0.18 -0.22,-0.35 -0.37,-0.5 -0.19,-0.19 -0.41,-0.35 -0.63,-0.48 -0.82,-0.48 -2.05,-0.72 -3.31,-0.72 -1.25,0 -2.48,0.24 -3.31,0.72 -0.21,0.13 -0.43,0.29 -0.62,0.48 -0.15,0.15 -0.28,0.32 -0.37,0.5l0 0 0 2.96z"/>
 </g>
</svg>
