<?xml version="1.0" encoding="UTF-8"?>
<!DOCTYPE svg PUBLIC "-//W3C//DTD SVG 1.1//EN" "http://www.w3.org/Graphics/SVG/1.1/DTD/svg11.dtd">
<!-- Creator: CorelDRAW 2019 (64-Bit) -->
<svg xmlns="http://www.w3.org/2000/svg" xml:space="preserve" width="300px" height="300px" version="1.1" style="shape-rendering:geometricPrecision; text-rendering:geometricPrecision; image-rendering:optimizeQuality; fill-rule:evenodd; clip-rule:evenodd"
viewBox="0 0 261.84 261.84"
 xmlns:xlink="http://www.w3.org/1999/xlink">
 <defs>
  <style type="text/css">
   <![CDATA[
    .fil0 {fill:none}
    .fil1 {fill:#1F124E;fill-rule:nonzero}
    .fil2 {fill:#2E7AC5;fill-rule:nonzero}
   ]]>
  </style>
 </defs>
 <g id="Слой_x0020_1">
  <metadata id="CorelCorpID_0Corel-Layer"/>
  <rect class="fil0" width="261.84" height="261.84"/>
  <g id="_2460989696880">
   <path class="fil1" d="M153.92 124.44c-0.2,-5.12 1.41,-7.54 3.18,-10.22 1.17,-1.78 2.48,-3.75 2.45,-8.31 -0.03,-4.51 -1.38,-7.42 -2.75,-10.39 -1.87,-4.05 -3.77,-8.17 -3.77,-15.56l-0.02 0 0 -0.02 0.02 0c0,-7.08 1.69,-14.86 6.37,-20.99 4.8,-6.29 12.53,-10.7 24.43,-10.7l0 -0.02 0.02 0 0 0.02c12.77,0.01 29,8.19 40.63,24.44 8.93,12.48 15.26,29.76 15.26,51.75 0,21.99 -6.33,39.27 -15.26,51.76 -11.63,16.24 -27.86,24.43 -40.63,24.44l0 0.01 -0.02 0 0 -0.01c-11.9,0 -19.63,-4.42 -24.43,-10.71 -4.68,-6.12 -6.37,-13.91 -6.37,-20.98l-0.02 0 0 -0.03 0.02 0c0,-7.38 1.9,-11.51 3.77,-15.55 1.37,-2.97 2.72,-5.89 2.75,-10.4 0.03,-4.55 -1.28,-6.53 -2.45,-8.3 -1.77,-2.68 -3.38,-5.11 -3.18,-10.23zm11.02 -5.03c-0.9,1.37 -1.72,2.61 -1.62,4.81 0.01,0.15 0.01,0.29 0,0.44 -0.1,2.2 0.72,3.44 1.62,4.81 1.92,2.91 4.05,6.12 4,13.54 -0.05,6.61 -1.81,10.42 -3.6,14.3 -1.45,3.13 -2.92,6.33 -2.92,11.61l0.02 0 0 0.03 -0.02 0c0,5.28 1.18,10.99 4.45,15.27 3.15,4.13 8.47,7.03 16.96,7.02l0 -0.01 0.02 0 0 0.01c10.09,0 23.2,-6.88 32.97,-20.53 7.9,-11.04 13.5,-26.46 13.5,-46.27 0,-19.81 -5.6,-35.23 -13.5,-46.27 -9.77,-13.65 -22.88,-20.52 -32.97,-20.53l0 0.02 -0.02 0 0 -0.02c-8.49,0 -13.81,2.9 -16.96,7.02 -3.27,4.28 -4.45,9.99 -4.45,15.28l0.02 0 0 0.02 -0.02 0c0,5.28 1.47,8.48 2.92,11.62 1.79,3.87 3.55,7.69 3.6,14.29 0.05,7.42 -2.08,10.64 -4,13.54z"/>
   <path class="fil2" d="M205.61 88.92c-1.3,-2.25 -0.54,-5.12 1.71,-6.43 2.25,-1.3 5.13,-0.53 6.43,1.72 3.21,5.56 5.84,11.88 7.62,18.94 1.63,6.49 2.55,13.59 2.55,21.29 0,7.71 -0.92,14.81 -2.55,21.29 -1.78,7.06 -4.41,13.38 -7.62,18.95 -1.3,2.24 -4.18,3.01 -6.43,1.71 -2.25,-1.3 -3.01,-4.18 -1.71,-6.43 2.78,-4.82 5.07,-10.32 6.63,-16.51 1.44,-5.74 2.25,-12.07 2.25,-19.01 0,-6.94 -0.81,-13.27 -2.25,-19 -1.56,-6.2 -3.85,-11.7 -6.63,-16.52z"/>
   <path class="fil1" d="M180.21 108.99c2.5,0.72 3.93,3.32 3.21,5.82 -0.72,2.49 -3.33,3.92 -5.82,3.2 -2.98,-0.87 -5.99,-2.19 -8.95,-4.05 -2.69,-1.7 -5.34,-3.84 -7.87,-6.49 -1.79,-1.88 -1.72,-4.86 0.16,-6.65 1.88,-1.79 4.86,-1.71 6.65,0.17 1.97,2.06 4.02,3.72 6.07,5.01 2.2,1.39 4.4,2.36 6.55,2.99z"/>
   <path class="fil1" d="M177.6 130.87c2.49,-0.72 5.1,0.72 5.82,3.21 0.72,2.49 -0.71,5.1 -3.21,5.82 -2.14,0.63 -4.35,1.6 -6.55,2.98 -2.06,1.3 -4.1,2.95 -6.07,5.02 -1.79,1.88 -4.77,1.95 -6.65,0.16 -1.88,-1.79 -1.95,-4.77 -0.16,-6.65 2.53,-2.65 5.18,-4.79 7.87,-6.48 2.96,-1.86 5.97,-3.19 8.95,-4.06z"/>
   <path class="fil1" d="M159.36 124.45c2.6,0 4.71,2.12 4.71,4.72 0,2.6 -2.11,4.71 -4.71,4.71l-3.88 0c-1.9,0 -3.63,0.78 -4.89,2.04 -1.25,1.26 -2.04,2.99 -2.04,4.89l0 68.08c0,2.61 -2.11,4.72 -4.71,4.72 -2.6,0 -4.71,-2.11 -4.71,-4.72l0 -68.08c0,-4.5 1.83,-8.59 4.8,-11.55 2.96,-2.97 7.05,-4.81 11.55,-4.81l3.88 0z"/>
   <path class="fil1" d="M159.36 115c2.6,0 4.71,2.11 4.71,4.71 0,2.61 -2.11,4.72 -4.71,4.72l-3.88 0c-4.5,0 -8.59,-1.84 -11.55,-4.8 -2.97,-2.96 -4.8,-7.05 -4.8,-11.56l0 -14.7c0,-2.6 2.11,-4.71 4.71,-4.71 2.6,0 4.71,2.11 4.71,4.71l0 14.7c0,1.9 0.79,3.63 2.04,4.89 1.26,1.26 2.99,2.04 4.89,2.04l3.88 0z"/>
   <path class="fil1" d="M98.51 124.22c0.11,-2.2 -0.71,-3.44 -1.61,-4.81 -1.92,-2.9 -4.05,-6.12 -4,-13.54 0.04,-6.6 1.8,-10.42 3.59,-14.29 1.45,-3.14 2.93,-6.34 2.93,-11.62l-0.02 0 0 -0.02 0.02 0c-0.01,-5.29 -1.19,-11 -4.46,-15.28 -3.15,-4.12 -8.47,-7.02 -16.95,-7.02l0 0.02 -0.03 0 0 -0.02c-10.08,0.01 -23.19,6.88 -32.96,20.53 -7.9,11.04 -13.5,26.46 -13.5,46.27 0,19.81 5.6,35.23 13.5,46.27 9.77,13.65 22.88,20.53 32.96,20.53l0 -0.01 0.03 0 0 0.01c8.48,0.01 13.8,-2.89 16.95,-7.02 3.27,-4.28 4.45,-9.99 4.46,-15.27l-0.02 0 0 -0.03 0.02 0c0,-5.28 -1.48,-8.48 -2.93,-11.61 -1.79,-3.88 -3.55,-7.69 -3.59,-14.3 -0.05,-7.42 2.08,-10.63 4,-13.54 0.9,-1.37 1.72,-2.61 1.61,-4.81 0,-0.15 0,-0.29 0,-0.44zm6.23 -10c1.77,2.68 3.37,5.1 3.17,10.22 0.2,5.12 -1.4,7.55 -3.17,10.23 -1.18,1.77 -2.48,3.75 -2.45,8.3 0.03,4.51 1.38,7.43 2.75,10.4 1.86,4.04 3.77,8.17 3.77,15.55l0.02 0 0 0.03 -0.02 0c-0.01,7.07 -1.69,14.86 -6.37,20.98 -4.81,6.29 -12.54,10.71 -24.43,10.71l0 0.01 -0.03 0 0 -0.01c-12.77,-0.01 -28.99,-8.2 -40.62,-24.44 -8.94,-12.49 -15.27,-29.77 -15.27,-51.76 0,-21.99 6.33,-39.27 15.27,-51.75 11.63,-16.25 27.85,-24.43 40.62,-24.44l0 -0.02 0.03 0 0 0.02c11.9,0 19.62,4.41 24.43,10.7 4.68,6.13 6.36,13.91 6.37,20.99l0.02 0 0 0.02 -0.02 0c0,7.39 -1.91,11.51 -3.77,15.56 -1.37,2.97 -2.72,5.88 -2.75,10.39 -0.03,4.56 1.27,6.53 2.45,8.31z"/>
   <path class="fil2" d="M48.09 84.21c1.3,-2.25 4.18,-3.02 6.42,-1.72 2.25,1.31 3.02,4.18 1.72,6.43 -2.79,4.82 -5.07,10.32 -6.63,16.52 -1.44,5.73 -2.25,12.06 -2.25,19 0,6.94 0.81,13.27 2.25,19.01 1.56,6.19 3.84,11.69 6.63,16.51 1.3,2.25 0.53,5.13 -1.72,6.43 -2.24,1.3 -5.12,0.53 -6.42,-1.71 -3.22,-5.57 -5.85,-11.89 -7.62,-18.95 -1.63,-6.48 -2.55,-13.58 -2.55,-21.29 0,-7.7 0.92,-14.8 2.55,-21.29 1.77,-7.06 4.4,-13.38 7.62,-18.94z"/>
   <path class="fil1" d="M84.24 118.01c-2.5,0.72 -5.1,-0.71 -5.82,-3.2 -0.73,-2.5 0.71,-5.1 3.2,-5.82 2.15,-0.63 4.36,-1.6 6.56,-2.99 2.05,-1.29 4.09,-2.95 6.07,-5.01 1.79,-1.88 4.76,-1.96 6.64,-0.17 1.89,1.79 1.96,4.77 0.17,6.65 -2.53,2.65 -5.18,4.79 -7.88,6.49 -2.95,1.86 -5.97,3.18 -8.94,4.05z"/>
   <path class="fil1" d="M81.62 139.9c-2.49,-0.72 -3.93,-3.33 -3.2,-5.82 0.72,-2.49 3.32,-3.93 5.82,-3.21 2.97,0.87 5.99,2.2 8.94,4.06 2.7,1.69 5.35,3.83 7.88,6.48 1.79,1.88 1.72,4.86 -0.17,6.65 -1.88,1.79 -4.85,1.72 -6.64,-0.16 -1.98,-2.07 -4.02,-3.72 -6.07,-5.02 -2.2,-1.38 -4.41,-2.35 -6.56,-2.98z"/>
   <path class="fil1" d="M102.48 133.88c-2.61,0 -4.72,-2.11 -4.72,-4.71 0,-2.6 2.11,-4.72 4.72,-4.72l3.88 0c4.5,0 8.59,1.84 11.55,4.81 2.96,2.96 4.8,7.05 4.8,11.55l0 68.08c0,2.61 -2.11,4.72 -4.71,4.72 -2.61,0 -4.72,-2.11 -4.72,-4.72l0 -68.08c0,-1.9 -0.78,-3.63 -2.04,-4.89 -1.25,-1.26 -2.99,-2.04 -4.88,-2.04l-3.88 0z"/>
   <path class="fil1" d="M102.48 124.43c-2.61,0 -4.72,-2.11 -4.72,-4.72 0,-2.6 2.11,-4.71 4.72,-4.71l3.88 0c1.89,0 3.63,-0.78 4.88,-2.04 1.26,-1.26 2.04,-2.99 2.04,-4.89l0 -14.7c0,-2.6 2.11,-4.71 4.72,-4.71 2.6,0 4.71,2.11 4.71,4.71l0 14.7c0,4.51 -1.84,8.6 -4.8,11.56 -2.96,2.96 -7.05,4.8 -11.55,4.8l-3.88 0z"/>
  </g>
 </g>
</svg>
