<?xml version="1.0" encoding="UTF-8"?>
<!DOCTYPE svg PUBLIC "-//W3C//DTD SVG 1.1//EN" "http://www.w3.org/Graphics/SVG/1.1/DTD/svg11.dtd">
<!-- Creator: CorelDRAW 2019 (64-Bit) -->
<svg xmlns="http://www.w3.org/2000/svg" xml:space="preserve" width="300px" height="300px" version="1.1" style="shape-rendering:geometricPrecision; text-rendering:geometricPrecision; image-rendering:optimizeQuality; fill-rule:evenodd; clip-rule:evenodd"
viewBox="0 0 95.45 95.45"
 xmlns:xlink="http://www.w3.org/1999/xlink">
 <defs>
  <style type="text/css">
   <![CDATA[
    .fil0 {fill:none}
    .fil2 {fill:#2E7AC5}
    .fil3 {fill:#1F124E;fill-rule:nonzero}
    .fil1 {fill:#2E7AC5;fill-rule:nonzero}
   ]]>
  </style>
 </defs>
 <g id="Слой_x0020_1">
  <metadata id="CorelCorpID_0Corel-Layer"/>
  <rect class="fil0" width="95.45" height="95.45"/>
  <g id="_2425263237536">
   <path class="fil1" d="M48.91 72.91c0.12,0.09 0.26,0.16 0.4,0.21 0.14,0.04 0.3,0.07 0.47,0.07l1.11 0c0.36,0 0.7,-0.13 0.95,-0.35 0.26,-0.21 0.45,-0.52 0.51,-0.87l1.57 -8.59c0.04,-0.24 0.02,-0.49 -0.05,-0.72 -0.07,-0.22 -0.19,-0.43 -0.37,-0.61 -0.21,-0.21 -0.47,-0.34 -0.74,-0.4 -0.28,-0.06 -0.58,-0.03 -0.85,0.08l-3.89 1.55c-0.29,0.12 -0.6,0.11 -0.87,0l-3.89 -1.55c-0.28,-0.11 -0.57,-0.14 -0.85,-0.08 -0.28,0.06 -0.54,0.19 -0.75,0.4l0 0.01 0 0c-0.17,0.17 -0.3,0.38 -0.37,0.6 -0.07,0.23 -0.08,0.48 -0.04,0.71l1.56 8.6c0.07,0.36 0.25,0.66 0.51,0.87l0 0.01 0 -0.01c0.26,0.22 0.59,0.35 0.95,0.35l1.12 0c0.17,0 0.32,-0.03 0.46,-0.07 0.15,-0.05 0.29,-0.12 0.41,-0.21l0.64 -0.46c0.42,-0.31 0.99,-0.29 1.39,0.01l0.62 0.45zm-0.31 2.43c-0.36,-0.12 -0.7,-0.29 -1.02,-0.52 -0.31,0.23 -0.66,0.4 -1.01,0.52 -0.39,0.12 -0.78,0.18 -1.18,0.18l-1.12 0c-0.92,0 -1.78,-0.33 -2.44,-0.89l0 0c-0.67,-0.55 -1.15,-1.34 -1.31,-2.25l-1.56 -8.59c-0.12,-0.62 -0.07,-1.24 0.11,-1.82 0.18,-0.58 0.5,-1.12 0.94,-1.56l0 0c0.54,-0.54 1.22,-0.89 1.93,-1.04 0.72,-0.15 1.48,-0.09 2.19,0.19l3.45 1.39 3.46 -1.39c0.71,-0.28 1.47,-0.34 2.18,-0.19 0.72,0.15 1.4,0.5 1.94,1.04 0.44,0.44 0.76,0.98 0.94,1.56 0.18,0.58 0.22,1.2 0.11,1.82l-1.56 8.59c-0.17,0.92 -0.65,1.7 -1.31,2.25 -0.67,0.56 -1.52,0.89 -2.45,0.89l-1.11 0c-0.4,0 -0.8,-0.06 -1.18,-0.18z"/>
   <circle class="fil2" cx="45.38" cy="65.53" r="1.38"/>
   <circle class="fil2" cx="49.79" cy="65.53" r="1.38"/>
   <circle class="fil2" cx="45.38" cy="69.92" r="1.38"/>
   <circle class="fil2" cx="49.79" cy="69.92" r="1.38"/>
   <path class="fil3" d="M16.96 75.98c-0.75,0.57 -1.83,0.43 -2.4,-0.33 -0.58,-0.75 -0.43,-1.83 0.32,-2.4 0.8,-0.62 1.64,-1.35 2.52,-2.12 3.14,-2.74 6.72,-5.86 10.87,-6.1l1.27 -0.07c4.62,-0.27 4.95,-4.6 5.34,-9.79 0.05,-0.58 0.09,-1.18 0.19,-2.25l0 0 0.07 -0.95c-3.25,-2.41 -5.92,-5.66 -8.08,-9.63 -0.99,-1.81 -1.69,-4.15 -2.19,-6.6 -0.64,-3.16 -0.94,-6.51 -1.04,-9.08l0.04 -5.83c0.01,-0.95 0.78,-1.71 1.73,-1.7 0.94,0.01 1.7,0.78 1.7,1.73l-0.05 5.68c0.1,2.43 0.38,5.59 0.98,8.53 0.43,2.14 1.03,4.15 1.84,5.63 1.98,3.65 4.42,6.59 7.37,8.71 0.12,0.08 0.23,0.16 0.35,0.24 0.07,0.04 0.14,0.09 0.21,0.14 2.76,1.85 5.99,3.02 9.73,3.44 3.74,-0.42 6.96,-1.59 9.73,-3.44 0.06,-0.05 0.13,-0.1 0.21,-0.14 0.11,-0.08 0.23,-0.16 0.34,-0.24 2.96,-2.12 5.39,-5.06 7.38,-8.71 0.81,-1.48 1.4,-3.49 1.84,-5.63 0.59,-2.94 0.87,-6.1 0.98,-8.53l-0.05 -5.68c-0.01,-0.95 0.75,-1.72 1.7,-1.73 0.94,-0.01 1.72,0.75 1.72,1.7l0.05 5.69c0,0.05 0,0.09 0,0.14 -0.11,2.57 -0.41,5.92 -1.05,9.08 -0.49,2.45 -1.2,4.79 -2.18,6.6 -2.17,3.97 -4.84,7.22 -8.09,9.63l0.08 0.95 -0.01 0c0.1,1.07 0.15,1.66 0.19,2.25 0.4,5.19 0.72,9.52 5.34,9.79l1.27 0.07c4.16,0.24 7.73,3.36 10.87,6.1 0.88,0.77 1.72,1.5 2.53,2.12 0.75,0.57 0.89,1.65 0.32,2.4 -0.58,0.76 -1.65,0.9 -2.4,0.33 -0.85,-0.66 -1.76,-1.45 -2.71,-2.27 -2.72,-2.37 -5.82,-5.08 -8.8,-5.25l-1.26 -0.08c-7.63,-0.44 -8.06,-6.13 -8.58,-12.95l-0.11 -1.42c-2.7,1.39 -5.72,2.28 -9.09,2.64 -0.13,0.02 -0.26,0.02 -0.4,0.01 -3.39,-0.36 -6.42,-1.26 -9.13,-2.65l-0.11 1.42c-0.52,6.82 -0.95,12.51 -8.58,12.95l-1.27 0.08c-2.98,0.17 -6.08,2.87 -8.8,5.25 -0.95,0.82 -1.85,1.61 -2.7,2.27z"/>
   <path class="fil3" d="M51.1 42.38c0.63,-0.14 1.25,0.26 1.39,0.89 0.14,0.63 -0.26,1.25 -0.89,1.39 -1.22,0.27 -2.55,0.4 -3.87,0.4 -1.33,0 -2.66,-0.13 -3.88,-0.4 -0.63,-0.14 -1.02,-0.76 -0.89,-1.39 0.14,-0.63 0.77,-1.03 1.4,-0.89 1.05,0.23 2.21,0.35 3.37,0.35 1.16,0 2.32,-0.12 3.37,-0.35z"/>
  </g>
 </g>
</svg>
