<?xml version="1.0" encoding="UTF-8"?>
<!DOCTYPE svg PUBLIC "-//W3C//DTD SVG 1.1//EN" "http://www.w3.org/Graphics/SVG/1.1/DTD/svg11.dtd">
<!-- Creator: CorelDRAW 2019 (64-Bit) -->
<svg xmlns="http://www.w3.org/2000/svg" xml:space="preserve" width="300px" height="300px" version="1.1" style="shape-rendering:geometricPrecision; text-rendering:geometricPrecision; image-rendering:optimizeQuality; fill-rule:evenodd; clip-rule:evenodd"
viewBox="0 0 40.37 40.37"
 xmlns:xlink="http://www.w3.org/1999/xlink">
 <defs>
  <style type="text/css">
   <![CDATA[
    .fil0 {fill:none}
    .fil1 {fill:#1F124E;fill-rule:nonzero}
    .fil2 {fill:#2E7AC5;fill-rule:nonzero}
   ]]>
  </style>
 </defs>
 <g id="Слой_x0020_1">
  <metadata id="CorelCorpID_0Corel-Layer"/>
  <rect class="fil0" width="40.37" height="40.37"/>
  <g id="_2424556128640">
   <path class="fil1" d="M11.79 21.97c0,-1.58 0.8,-3.42 1.93,-5.22 1.6,-2.54 3.85,-5.03 5.3,-6.5l0.61 -0.62c0.31,-0.31 0.81,-0.31 1.12,0l0.62 0.62c1.45,1.47 3.7,3.96 5.3,6.5 1.13,1.8 1.93,3.64 1.93,5.22 0,1.69 -0.45,3.35 -1.28,4.78 -0.81,1.39 -1.99,2.56 -3.47,3.33 -0.57,0.29 -1.16,0.51 -1.78,0.66 -0.62,0.16 -1.25,0.23 -1.88,0.23 -0.63,0 -1.25,-0.07 -1.87,-0.23 -0.62,-0.15 -1.22,-0.37 -1.78,-0.66 -1.48,-0.77 -2.66,-1.95 -3.47,-3.33 -0.83,-1.43 -1.28,-3.09 -1.28,-4.78zm3.27 -4.38c-0.98,1.57 -1.69,3.13 -1.69,4.38 0,1.41 0.38,2.79 1.07,3.98 0.67,1.14 1.62,2.09 2.83,2.72 0.45,0.24 0.93,0.42 1.42,0.54 0.48,0.11 0.99,0.18 1.5,0.18 0.52,0 1.03,-0.07 1.51,-0.18 0.49,-0.12 0.96,-0.3 1.42,-0.54 1.21,-0.62 2.16,-1.58 2.83,-2.72 0.69,-1.19 1.07,-2.57 1.07,-3.98 0,-1.25 -0.71,-2.81 -1.69,-4.38 -1.51,-2.41 -3.68,-4.81 -5.08,-6.22l-0.06 -0.06 -0.05 0.06c-1.4,1.41 -3.57,3.81 -5.08,6.22z"/>
   <path class="fil1" d="M15.04 21.74c0.01,-0.4 0.35,-0.71 0.75,-0.7 0.4,0.01 0.71,0.34 0.7,0.74 0,0.15 0.01,0.32 0.03,0.5 0.04,0.23 0.08,0.46 0.13,0.65 0.12,0.44 0.28,0.86 0.5,1.26 0.22,0.39 0.48,0.75 0.79,1.08 0.28,0.29 0.27,0.75 -0.02,1.02 -0.29,0.28 -0.75,0.27 -1.03,-0.02 -0.4,-0.42 -0.73,-0.89 -1.01,-1.38 -0.27,-0.5 -0.48,-1.04 -0.63,-1.6 -0.06,-0.24 -0.12,-0.53 -0.16,-0.81 -0.04,-0.25 -0.06,-0.5 -0.05,-0.74z"/>
   <path class="fil2" d="M27.77 15.2c-0.27,0.31 -0.73,0.34 -1.03,0.07 -0.3,-0.26 -0.33,-0.72 -0.06,-1.02 0.26,-0.31 0.51,-0.58 0.74,-0.82 0.26,-0.29 0.52,-0.55 0.76,-0.79l0.46 -0.47c0.28,-0.29 0.74,-0.29 1.03,0l0.46 0.47c1.09,1.1 2.79,2.98 3.99,4.9 0.86,1.37 1.48,2.77 1.48,3.99 0,1.29 -0.35,2.56 -0.99,3.65 -0.62,1.06 -1.52,1.96 -2.65,2.55 -0.44,0.22 -0.89,0.39 -1.37,0.51 -0.47,0.11 -0.95,0.17 -1.44,0.17 -0.18,0 -0.38,-0.01 -0.6,-0.03 -0.4,-0.04 -0.69,-0.39 -0.65,-0.79 0.04,-0.4 0.4,-0.69 0.79,-0.65 0.14,0.01 0.3,0.02 0.46,0.02 0.38,0 0.75,-0.04 1.1,-0.13 0.36,-0.09 0.71,-0.22 1.04,-0.39 0.88,-0.46 1.58,-1.16 2.07,-1.99 0.51,-0.88 0.78,-1.89 0.78,-2.92 0,-0.92 -0.52,-2.07 -1.24,-3.23 -1.11,-1.77 -2.7,-3.53 -3.75,-4.59 -0.2,0.2 -0.42,0.44 -0.67,0.71 -0.24,0.25 -0.48,0.52 -0.71,0.78z"/>
   <path class="fil2" d="M11.69 26.94c0.4,-0.04 0.76,0.25 0.8,0.64 0.04,0.4 -0.25,0.76 -0.65,0.8 -0.1,0.01 -0.21,0.02 -0.31,0.02 -0.13,0.01 -0.23,0.01 -0.32,0.01 -0.48,0 -0.96,-0.06 -1.43,-0.17 -0.48,-0.12 -0.94,-0.29 -1.37,-0.51 -1.14,-0.59 -2.04,-1.49 -2.66,-2.55 -0.63,-1.1 -0.98,-2.36 -0.98,-3.65 0,-1.22 0.62,-2.62 1.47,-3.99 1.21,-1.92 2.9,-3.8 4,-4.9l0.46 -0.47c0.28,-0.29 0.74,-0.29 1.03,0l0.46 0.47c0.24,0.24 0.5,0.51 0.77,0.79 0.22,0.25 0.47,0.53 0.74,0.83 0.27,0.31 0.24,0.76 -0.06,1.03 -0.3,0.26 -0.76,0.23 -1.03,-0.07 -0.23,-0.27 -0.47,-0.54 -0.71,-0.8 -0.25,-0.27 -0.48,-0.5 -0.69,-0.71 -1.04,1.06 -2.63,2.82 -3.74,4.59 -0.73,1.16 -1.24,2.31 -1.24,3.23 0,1.03 0.27,2.04 0.78,2.91 0.49,0.84 1.19,1.54 2.07,2 0.33,0.17 0.68,0.3 1.04,0.39 0.35,0.09 0.72,0.13 1.09,0.13 0.11,0 0.19,0 0.24,0 0.08,-0.01 0.16,-0.01 0.24,-0.02z"/>
  </g>
 </g>
</svg>
