<?xml version="1.0" encoding="UTF-8"?>
<!DOCTYPE svg PUBLIC "-//W3C//DTD SVG 1.1//EN" "http://www.w3.org/Graphics/SVG/1.1/DTD/svg11.dtd">
<!-- Creator: CorelDRAW 2019 (64-Bit) -->
<svg xmlns="http://www.w3.org/2000/svg" xml:space="preserve" width="300px" height="300px" version="1.1" style="shape-rendering:geometricPrecision; text-rendering:geometricPrecision; image-rendering:optimizeQuality; fill-rule:evenodd; clip-rule:evenodd"
viewBox="0 0 40.37 40.37"
 xmlns:xlink="http://www.w3.org/1999/xlink">
 <defs>
  <style type="text/css">
   <![CDATA[
    .fil0 {fill:none}
    .fil1 {fill:#1F124E;fill-rule:nonzero}
    .fil2 {fill:#2E7AC5;fill-rule:nonzero}
   ]]>
  </style>
 </defs>
 <g id="Слой_x0020_1">
  <metadata id="CorelCorpID_0Corel-Layer"/>
  <rect class="fil0" width="40.37" height="40.37"/>
  <g id="_2460989460080">
   <path class="fil1" d="M15.48 8.47c-0.01,-0.4 0.3,-0.74 0.7,-0.75 0.4,-0.01 0.74,0.31 0.75,0.71l0.01 0.06c0.02,0.08 0.04,0.15 0.05,0.19 0.23,0.62 0.65,1.11 1.19,1.48 0.52,0.36 1.14,0.6 1.78,0.73 0.28,-0.41 0.56,-0.82 0.9,-1.2 0.65,-0.73 1.37,-1.23 2.17,-1.56 0.79,-0.31 1.64,-0.45 2.58,-0.46 1.19,-0.02 2.4,0.22 3.53,0.68 1.15,0.46 2.22,1.14 3.08,1.97 1.04,1 1.83,2.21 2.39,3.52 0.6,1.38 0.94,2.89 1.03,4.4 0.1,1.57 -0.07,3.14 -0.49,4.65 -0.42,1.49 -1.08,2.9 -1.99,4.16 -0.86,1.2 -1.95,2.22 -3.18,3.05 -1.3,0.89 -2.75,1.55 -4.23,1.99 -1.66,0.48 -3.44,0.7 -5.18,0.58 -1.63,-0.11 -3.24,-0.51 -4.7,-1.27 -0.24,-0.13 -0.49,-0.27 -0.74,-0.43 -0.25,-0.16 -0.49,-0.32 -0.71,-0.5l-0.04 -0.03 0 -0.01c-0.02,-0.01 -0.04,-0.03 -0.05,-0.05 -0.59,0.15 -1.24,0.16 -1.86,0.06 -0.72,-0.11 -1.42,-0.37 -1.99,-0.75l-0.01 0c-0.1,-0.06 -0.22,-0.14 -0.32,-0.18 -0.06,-0.03 -0.11,-0.05 -0.14,-0.05l-0.03 0c-0.3,0.05 -0.57,0.36 -0.77,0.76 -0.24,0.46 -0.36,0.99 -0.33,1.39l0.01 0.08c0.06,0.4 -0.21,0.77 -0.61,0.83 -0.39,0.06 -0.76,-0.2 -0.83,-0.6 -0.01,-0.08 -0.02,-0.14 -0.02,-0.19l0 0c-0.05,-0.65 0.13,-1.49 0.49,-2.18 0.4,-0.77 1.02,-1.39 1.83,-1.52l0 0c0.07,-0.01 0.11,-0.01 0.14,-0.02 0.3,-0.02 0.59,0.06 0.85,0.17 0.2,0.09 0.37,0.19 0.5,0.28l0.04 0.02c0.4,0.27 0.9,0.45 1.41,0.53 0.49,0.08 0.99,0.06 1.43,-0.07 0.51,-0.16 0.93,0.18 1.17,0.37l0.03 0.02c0.21,0.16 0.4,0.3 0.59,0.42 0.18,0.12 0.39,0.24 0.63,0.36 1.28,0.66 2.69,1.02 4.12,1.12 1.58,0.1 3.18,-0.1 4.68,-0.54 1.35,-0.39 2.66,-0.99 3.83,-1.78 1.08,-0.74 2.05,-1.64 2.81,-2.71 0.81,-1.12 1.4,-2.38 1.77,-3.7 0.38,-1.35 0.53,-2.77 0.44,-4.18 -0.08,-1.33 -0.38,-2.67 -0.91,-3.91 -0.49,-1.14 -1.18,-2.19 -2.07,-3.05 -0.72,-0.7 -1.63,-1.27 -2.61,-1.67 -0.96,-0.38 -1.98,-0.59 -2.97,-0.58 -0.76,0.02 -1.45,0.12 -2.06,0.37 -0.59,0.24 -1.13,0.61 -1.62,1.17 -0.33,0.38 -0.62,0.8 -0.91,1.22l-0.13 0.2c-0.15,0.22 -0.41,0.36 -0.69,0.33 -1.01,-0.12 -2.03,-0.46 -2.86,-1.04 -0.77,-0.54 -1.4,-1.27 -1.73,-2.19 -0.03,-0.08 -0.07,-0.22 -0.1,-0.36 -0.03,-0.11 -0.05,-0.23 -0.05,-0.34zm-0.98 21.89l0.03 -0.03 -0.01 0 -0.03 0.04 0.01 -0.01zm0.03 -0.03l-0.03 0.03c0.09,-0.04 0.17,-0.08 0.04,-0.04l-0.01 0.01z"/>
   <path class="fil1" d="M11.9 10.29c-0.17,-0.36 -0.02,-0.79 0.35,-0.96 0.36,-0.17 0.79,-0.02 0.96,0.34 0.79,1.68 1.67,2.81 2.67,3.6 0.99,0.78 2.12,1.26 3.43,1.62 0.39,0.08 0.68,0.26 0.92,0.51 0.21,0.23 0.35,0.5 0.46,0.79 0.03,0.09 0.08,0.21 0.12,0.32 0.05,0.11 0.08,0.2 0.1,0.25 0.12,0.24 0.26,0.48 0.43,0.71 0.16,0.23 0.35,0.46 0.55,0.68l0.28 0.32c0.21,0.24 0.24,0.59 0.08,0.85l-0.15 0.32c-0.01,0.02 -0.02,0.06 -0.04,0.1l-0.01 0.04c0,0.02 -0.01,0.05 -0.01,0.08 -0.03,0.27 0.01,0.63 0.06,0.98 0.03,0.26 0.06,0.51 0.07,0.8l0.01 0.34c0,0.25 -0.12,0.47 -0.31,0.6l0 0.01 -0.27 0.19c-0.33,0.24 -0.62,0.5 -0.89,0.78 -0.27,0.29 -0.53,0.61 -0.77,0.94l-0.2 0.27c-0.15,0.21 -0.4,0.31 -0.65,0.29l-0.27 0c-0.58,-0.01 -1.16,0.06 -1.72,0.2 -0.55,0.13 -1.08,0.33 -1.58,0.6 -0.13,0.08 -0.26,0.15 -0.4,0.21 -0.16,0.05 -0.32,0.09 -0.5,0.1 -0.46,0.05 -0.73,-0.05 -1.03,-0.15l-0.12 -0.04c-0.17,-0.05 -0.34,-0.11 -0.55,-0.16 -0.18,-0.05 -0.35,-0.09 -0.53,-0.12 -0.6,-0.11 -1.25,-0.13 -1.87,-0.07 -0.62,0.06 -1.21,0.2 -1.73,0.41 -0.5,0.21 -0.92,0.49 -1.26,0.84 -0.38,0.38 -0.68,0.84 -0.9,1.35l0 0 0 0c-0.25,0.58 -0.37,1.12 -0.43,1.68 -0.06,0.59 -0.05,1.21 -0.04,1.89 0,0.4 -0.32,0.73 -0.71,0.74 -0.4,0 -0.73,-0.32 -0.74,-0.72 -0.01,-0.73 -0.02,-1.39 0.05,-2.06 0.07,-0.7 0.22,-1.39 0.54,-2.11l0 0c0.3,-0.67 0.69,-1.28 1.2,-1.79 0.48,-0.48 1.05,-0.88 1.74,-1.16 0.65,-0.27 1.39,-0.44 2.14,-0.51 0.76,-0.07 1.53,-0.05 2.26,0.08 0.22,0.04 0.44,0.09 0.66,0.14 0.19,0.06 0.4,0.12 0.62,0.19l0.13 0.05c0.16,0.05 0.3,0.1 0.44,0.08 0.04,0 0.08,-0.01 0.13,-0.03 0.03,-0.01 0.06,-0.03 0.09,-0.04 0.03,-0.03 0.06,-0.05 0.09,-0.06 0.62,-0.33 1.28,-0.59 1.96,-0.75 0.66,-0.16 1.34,-0.24 2.03,-0.24 0.27,-0.36 0.55,-0.72 0.87,-1.05 0.33,-0.34 0.68,-0.66 1.06,-0.93 -0.01,-0.17 -0.04,-0.39 -0.07,-0.61 -0.05,-0.44 -0.11,-0.88 -0.05,-1.33 0.01,-0.08 0.02,-0.17 0.05,-0.26 0,-0.02 0.01,-0.05 0.01,-0.07 0.03,-0.09 0.06,-0.19 0.11,-0.29 -0.21,-0.23 -0.42,-0.49 -0.61,-0.76 -0.21,-0.3 -0.4,-0.61 -0.56,-0.94 -0.05,-0.12 -0.1,-0.22 -0.13,-0.31 -0.05,-0.12 -0.1,-0.26 -0.15,-0.37 -0.04,-0.13 -0.09,-0.23 -0.16,-0.3 -0.03,-0.04 -0.08,-0.07 -0.15,-0.08l0 0 -0.04 -0.02c-1.5,-0.41 -2.82,-0.95 -3.99,-1.88 -1.17,-0.94 -2.19,-2.23 -3.08,-4.12z"/>
   <path class="fil2" d="M29.76 24.35c-0.91,-0.1 -1.93,-0.18 -2.84,-0.17 -0.83,0.02 -1.55,0.1 -1.94,0.32 -0.37,0.21 -0.68,0.4 -0.95,0.63 -0.27,0.22 -0.51,0.47 -0.76,0.79 -0.28,0.36 -0.05,0.06 -0.16,0.2 -0.38,0.49 -0.73,0.94 -1.2,1.41l-0.02 0.02c-0.01,0.01 -0.03,0.02 -0.04,0.03l-0.02 0.02c-0.17,0.14 -0.35,0.27 -0.55,0.37 -0.2,0.1 -0.41,0.18 -0.63,0.24 -0.55,0.14 -1,0.13 -1.46,0.09 2.06,0.59 4.36,0.38 6.37,-0.46 1.73,-0.72 3.24,-1.92 4.2,-3.49zm-2.86 -1.62c1.37,-0.02 2.93,0.15 4.06,0.31 0.07,0.01 0.15,0.03 0.22,0.06 0.36,0.16 0.53,0.59 0.37,0.96 -1.04,2.36 -3.07,4.13 -5.43,5.12 -2.43,1.02 -5.23,1.22 -7.7,0.41 -0.42,-0.14 -0.83,-0.31 -1.22,-0.5 -0.39,-0.2 -0.77,-0.42 -1.12,-0.67 -0.12,-0.08 -0.22,-0.2 -0.27,-0.35 -0.14,-0.38 0.06,-0.8 0.44,-0.93 0.3,-0.1 0.61,-0.2 0.93,-0.27 0.34,-0.07 0.68,-0.11 1.02,-0.08l0.02 0c0.3,0 0.57,0.02 0.84,0.05 0.41,0.04 0.81,0.08 1.22,-0.03 0.12,-0.03 0.23,-0.08 0.33,-0.13 0.1,-0.05 0.2,-0.12 0.29,-0.19l0 0c0.4,-0.4 0.72,-0.81 1.06,-1.25 0.22,-0.28 -0.01,0.01 0.16,-0.21 0.32,-0.41 0.64,-0.74 0.99,-1.03 0.34,-0.28 0.72,-0.52 1.16,-0.77 0.62,-0.34 1.57,-0.48 2.63,-0.5z"/>
  </g>
 </g>
</svg>
