<?xml version="1.0" encoding="UTF-8"?>
<!DOCTYPE svg PUBLIC "-//W3C//DTD SVG 1.1//EN" "http://www.w3.org/Graphics/SVG/1.1/DTD/svg11.dtd">
<!-- Creator: CorelDRAW 2019 (64-Bit) -->
<svg xmlns="http://www.w3.org/2000/svg" xml:space="preserve" width="300px" height="300px" version="1.1" style="shape-rendering:geometricPrecision; text-rendering:geometricPrecision; image-rendering:optimizeQuality; fill-rule:evenodd; clip-rule:evenodd"
viewBox="0 0 95.45 95.45"
 xmlns:xlink="http://www.w3.org/1999/xlink">
 <defs>
  <style type="text/css">
   <![CDATA[
    .fil0 {fill:none}
    .fil2 {fill:#1F124E;fill-rule:nonzero}
    .fil1 {fill:#2E7AC5;fill-rule:nonzero}
   ]]>
  </style>
 </defs>
 <g id="Слой_x0020_1">
  <metadata id="CorelCorpID_0Corel-Layer"/>
  <rect class="fil0" width="95.45" height="95.45"/>
  <path class="fil1" d="M47.73 26.89c-0.65,0 -1.17,-0.52 -1.17,-1.17 0,-0.65 0.52,-1.17 1.17,-1.17 1.87,0 3.48,-0.05 5.01,-0.14 1.54,-0.09 3.02,-0.22 4.6,-0.38l2.14 -0.32c0.64,-0.1 1.23,0.34 1.33,0.98 0.04,0.3 -0.03,0.6 -0.19,0.83 -1.81,2.92 -1.84,3.53 -1.98,6.86l-0.01 0.27c0.07,1.7 -0.03,3.18 -0.37,4.6 -0.35,1.46 -0.95,2.82 -1.9,4.26l-0.04 0.05c-0.46,0.64 -0.83,1.11 -1.16,1.53 -1.46,1.88 -2.2,2.83 -2.36,5.96 0.01,1.28 0.03,2.57 0.07,3.88 0.04,1.28 0.1,2.58 0.19,3.92 0.04,0.64 -0.45,1.2 -1.09,1.24 -0.64,0.04 -1.2,-0.45 -1.24,-1.09 -0.08,-1.29 -0.14,-2.63 -0.18,-4 -0.04,-1.3 -0.07,-2.61 -0.08,-3.93 0,-0.04 0,-0.08 0,-0.12 0.2,-3.89 1.09,-5.03 2.85,-7.29 0.35,-0.46 0.75,-0.97 1.11,-1.46 0.79,-1.2 1.29,-2.32 1.57,-3.49 0.29,-1.2 0.36,-2.49 0.3,-4.01l0 -0.09 0.01 -0.32c0.13,-2.94 0.17,-4.05 1.13,-5.92 -1.58,0.15 -3.05,0.28 -4.58,0.37 -1.62,0.1 -3.28,0.15 -5.13,0.15z"/>
  <path class="fil2" d="M66.38 26.58c0.29,2.58 1.19,4.79 2.33,6.53 1.45,2.19 3.21,3.59 4.56,4 1.29,0.4 2.43,0.48 3.42,0.32 1.15,-0.19 2.12,-0.74 2.89,-1.53l0 0c0.82,-0.84 1.44,-1.96 1.82,-3.22 0.52,-1.68 0.64,-3.61 0.33,-5.51 -0.17,-0.76 -0.5,-1.47 -0.95,-2.11 -0.46,-0.66 -1.06,-1.23 -1.75,-1.67 -0.51,-0.33 -1.13,-0.58 -1.8,-0.76 -0.8,-0.22 -1.64,-0.33 -2.39,-0.36 -1.17,-0.03 -2.43,0.11 -3.68,0.24l-0.11 0.01c-0.33,0.04 -0.83,0.17 -1.35,0.3 -0.57,0.14 -1.16,0.29 -1.78,0.39l-0.78 1.48 -0.05 0.09c-0.16,0.29 -0.3,0.61 -0.43,0.96 -0.1,0.27 -0.2,0.55 -0.28,0.84zm-0.53 8.41c-0.11,-0.17 -0.22,-0.34 -0.32,-0.51 -0.07,0.79 -0.16,1.59 -0.29,2.38 -0.25,1.53 -0.65,3.04 -1.33,4.52 -0.14,0.34 -0.28,0.65 -0.45,0.95 -0.17,0.31 -0.36,0.62 -0.57,0.93 -0.56,0.79 -1.14,1.42 -1.74,2.06l-0.08 0.1c-0.59,0.62 -1.07,1.25 -1.44,1.92 -0.36,0.65 -0.63,1.36 -0.79,2.15 -0.3,1.53 -0.25,3.27 -0.2,4.93l0.01 0.27c0.03,1.03 0.06,2.06 0.03,3.11 -0.04,1.11 -0.13,2.21 -0.34,3.29 -0.07,0.36 -0.17,0.72 -0.3,1.08 -0.13,0.33 -0.28,0.66 -0.45,0.99 -0.34,0.66 -0.74,1.2 -1.13,1.74l-0.23 0.32c-0.02,0.7 -0.03,1.38 -0.04,2.04 -0.01,0.85 -0.01,1.7 0,2.55 0.02,0.8 0.04,1.56 0.11,2.3 0.06,0.68 0.16,1.38 0.35,2.15 0.15,0.64 0.34,1.39 0.55,2.02 0.21,0.6 0.46,1.16 0.74,1.54 0.57,0.75 0.43,1.82 -0.33,2.39 -0.75,0.58 -1.82,0.43 -2.39,-0.32 -0.54,-0.71 -0.94,-1.59 -1.25,-2.49 -0.31,-0.88 -0.51,-1.69 -0.67,-2.35 -0.21,-0.88 -0.33,-1.75 -0.41,-2.65 -0.08,-0.84 -0.11,-1.68 -0.12,-2.55 -0.01,-0.87 -0.01,-1.75 0,-2.62 0.01,-0.88 0.03,-1.73 0.05,-2.57 0,-0.32 0.09,-0.65 0.29,-0.95 0.16,-0.24 0.37,-0.53 0.59,-0.82 0.31,-0.44 0.63,-0.87 0.86,-1.31 0.09,-0.18 0.18,-0.37 0.25,-0.58 0.07,-0.17 0.12,-0.36 0.16,-0.57 0.18,-0.91 0.26,-1.82 0.28,-2.72 0.03,-0.96 0,-1.94 -0.03,-2.93l0 -0.26c-0.06,-1.85 -0.12,-3.78 0.27,-5.7 0.23,-1.16 0.62,-2.19 1.15,-3.14 0.51,-0.94 1.16,-1.78 1.92,-2.6l0.08 -0.1c0.53,-0.56 1.05,-1.12 1.44,-1.68 0.13,-0.19 0.26,-0.4 0.38,-0.61 0.1,-0.19 0.19,-0.37 0.26,-0.56 0.02,-0.05 0.04,-0.1 0.07,-0.16 0.53,-1.17 0.86,-2.4 1.06,-3.66 0.22,-1.32 0.31,-2.69 0.4,-4.08 0.06,-1.04 0.15,-2.26 0.29,-3.42 0.11,-0.93 0.24,-1.85 0.41,-2.66 0.01,-0.05 0.02,-0.1 0.03,-0.15 0.13,-0.5 0.28,-0.99 0.47,-1.48 0.17,-0.45 0.38,-0.91 0.63,-1.37l0.04 -0.09c-0.23,-0.05 -0.47,-0.1 -0.7,-0.16 -1.07,-0.25 -2.11,-0.63 -3.2,-1.12 -1.13,-0.38 -2.27,-0.84 -3.4,-1.31 -2.68,-1.09 -5.27,-2.15 -9.09,-2.15 -0.95,0 -1.72,-0.77 -1.72,-1.72 0,-0.95 0.77,-1.72 1.72,-1.72 4.46,0 7.37,1.19 10.38,2.43 1.01,0.41 2.03,0.82 3.25,1.23 0.09,0.03 0.17,0.06 0.24,0.1 0.94,0.42 1.79,0.73 2.63,0.93 0.84,0.21 1.68,0.31 2.59,0.3l0.01 0c0.55,-0.01 1.31,-0.2 2.02,-0.38 0.62,-0.16 1.21,-0.31 1.84,-0.38l0.11 -0.01c1.34,-0.15 2.7,-0.29 4.13,-0.25 1.01,0.03 2.13,0.19 3.2,0.48 0.99,0.27 1.95,0.66 2.75,1.17 1.05,0.68 1.97,1.56 2.7,2.58 0.72,1.01 1.24,2.15 1.51,3.35l-0.01 0 0.02 0.09c0.41,2.44 0.26,4.95 -0.42,7.16 -0.55,1.79 -1.43,3.39 -2.64,4.62l-0.01 0 0 0c-1.26,1.29 -2.86,2.19 -4.78,2.51 -1.49,0.25 -3.16,0.14 -4.99,-0.42 -2,-0.61 -4.51,-2.51 -6.41,-5.4z"/>
  <path class="fil1" d="M47.73 24.55c0.64,0 1.17,0.52 1.17,1.17 0,0.65 -0.53,1.17 -1.17,1.17 -1.86,0 -3.52,-0.05 -5.14,-0.15 -1.52,-0.09 -3,-0.22 -4.57,-0.37 0.95,1.87 1,2.98 1.12,5.92l0.02 0.32 0 0.09c-0.07,1.52 0.01,2.81 0.3,4.01 0.28,1.17 0.77,2.29 1.56,3.49 0.37,0.49 0.76,1 1.12,1.46 1.76,2.26 2.65,3.4 2.84,7.29 0,0.04 0,0.08 0,0.12 -0.01,1.32 -0.03,2.63 -0.07,3.93 -0.04,1.37 -0.1,2.71 -0.19,4 -0.04,0.64 -0.59,1.13 -1.23,1.09 -0.65,-0.04 -1.14,-0.6 -1.1,-1.24 0.09,-1.34 0.15,-2.64 0.19,-3.92 0.04,-1.31 0.06,-2.6 0.07,-3.88 -0.16,-3.13 -0.89,-4.08 -2.36,-5.96 -0.33,-0.42 -0.69,-0.89 -1.16,-1.53l-0.04 -0.05c-0.94,-1.44 -1.55,-2.8 -1.9,-4.26 -0.34,-1.42 -0.43,-2.9 -0.36,-4.6l-0.01 -0.27c-0.15,-3.33 -0.17,-3.94 -1.98,-6.86 -0.16,-0.23 -0.24,-0.53 -0.19,-0.83 0.09,-0.64 0.69,-1.08 1.33,-0.98l2.14 0.32c1.57,0.16 3.05,0.29 4.6,0.38 1.52,0.09 3.13,0.14 5.01,0.14z"/>
  <path class="fil2" d="M29.93 34.48c-0.11,0.17 -0.22,0.34 -0.33,0.51 -1.9,2.89 -4.41,4.79 -6.41,5.4 -1.83,0.56 -3.49,0.67 -4.98,0.42 -1.92,-0.32 -3.52,-1.22 -4.78,-2.51l-0.01 0 0 0c-1.21,-1.23 -2.1,-2.83 -2.64,-4.62 -0.68,-2.21 -0.83,-4.72 -0.43,-7.16l0.02 -0.09 0 0c0.26,-1.2 0.79,-2.34 1.51,-3.35 0.72,-1.02 1.64,-1.9 2.69,-2.58 0.8,-0.51 1.76,-0.9 2.75,-1.17 1.07,-0.29 2.19,-0.45 3.2,-0.48 1.43,-0.04 2.79,0.1 4.14,0.25l0.1 0.01c0.63,0.07 1.23,0.22 1.84,0.38 0.72,0.18 1.48,0.37 2.03,0.38l0 0c0.91,0.01 1.76,-0.09 2.6,-0.3 0.83,-0.2 1.69,-0.51 2.62,-0.93 0.08,-0.04 0.16,-0.07 0.24,-0.1 1.23,-0.41 2.25,-0.82 3.25,-1.23 3.02,-1.24 5.93,-2.43 10.39,-2.43 0.95,0 1.72,0.77 1.72,1.72 0,0.95 -0.77,1.72 -1.72,1.72 -3.83,0 -6.42,1.06 -9.1,2.15 -1.13,0.47 -2.27,0.93 -3.4,1.31 -1.09,0.49 -2.13,0.87 -3.2,1.12 -0.23,0.06 -0.46,0.11 -0.7,0.16l0.05 0.09c0.25,0.46 0.45,0.92 0.62,1.37 0.19,0.49 0.35,0.98 0.47,1.48 0.02,0.05 0.03,0.1 0.03,0.15 0.17,0.81 0.31,1.73 0.42,2.66 0.13,1.16 0.23,2.38 0.29,3.42 0.08,1.39 0.17,2.76 0.39,4.08 0.21,1.26 0.53,2.49 1.07,3.66 0.02,0.06 0.04,0.11 0.06,0.16 0.08,0.19 0.17,0.37 0.27,0.56 0.11,0.21 0.24,0.42 0.38,0.61 0.39,0.56 0.91,1.12 1.43,1.68l0.09 0.1c0.76,0.82 1.4,1.66 1.92,2.6 0.53,0.95 0.91,1.98 1.15,3.14 0.38,1.92 0.32,3.85 0.27,5.7l-0.01 0.26c-0.03,0.99 -0.06,1.97 -0.03,2.93 0.03,0.9 0.11,1.81 0.28,2.72 0.04,0.21 0.1,0.4 0.16,0.57 0.08,0.21 0.16,0.4 0.26,0.58 0.23,0.44 0.54,0.87 0.86,1.31 0.21,0.29 0.42,0.58 0.59,0.82 0.19,0.3 0.29,0.63 0.29,0.95 0.02,0.84 0.04,1.69 0.05,2.57 0.01,0.87 0.01,1.75 -0.01,2.62 -0.01,0.87 -0.04,1.71 -0.11,2.55 -0.08,0.9 -0.21,1.77 -0.42,2.65 -0.16,0.66 -0.36,1.47 -0.66,2.35 -0.32,0.9 -0.72,1.78 -1.25,2.49 -0.57,0.75 -1.65,0.9 -2.4,0.32 -0.75,-0.57 -0.9,-1.64 -0.33,-2.39 0.29,-0.38 0.53,-0.94 0.74,-1.54 0.22,-0.63 0.41,-1.38 0.56,-2.02 0.18,-0.77 0.29,-1.47 0.35,-2.15 0.06,-0.74 0.09,-1.5 0.1,-2.3 0.01,-0.85 0.01,-1.7 0,-2.55 0,-0.66 -0.02,-1.34 -0.04,-2.04l-0.23 -0.32c-0.39,-0.54 -0.78,-1.08 -1.13,-1.74 -0.17,-0.33 -0.32,-0.66 -0.44,-0.99 -0.13,-0.36 -0.24,-0.72 -0.31,-1.08 -0.21,-1.08 -0.3,-2.18 -0.33,-3.29 -0.03,-1.05 0,-2.08 0.03,-3.11l0 -0.27c0.05,-1.66 0.11,-3.4 -0.2,-4.93 -0.16,-0.79 -0.42,-1.5 -0.79,-2.15 -0.37,-0.67 -0.85,-1.3 -1.43,-1.92l-0.09 -0.1c-0.59,-0.64 -1.18,-1.27 -1.73,-2.06 -0.21,-0.31 -0.41,-0.62 -0.58,-0.93 -0.16,-0.3 -0.31,-0.61 -0.44,-0.95 -0.68,-1.48 -1.08,-2.99 -1.33,-4.52 -0.13,-0.79 -0.22,-1.59 -0.29,-2.38zm-3.19 -1.37c1.15,-1.74 2.05,-3.95 2.33,-6.53 -0.08,-0.29 -0.17,-0.57 -0.27,-0.84 -0.14,-0.35 -0.28,-0.67 -0.43,-0.96l-0.05 -0.09 -0.79 -1.48c-0.61,-0.1 -1.2,-0.25 -1.77,-0.39 -0.52,-0.13 -1.02,-0.26 -1.36,-0.3l-0.11 -0.01c-1.24,-0.13 -2.5,-0.27 -3.67,-0.24 -0.76,0.03 -1.6,0.14 -2.4,0.36 -0.66,0.18 -1.29,0.43 -1.8,0.76 -0.68,0.44 -1.28,1.01 -1.75,1.67 -0.45,0.64 -0.78,1.35 -0.95,2.11 -0.3,1.9 -0.18,3.83 0.33,5.51 0.39,1.26 1,2.38 1.83,3.22l-0.01 0c0.77,0.79 1.74,1.34 2.9,1.53 0.99,0.16 2.13,0.08 3.42,-0.32 1.34,-0.41 3.11,-1.81 4.55,-4z"/>
 </g>
</svg>
