<?xml version="1.0" encoding="UTF-8"?>
<!DOCTYPE svg PUBLIC "-//W3C//DTD SVG 1.1//EN" "http://www.w3.org/Graphics/SVG/1.1/DTD/svg11.dtd">
<!-- Creator: CorelDRAW 2019 (64-Bit) -->
<svg xmlns="http://www.w3.org/2000/svg" xml:space="preserve" width="300px" height="300px" version="1.1" style="shape-rendering:geometricPrecision; text-rendering:geometricPrecision; image-rendering:optimizeQuality; fill-rule:evenodd; clip-rule:evenodd"
viewBox="0 0 55.2 55.2"
 xmlns:xlink="http://www.w3.org/1999/xlink">
 <defs>
  <style type="text/css">
   <![CDATA[
    .fil0 {fill:none}
    .fil1 {fill:#1F124E;fill-rule:nonzero}
    .fil2 {fill:#2E7AC5;fill-rule:nonzero}
   ]]>
  </style>
 </defs>
 <g id="Слой_x0020_1">
  <metadata id="CorelCorpID_0Corel-Layer"/>
  <rect class="fil0" width="55.2" height="55.2"/>
  <path class="fil1" d="M22.31 31.36l0.05 -0.08c0.25,-0.47 0.43,-1 0.57,-1.55 0.14,-0.58 0.23,-1.17 0.28,-1.75l0 0 0 -0.05c-0.97,-0.77 -1.78,-1.77 -2.44,-2.98 -0.33,-0.61 -0.56,-1.38 -0.72,-2.18 -0.21,-1.01 -0.3,-2.08 -0.34,-2.9l0 -0.05 0.02 -0.86c0.01,-0.54 0.46,-0.98 1,-0.97 0.55,0.01 0.99,0.46 0.98,1l-0.02 0.82c0.04,0.74 0.12,1.69 0.3,2.57 0.12,0.62 0.3,1.2 0.52,1.62 0.59,1.08 1.3,1.94 2.16,2.55l0.07 0.05c0.04,0.03 0.08,0.05 0.12,0.08 0.78,0.52 1.69,0.85 2.74,0.97 1.06,-0.12 1.97,-0.45 2.74,-0.97 0.04,-0.03 0.08,-0.05 0.12,-0.08l0.07 -0.05c0.86,-0.61 1.58,-1.47 2.16,-2.55 0.23,-0.42 0.4,-1 0.53,-1.62 0.17,-0.88 0.26,-1.83 0.29,-2.57l-0.01 -0.82c-0.01,-0.54 0.42,-0.99 0.97,-1 0.55,-0.01 1,0.43 1.01,0.97l0.01 0.82c0,0.03 0,0.06 0,0.09 -0.03,0.82 -0.13,1.89 -0.33,2.9 -0.17,0.8 -0.4,1.57 -0.73,2.18 -0.66,1.21 -1.46,2.21 -2.44,2.98l0.01 0.05 -0.01 0c0.06,0.58 0.14,1.17 0.29,1.75 0.13,0.55 0.32,1.08 0.56,1.55l0.05 0.08c0.13,-0.04 0.26,-0.06 0.39,-0.06l0.4 0.03c2.12,0.12 4.02,1.07 5.38,2.51 1.37,1.45 2.2,3.4 2.2,5.52l0 5.71c0,0.55 -0.45,0.99 -0.99,0.99l-25.33 0c-0.55,0 -1,-0.44 -1,-0.99l0 -5.71c0,-2.12 0.84,-4.07 2.2,-5.52 1.37,-1.44 3.26,-2.39 5.39,-2.51l0.39 -0.03c0.14,0 0.27,0.02 0.39,0.06zm1.77 0.91l-0.18 0.3 3.18 2.56c0.15,0.12 0.34,0.18 0.52,0.18 0.19,0 0.37,-0.06 0.52,-0.18l3.18 -2.56 -0.17 -0.3c-0.01,-0.02 -0.03,-0.04 -0.04,-0.07 -0.33,-0.63 -0.57,-1.3 -0.74,-1.99 -0.09,-0.39 -0.17,-0.78 -0.23,-1.18 -0.73,0.31 -1.52,0.51 -2.39,0.6 -0.08,0.01 -0.15,0.01 -0.23,0.01 -0.88,-0.1 -1.68,-0.3 -2.42,-0.61 -0.06,0.4 -0.13,0.79 -0.23,1.18 -0.17,0.69 -0.41,1.36 -0.74,1.99 -0.01,0.03 -0.02,0.05 -0.03,0.07zm-8.15 7.09l0 4.71 23.34 0 0 -4.71c0,-1.6 -0.63,-3.07 -1.65,-4.16 -1.03,-1.09 -2.46,-1.8 -4.05,-1.89l-0.02 0 -4.18 3.37c-0.52,0.41 -1.14,0.62 -1.77,0.62 -0.62,0 -1.25,-0.21 -1.76,-0.62l-4.19 -3.37 -0.01 0c-1.6,0.09 -3.03,0.8 -4.05,1.89 -1.03,1.09 -1.66,2.56 -1.66,4.16z"/>
  <path class="fil2" d="M22.5 19.33l-1.41 0.57c-0.51,0.2 -1.09,-0.04 -1.29,-0.55 -0.05,-0.12 -0.08,-0.25 -0.08,-0.37l0 0 0 -5.76c0,-0.17 0.05,-0.33 0.13,-0.48l0.09 -0.18c0.22,-0.44 0.53,-0.84 0.88,-1.19 0.38,-0.38 0.82,-0.7 1.25,-0.96 1.45,-0.84 3.5,-1.27 5.53,-1.27 2.03,0 4.09,0.43 5.53,1.27 0.44,0.26 0.87,0.58 1.25,0.96 0.36,0.35 0.67,0.75 0.89,1.19l0.11 0.22c0.07,0.14 0.1,0.29 0.1,0.44l0 5.76c0,0.55 -0.44,0.99 -0.99,0.99 -0.15,0 -0.3,-0.03 -0.42,-0.09l-1.37 -0.55c-1.35,-0.55 -3.21,-0.83 -5.1,-0.83 -1.88,0 -3.75,0.28 -5.1,0.83zm-0.79 -1.83l0.05 -0.01c1.59,-0.65 3.72,-0.97 5.84,-0.97 2.12,0 4.26,0.32 5.85,0.97l0.04 0.01 0 -4.04 0 -0.01c-0.12,-0.25 -0.3,-0.47 -0.51,-0.68 -0.25,-0.26 -0.55,-0.48 -0.85,-0.65 -1.13,-0.66 -2.81,-0.99 -4.53,-0.99 -1.71,0 -3.4,0.33 -4.52,0.99 -0.3,0.17 -0.6,0.39 -0.86,0.65 -0.21,0.21 -0.38,0.44 -0.51,0.68l0 0.01 0 4.04z"/>
 </g>
</svg>
