<?xml version="1.0" encoding="UTF-8"?>
<!DOCTYPE svg PUBLIC "-//W3C//DTD SVG 1.1//EN" "http://www.w3.org/Graphics/SVG/1.1/DTD/svg11.dtd">
<!-- Creator: CorelDRAW 2019 (64-Bit) -->
<svg xmlns="http://www.w3.org/2000/svg" xml:space="preserve" width="300px" height="300px" version="1.1" style="shape-rendering:geometricPrecision; text-rendering:geometricPrecision; image-rendering:optimizeQuality; fill-rule:evenodd; clip-rule:evenodd"
viewBox="0 0 261.84 261.84"
 xmlns:xlink="http://www.w3.org/1999/xlink">
 <defs>
  <style type="text/css">
   <![CDATA[
    .fil0 {fill:none}
    .fil1 {fill:#1F124E;fill-rule:nonzero}
    .fil2 {fill:#2E7AC5;fill-rule:nonzero}
   ]]>
  </style>
 </defs>
 <g id="Слой_x0020_1">
  <metadata id="CorelCorpID_0Corel-Layer"/>
  <rect class="fil0" width="261.84" height="261.84"/>
  <path class="fil1" d="M134.12 86.68c9.84,0.7 18.79,4.61 25.81,10.69l6.87 -6.87 -1.84 -1.84 0 -0.01c-1.71,-1.71 -2.56,-3.95 -2.56,-6.19 0,-1.79 0.54,-3.58 1.62,-5.09l0 -0.16 0.68 -0.67 0.26 -0.28 0.01 0 0.01 0c1.7,-1.71 3.95,-2.57 6.19,-2.57 2.24,0 4.49,0.86 6.2,2.57l8.21 8.21c1.71,1.71 2.56,3.96 2.56,6.2l-0.01 0c0,2.25 -0.85,4.49 -2.55,6.19l-0.01 0.01 0.01 0 -0.28 0.27 -0.67 0.67 -0.16 0c-1.52,1.08 -3.31,1.63 -5.09,1.63l0 -0.02c-2.25,0 -4.49,-0.85 -6.19,-2.55l-0.02 0 -1.84 -1.84 -6.86 6.87c6.08,7.02 9.99,15.98 10.69,25.81l9.71 0 0 -2.6c0,-2.41 0.99,-4.61 2.57,-6.2 1.59,-1.58 3.79,-2.57 6.2,-2.57 2.42,0 4.61,0.99 6.2,2.57 1.59,1.59 2.57,3.79 2.57,6.2l0 11.61c0,2.42 -0.98,4.61 -2.57,6.2 -1.59,1.59 -3.78,2.58 -6.2,2.58 -2.41,0 -4.61,-0.99 -6.2,-2.58 -1.58,-1.59 -2.57,-3.78 -2.57,-6.2l0 -2.6 -9.71 0c-0.79,10.97 -5.56,20.84 -12.88,28.16 -7.32,7.32 -17.19,12.1 -28.16,12.88l0 9.71 2.6 0c2.42,0 4.61,0.99 6.2,2.57 1.59,1.59 2.58,3.79 2.58,6.2 0,2.42 -0.99,4.61 -2.58,6.2 -1.59,1.59 -3.78,2.57 -6.2,2.57l-11.61 0c-2.41,0 -4.61,-0.98 -6.2,-2.57 -1.58,-1.59 -2.57,-3.78 -2.57,-6.2 0,-2.41 0.99,-4.61 2.57,-6.2 1.59,-1.58 3.79,-2.57 6.2,-2.57l2.6 0 0 -9.71c-9.84,-0.7 -18.79,-4.61 -25.81,-10.69l-6.87 6.87 1.84 1.83 0 0.02c1.71,1.71 2.57,3.95 2.57,6.19 0,1.78 -0.55,3.57 -1.63,5.09l0 0.16 -0.67 0.67 -0.27 0.28 0 -0.01 -0.01 0.01c-1.71,1.71 -3.95,2.56 -6.19,2.56 -2.25,0 -4.49,-0.85 -6.2,-2.56l-8.21 -8.21c-1.71,-1.71 -2.57,-3.96 -2.57,-6.2l0.02 0c0,-2.25 0.85,-4.49 2.55,-6.19l0 -0.01 0 -0.01 0.27 -0.26 0.68 -0.68 0.16 0c1.51,-1.08 3.3,-1.62 5.09,-1.62l0 0.01c2.24,0 4.49,0.85 6.19,2.55l0.01 0 1.84 1.84 6.87 -6.87c-6.08,-7.02 -9.99,-15.97 -10.69,-25.81l-9.71 0 0 2.6c0,2.42 -0.99,4.61 -2.58,6.2 -1.59,1.59 -3.78,2.58 -6.2,2.58 -2.41,0 -4.61,-0.99 -6.19,-2.58 -1.59,-1.59 -2.58,-3.78 -2.58,-6.2l0 -11.61c0,-2.41 0.99,-4.61 2.58,-6.2 1.58,-1.58 3.78,-2.57 6.19,-2.57 2.42,0 4.61,0.99 6.2,2.57 1.59,1.59 2.58,3.79 2.58,6.2l0 2.6 9.71 0c0.78,-10.97 5.55,-20.84 12.87,-28.16 7.32,-7.32 17.19,-12.09 28.16,-12.87l0 -9.71 -2.6 0c-2.41,0 -4.61,-0.99 -6.2,-2.58 -1.58,-1.59 -2.57,-3.78 -2.57,-6.2 0,-2.41 0.99,-4.61 2.57,-6.19 1.59,-1.59 3.79,-2.58 6.2,-2.58l11.61 0c2.42,0 4.61,0.99 6.2,2.58 1.59,1.58 2.58,3.78 2.58,6.19 0,2.42 -0.99,4.61 -2.58,6.2 -1.59,1.59 -3.78,2.58 -6.2,2.58l-2.6 0 0 9.71zm-68.29 38.43l0 11.61c0,0.65 0.27,1.24 0.7,1.67 0.43,0.43 1.02,0.69 1.66,0.69 0.65,0 1.24,-0.26 1.67,-0.69 0.43,-0.43 0.69,-1.02 0.69,-1.67l0 -11.61c0,-0.64 -0.26,-1.23 -0.69,-1.66 -0.43,-0.43 -1.02,-0.7 -1.67,-0.7 -0.64,0 -1.23,0.27 -1.66,0.7 -0.43,0.43 -0.7,1.02 -0.7,1.66zm14.96 47.73l8.21 8.21c0.46,0.45 1.06,0.68 1.67,0.68 0.55,0 1.1,-0.18 1.53,-0.55l0.14 -0.13c0.46,-0.46 0.68,-1.07 0.68,-1.67 0,-0.62 -0.22,-1.22 -0.67,-1.68l-0.01 0.01 -8.21 -8.21 0 -0.01c-0.46,-0.46 -1.07,-0.69 -1.67,-0.69l0 0.01c-0.61,0 -1.21,0.23 -1.67,0.69l-0.14 0.14c-0.37,0.44 -0.56,0.98 -0.56,1.53l0.01 0c0,0.6 0.23,1.21 0.69,1.67zm44.32 23.16l11.61 0c0.65,0 1.24,-0.26 1.67,-0.69 0.43,-0.43 0.69,-1.02 0.69,-1.67 0,-0.64 -0.26,-1.23 -0.69,-1.66 -0.43,-0.43 -1.02,-0.7 -1.67,-0.7l-11.61 0c-0.64,0 -1.23,0.27 -1.66,0.7 -0.43,0.43 -0.7,1.02 -0.7,1.66 0,0.65 0.27,1.24 0.7,1.67 0.43,0.43 1.02,0.69 1.66,0.69zm70.89 -59.28l0 -11.61c0,-0.64 -0.26,-1.23 -0.69,-1.66 -0.43,-0.43 -1.02,-0.7 -1.67,-0.7 -0.64,0 -1.23,0.27 -1.66,0.7 -0.43,0.43 -0.7,1.02 -0.7,1.66l0 11.61c0,0.65 0.27,1.24 0.7,1.67 0.43,0.43 1.02,0.69 1.66,0.69 0.65,0 1.24,-0.26 1.67,-0.69 0.43,-0.43 0.69,-1.02 0.69,-1.67zm-14.95 -47.72l-8.22 -8.21c-0.45,-0.46 -1.06,-0.68 -1.66,-0.68 -0.55,0 -1.1,0.18 -1.54,0.54l-0.13 0.14c-0.46,0.46 -0.69,1.06 -0.69,1.67 0,0.61 0.23,1.22 0.68,1.68l0.01 -0.01 8.21 8.21 -0.01 0.01c0.47,0.46 1.07,0.69 1.68,0.69l0 -0.01c0.6,0 1.21,-0.23 1.67,-0.69l0.14 -0.14c0.37,-0.44 0.55,-0.99 0.55,-1.53l-0.01 0c0,-0.61 -0.23,-1.21 -0.68,-1.67zm-44.33 -23.17l-11.61 0c-0.64,0 -1.23,0.27 -1.66,0.7 -0.43,0.43 -0.7,1.02 -0.7,1.66 0,0.65 0.27,1.24 0.7,1.67 0.43,0.43 1.02,0.69 1.66,0.69l11.61 0c0.65,0 1.24,-0.26 1.67,-0.69 0.43,-0.43 0.69,-1.02 0.69,-1.67 0,-0.64 -0.26,-1.23 -0.69,-1.66 -0.43,-0.43 -1.02,-0.7 -1.67,-0.7zm18.9 40.39c-6.32,-6.32 -15.06,-10.23 -24.7,-10.23 -9.65,0 -18.38,3.91 -24.7,10.23 -6.32,6.32 -10.23,15.05 -10.23,24.7 0,9.64 3.91,18.38 10.23,24.7 6.32,6.32 15.05,10.23 24.7,10.23 9.64,0 18.38,-3.91 24.7,-10.23 6.32,-6.32 10.23,-15.06 10.23,-24.7 0,-9.65 -3.91,-18.38 -10.23,-24.7z"/>
  <path class="fil2" d="M130.92 43.47c24.15,0 46.01,9.78 61.84,25.61 15.82,15.83 25.61,37.69 25.61,61.84 0,24.15 -9.79,46.01 -25.61,61.84 -15.83,15.82 -37.69,25.61 -61.84,25.61 -24.15,0 -46.01,-9.79 -61.84,-25.61 -15.83,-15.83 -25.61,-37.69 -25.61,-61.84 0,-24.15 9.78,-46.01 25.61,-61.84 15.83,-15.83 37.69,-25.61 61.84,-25.61zm-51.74 29.04l110.14 110.15c12.21,-13.77 19.62,-31.89 19.62,-51.74 0,-21.55 -8.73,-41.05 -22.85,-55.17 -14.12,-14.12 -33.63,-22.86 -55.17,-22.86 -19.85,0 -37.97,7.42 -51.74,19.62zm103.48 116.81l-110.15 -110.14c-12.2,13.77 -19.62,31.89 -19.62,51.74 0,21.54 8.74,41.05 22.86,55.17 14.12,14.12 33.62,22.85 55.17,22.85 19.85,0 37.97,-7.41 51.74,-19.62z"/>
 </g>
</svg>
