<?xml version="1.0" encoding="UTF-8"?>
<!DOCTYPE svg PUBLIC "-//W3C//DTD SVG 1.1//EN" "http://www.w3.org/Graphics/SVG/1.1/DTD/svg11.dtd">
<!-- Creator: CorelDRAW 2019 (64-Bit) -->
<svg xmlns="http://www.w3.org/2000/svg" xml:space="preserve" width="300px" height="300px" version="1.1" style="shape-rendering:geometricPrecision; text-rendering:geometricPrecision; image-rendering:optimizeQuality; fill-rule:evenodd; clip-rule:evenodd"
viewBox="0 0 55.2 55.2"
 xmlns:xlink="http://www.w3.org/1999/xlink">
 <defs>
  <style type="text/css">
   <![CDATA[
    .fil0 {fill:none}
    .fil1 {fill:#1F124E;fill-rule:nonzero}
    .fil2 {fill:#2E7AC5;fill-rule:nonzero}
   ]]>
  </style>
 </defs>
 <g id="Слой_x0020_1">
  <metadata id="CorelCorpID_0Corel-Layer"/>
  <rect class="fil0" width="55.2" height="55.2"/>
  <path class="fil1" d="M12.42 31.78c-1.13,-2.2 -1.42,-4.1 -1.13,-5.81 0.31,-1.78 1.24,-3.29 2.55,-4.65 0.38,-0.4 1,-0.41 1.4,-0.03 0.39,0.38 0.4,1.01 0.02,1.4 -1.04,1.09 -1.78,2.27 -2.01,3.62 -0.12,0.7 -0.11,1.46 0.08,2.29 0.33,-0.67 0.77,-1.32 1.31,-1.86 0.38,-0.39 1.01,-0.39 1.4,-0.01 0.39,0.39 0.39,1.02 0,1.4 -0.43,0.44 -0.78,0.99 -1.03,1.55 -0.34,0.74 -0.53,1.49 -0.59,2.02 -0.12,1.03 -0.02,1.95 0.26,2.8 0.28,0.88 0.75,1.72 1.35,2.57 0.19,0.27 0.4,0.54 0.65,0.81 0.22,0.25 0.45,0.48 0.69,0.69 0.02,0.02 0.04,0.03 0.06,0.05 0.93,0.85 1.81,1.76 2.69,2.66 1.95,2.01 3.89,4 6.33,5.37l0 0 0.03 0.02c0.22,0.14 0.45,0.21 0.67,0.23 0.23,0.02 0.48,-0.02 0.73,-0.09 0.5,-0.14 0.96,-0.37 1.4,-0.64 0.45,-0.28 0.89,-0.62 1.3,-0.99 0.33,-0.3 0.64,-0.61 0.92,-0.93 0.28,-0.31 0.56,-0.66 0.82,-1.03 0.46,-0.63 0.85,-1.27 1.2,-1.93 0.34,-0.67 0.63,-1.36 0.88,-2.09 0.31,-0.92 0.51,-1.87 0.56,-2.81 0.05,-0.92 -0.05,-1.85 -0.35,-2.74 -0.02,-0.07 -0.06,-0.18 -0.12,-0.31 -0.19,-0.47 -0.44,-1.08 -0.41,-1.56l0 -0.06c0.02,-0.17 0.06,-0.31 0.13,-0.44l0 0c0.07,-0.12 0.13,-0.22 0.21,-0.3l0 0c0.46,-0.53 0.88,-1.1 1.18,-1.71 0.27,-0.56 0.45,-1.15 0.49,-1.77 -0.01,-0.04 -0.01,-0.08 0,-0.12 0.03,-0.34 0,-0.66 -0.07,-0.96 -0.08,-0.33 -0.21,-0.65 -0.37,-0.97 -0.25,-0.49 -0.05,-1.09 0.44,-1.33 0.49,-0.24 1.09,-0.05 1.33,0.44 0.22,0.45 0.4,0.91 0.52,1.4 0.12,0.51 0.18,1.04 0.13,1.59l-0.01 0.03c-0.04,0.93 -0.3,1.78 -0.68,2.56 -0.34,0.69 -0.79,1.33 -1.27,1.92 0.05,0.13 0.14,0.34 0.21,0.52 0.07,0.17 0.13,0.32 0.17,0.44 0.39,1.15 0.52,2.31 0.45,3.47 -0.06,1.13 -0.3,2.25 -0.66,3.33 -0.28,0.84 -0.61,1.62 -1,2.38 -0.39,0.76 -0.84,1.48 -1.35,2.18 -0.29,0.4 -0.6,0.79 -0.95,1.19 -0.34,0.39 -0.7,0.75 -1.07,1.08 -0.48,0.43 -1.01,0.85 -1.59,1.21 -0.59,0.36 -1.22,0.67 -1.89,0.86 -0.47,0.13 -0.95,0.2 -1.45,0.16 -0.5,-0.05 -1,-0.2 -1.5,-0.5l0 0c-2.68,-1.51 -4.72,-3.61 -6.78,-5.71 -0.85,-0.88 -1.71,-1.75 -2.61,-2.59l-0.01 -0.01c-0.32,-0.28 -0.62,-0.57 -0.88,-0.87 -0.27,-0.29 -0.53,-0.63 -0.78,-0.99 -0.72,-1.01 -1.28,-2.02 -1.63,-3.11 -0.33,-1.03 -0.47,-2.11 -0.37,-3.32z"/>
  <path class="fil1" d="M43.07 22.22c0.33,0.17 0.47,0.58 0.3,0.91 -0.17,0.33 -0.58,0.47 -0.91,0.3 -0.01,-0.01 -2.48,-1.29 -6.44,-0.79 -3.21,0.4 -5.45,1.7 -6.22,2.2 0.03,0.73 0.05,2.39 -0.18,3.78 0.5,0.08 1,0.22 1.5,0.44 0.75,0.34 1.48,0.86 2.16,1.61 0.25,0.28 0.23,0.71 -0.05,0.95 -0.28,0.25 -0.7,0.23 -0.95,-0.05 -0.55,-0.6 -1.13,-1.02 -1.71,-1.28 -0.58,-0.26 -1.17,-0.38 -1.76,-0.4 -0.07,0 -0.13,-0.01 -0.19,-0.03 -0.36,-0.1 -0.57,-0.47 -0.47,-0.83 0.46,-1.64 0.29,-4.49 0.29,-4.5 -0.01,-0.22 0.08,-0.44 0.27,-0.58 0.01,0 2.79,-2.1 7.14,-2.65 4.38,-0.55 7.21,0.92 7.22,0.92z"/>
  <path class="fil1" d="M28.3 29.66c-0.25,-0.27 -0.23,-0.7 0.05,-0.95 0.27,-0.25 0.7,-0.23 0.95,0.05 0.8,0.89 1.31,1.87 1.59,2.93 0.27,1.03 0.32,2.13 0.19,3.28 -0.13,1.11 -0.38,2.27 -0.9,3.63 -0.51,1.33 -1.28,2.86 -2.46,4.73 -0.2,0.32 -0.61,0.41 -0.93,0.21 -0.31,-0.19 -0.41,-0.61 -0.21,-0.92 1.12,-1.79 1.86,-3.24 2.34,-4.5 0.47,-1.24 0.7,-2.3 0.82,-3.31 0.11,-0.98 0.07,-1.92 -0.15,-2.78 -0.23,-0.85 -0.64,-1.64 -1.29,-2.37z"/>
  <path class="fil1" d="M29.92 34.42c0.26,-0.27 0.69,-0.27 0.96,-0.01 0.26,0.26 0.27,0.68 0.01,0.95 -0.01,0.01 -2.69,2.78 -6.33,4.01 -0.35,0.12 -0.74,-0.07 -0.85,-0.42 -0.12,-0.36 0.07,-0.74 0.42,-0.86 3.33,-1.12 5.79,-3.66 5.79,-3.67z"/>
  <path class="fil1" d="M29.16 38.07c-0.17,-0.33 -0.04,-0.74 0.3,-0.91 0.33,-0.17 0.73,-0.04 0.9,0.29 0.01,0.01 1.02,1.91 0.86,4.34 -0.02,0.37 -0.34,0.65 -0.71,0.63 -0.37,-0.02 -0.65,-0.34 -0.63,-0.71 0.13,-2.06 -0.71,-3.63 -0.72,-3.64z"/>
  <path class="fil1" d="M43.29 19.16c0.34,0.15 0.5,0.54 0.36,0.89 -0.14,0.34 -0.54,0.5 -0.88,0.36 -2.63,-1.09 -5.13,-1.46 -7.53,-1.27 -2.4,0.2 -4.7,0.96 -6.94,2.14 -0.29,0.16 -0.65,0.07 -0.84,-0.18 -0.16,-0.19 -0.33,-0.45 -0.54,-0.78 -0.59,-0.92 -1.58,-2.44 -3.31,-3.85 0.39,-0.34 0.81,-0.59 1.24,-0.73 1.64,1.43 2.61,2.93 3.2,3.86l0.15 0.22c2.23,-1.11 4.53,-1.83 6.94,-2.02 2.6,-0.21 5.3,0.19 8.15,1.36zm-23.2 -4.77c-1.52,-0.61 -3.33,-1.06 -5.52,-1.21 -0.37,-0.02 -0.66,-0.35 -0.63,-0.72 0.02,-0.37 0.34,-0.65 0.72,-0.63 2.61,0.18 4.74,0.76 6.47,1.53 -0.37,0.31 -0.72,0.65 -1.04,1.03z"/>
  <path class="fil1" d="M20.96 29.23c-0.36,0.09 -0.73,-0.12 -0.82,-0.48 -0.1,-0.36 0.11,-0.73 0.47,-0.83 0.9,-0.24 1.65,-0.37 2.34,-0.5 0.28,-0.05 0.55,-0.09 0.81,-0.14 0.04,-0.23 0.06,-0.46 0.08,-0.69 0.14,-1.84 -0.25,-3.99 -1.49,-5.85 -0.23,-0.34 -0.48,-0.67 -0.77,-0.99 0.16,-0.49 0.35,-0.94 0.56,-1.36 0.52,0.5 0.96,1.04 1.33,1.6 1.43,2.14 1.88,4.6 1.72,6.7 -0.04,0.43 -0.09,0.85 -0.18,1.25 -0.04,0.27 -0.23,0.49 -0.51,0.56 -0.44,0.1 -0.86,0.17 -1.32,0.26 -0.66,0.11 -1.38,0.24 -2.22,0.47zm-2.73 -11.83c-0.75,-0.32 -1.59,-0.59 -2.53,-0.79 -0.69,-0.14 -1.45,-0.25 -2.26,-0.31 -0.37,-0.03 -0.65,-0.35 -0.62,-0.72 0.03,-0.37 0.35,-0.65 0.72,-0.63 0.87,0.07 1.68,0.18 2.44,0.34 1.05,0.22 2,0.53 2.85,0.9 -0.22,0.38 -0.42,0.79 -0.6,1.21z"/>
  <path class="fil2" d="M20.18 25.18c0.08,0.54 -0.3,1.05 -0.84,1.13 -0.54,0.07 -1.05,-0.3 -1.13,-0.84 -0.05,-0.36 -0.09,-0.72 -0.11,-1.08 -0.03,-0.38 -0.04,-0.74 -0.04,-1.09 0,-2.88 0.81,-5.5 2.13,-7.42 1.38,-2.02 3.34,-3.27 5.52,-3.27 1.07,0 2.11,0.31 3.06,0.88 0.92,0.56 1.76,1.36 2.47,2.39 0.31,0.45 0.19,1.07 -0.26,1.38 -0.45,0.31 -1.06,0.2 -1.37,-0.25 -0.55,-0.79 -1.18,-1.4 -1.86,-1.82 -0.65,-0.38 -1.34,-0.59 -2.04,-0.59 -1.49,0 -2.87,0.92 -3.89,2.41 -1.1,1.59 -1.78,3.81 -1.78,6.29 0,0.33 0.02,0.64 0.04,0.95 0.02,0.31 0.05,0.62 0.1,0.93z"/>
  <path class="fil2" d="M24.92 7.66c-0.19,-0.51 0.07,-1.08 0.58,-1.28 0.51,-0.19 1.09,0.06 1.28,0.58 0,0.01 1.46,3.67 -0.77,7.21 -0.29,0.46 -0.9,0.6 -1.36,0.31 -0.46,-0.29 -0.6,-0.91 -0.31,-1.37 1.68,-2.68 0.59,-5.44 0.58,-5.45z"/>
  <path class="fil2" d="M32 7.67c0.14,-0.53 0.69,-0.84 1.22,-0.69 0.53,0.14 0.84,0.69 0.7,1.21 0,0.02 -0.93,3.55 -5.19,6.86 -0.43,0.33 -1.06,0.26 -1.39,-0.18 -0.34,-0.43 -0.26,-1.05 0.17,-1.39 3.73,-2.9 4.49,-5.8 4.49,-5.81z"/>
 </g>
</svg>
