<?xml version="1.0" encoding="UTF-8"?>
<!DOCTYPE svg PUBLIC "-//W3C//DTD SVG 1.1//EN" "http://www.w3.org/Graphics/SVG/1.1/DTD/svg11.dtd">
<!-- Creator: CorelDRAW 2019 (64-Bit) -->
<svg xmlns="http://www.w3.org/2000/svg" xml:space="preserve" width="300px" height="300px" version="1.1" style="shape-rendering:geometricPrecision; text-rendering:geometricPrecision; image-rendering:optimizeQuality; fill-rule:evenodd; clip-rule:evenodd"
viewBox="0 0 40.37 40.37"
 xmlns:xlink="http://www.w3.org/1999/xlink">
 <defs>
  <style type="text/css">
   <![CDATA[
    .fil0 {fill:none}
    .fil1 {fill:#1F124E;fill-rule:nonzero}
    .fil2 {fill:#2E7AC5;fill-rule:nonzero}
   ]]>
  </style>
 </defs>
 <g id="Слой_x0020_1">
  <metadata id="CorelCorpID_0Corel-Layer"/>
  <rect class="fil0" width="40.37" height="40.37"/>
  <path class="fil1" d="M18.23 5.43c-0.26,-0.4 -0.44,-0.79 -0.52,-1.22 -0.12,-0.6 -0.05,-1.23 0.19,-2.02 0.12,-0.38 0.53,-0.6 0.91,-0.48 0.38,0.12 0.6,0.52 0.48,0.9 -0.17,0.56 -0.23,0.97 -0.16,1.32 0.07,0.35 0.27,0.69 0.6,1.1l0.01 0.01c0.69,0.84 1.88,1.4 3.19,2.01 1.42,0.67 2.98,1.4 4.34,2.66 0.67,0.62 1.19,1.39 1.58,2.23 0.46,0.97 0.76,2.03 0.94,3.04 0.07,0.39 -0.19,0.76 -0.58,0.84 -0.4,0.07 -0.77,-0.2 -0.85,-0.59 -0.16,-0.88 -0.42,-1.82 -0.82,-2.67 -0.32,-0.69 -0.73,-1.31 -1.25,-1.79 -1.2,-1.11 -2.65,-1.79 -3.98,-2.41 -1.18,-0.56 -2.28,-1.07 -3.13,-1.83 -0.85,0.76 -1.95,1.27 -3.14,1.83 -1.33,0.62 -2.78,1.3 -3.98,2.41 -0.52,0.48 -0.93,1.1 -1.25,1.79 -0.4,0.85 -0.66,1.79 -0.82,2.67 -0.07,0.39 -0.45,0.66 -0.84,0.59 -0.4,-0.08 -0.66,-0.45 -0.59,-0.84 0.18,-1.01 0.48,-2.07 0.94,-3.04 0.39,-0.84 0.91,-1.61 1.58,-2.23 1.36,-1.26 2.92,-1.99 4.35,-2.66 1.09,-0.51 2.1,-0.99 2.8,-1.62z"/>
  <path class="fil1" d="M19.18 35.65c0.41,0 0.73,0.33 0.73,0.73 0,0.4 -0.32,0.72 -0.73,0.72 -0.43,0 -0.93,-0.09 -1.4,-0.22 -0.52,-0.16 -1.01,-0.37 -1.35,-0.59 -0.54,-0.33 -0.94,-0.74 -1.35,-1.16l-0.05 -0.06c-1.04,-1.07 -2.27,-2.39 -3.4,-3.8 -1.14,-1.42 -2.17,-2.94 -2.78,-4.39 -0.2,-0.47 -0.35,-0.95 -0.46,-1.43 -0.39,-0.23 -0.78,-0.46 -1.12,-0.87 -1.06,-1.29 -1.22,-3.39 -1.33,-4.98l-0.02 -0.3c-0.02,-0.16 -0.04,-0.6 -0.05,-1 -0.01,-0.27 0,-0.52 0.04,-0.67 0.17,-0.7 0.56,-1.02 1.08,-1.14 0.4,-0.09 0.81,-0.01 1.21,0.1 0.39,0.11 0.61,0.51 0.5,0.9 -0.11,0.38 -0.51,0.61 -0.89,0.5 -0.22,-0.06 -0.41,-0.1 -0.51,-0.08 -0.02,0 0.03,0.01 0.02,0.07 -0.01,0.01 -0.01,0.13 0,0.29 0,0.31 0.03,0.75 0.04,0.92l0.03 0.31c0.09,1.3 0.21,2.98 0.85,3.96 0.02,-0.86 0.02,-1.58 0,-2.29 -0.02,-0.77 -0.08,-1.55 -0.2,-2.51 -0.05,-0.39 0.23,-0.75 0.63,-0.81 0.4,-0.05 0.76,0.24 0.81,0.63 0.13,1.01 0.19,1.83 0.21,2.65 0.03,0.81 0.01,1.63 -0.01,2.63 -0.01,0.43 0.03,0.86 0.12,1.29 0.08,0.44 0.21,0.87 0.38,1.26 0.56,1.33 1.51,2.73 2.58,4.06 1.08,1.34 2.28,2.63 3.31,3.69l0.05 0.05c0.34,0.36 0.68,0.71 1.07,0.95 0.24,0.15 0.61,0.31 1,0.42 0.34,0.1 0.7,0.17 0.99,0.17z"/>
  <path class="fil1" d="M19.18 25.21c0.41,0 0.73,0.33 0.73,0.73 0,0.4 -0.32,0.73 -0.73,0.73l-0.92 0c-0.02,0 -0.05,0 -0.07,-0.01 -0.24,-0.01 -0.46,-0.07 -0.67,-0.17 -0.02,-0.01 -0.04,-0.03 -0.07,-0.04 -0.2,-0.12 -0.38,-0.28 -0.51,-0.47l0 -0.01c-0.12,-0.16 -0.2,-0.34 -0.25,-0.52 -0.05,-0.21 -0.06,-0.42 -0.04,-0.62 0.01,-0.03 0.01,-0.07 0.02,-0.1 0.04,-0.2 0.11,-0.36 0.18,-0.52 0.02,-0.06 0.05,-0.11 0.06,-0.15 0.14,-0.38 0.55,-0.57 0.93,-0.43 0.38,0.14 0.57,0.55 0.43,0.93 -0.03,0.09 -0.06,0.16 -0.09,0.23 -0.04,0.08 -0.07,0.16 -0.09,0.21 0,0.03 0,0.06 0.01,0.09 0,0.01 0,0.02 0.01,0.03 0.01,0.01 0.02,0.03 0.03,0.04 0.01,0.01 0.01,0.02 0.02,0.03l0.02 0.01c0.02,0 0.04,0.01 0.05,0.01l0.03 0 0.92 0z"/>
  <path class="fil1" d="M18.43 32.12c-0.26,-0.07 -0.48,-0.18 -0.67,-0.34 -0.18,-0.14 -0.33,-0.32 -0.46,-0.52l-0.03 -0.05c-0.1,-0.14 -0.17,-0.23 -0.19,-0.38 -0.34,-0.14 -0.52,-0.53 -0.41,-0.89l0 0c0.12,-0.37 0.45,-0.69 0.83,-0.92 0.4,-0.25 0.9,-0.42 1.23,-0.44 0.17,-0.01 0.33,0.04 0.46,0.13l0.03 -0.03c0.14,-0.07 0.28,-0.11 0.42,-0.1l0 0c0.33,0.02 0.83,0.19 1.23,0.44 0.38,0.23 0.71,0.55 0.83,0.92 0.11,0.37 -0.07,0.75 -0.41,0.89 -0.02,0.15 -0.09,0.24 -0.19,0.38l-0.03 0.05c-0.13,0.2 -0.28,0.38 -0.46,0.52 -0.19,0.16 -0.41,0.27 -0.67,0.34 -0.18,0.05 -0.48,0.08 -0.76,0.08 -0.27,0 -0.57,-0.03 -0.75,-0.08z"/>
  <path class="fil1" d="M12.06 17.6c-0.37,0.16 -0.79,-0.01 -0.95,-0.38 -0.16,-0.37 0.02,-0.8 0.39,-0.95 0.01,0 3.36,-1.47 5.56,1.33 0.25,0.31 0.19,0.77 -0.12,1.02 -0.32,0.24 -0.77,0.19 -1.02,-0.13 -1.51,-1.91 -3.85,-0.89 -3.86,-0.89zm12.7 2.4c0.03,-0.02 0.06,-0.03 0.09,-0.04 0.08,-0.04 0.15,-0.08 0.21,-0.13 0.04,-0.03 0.07,-0.06 0.11,-0.09 0.23,-0.19 0.36,-0.4 0.36,-0.4 0.22,-0.33 0.67,-0.43 1,-0.22 0.34,0.22 0.44,0.67 0.22,1.01 0,0 -0.06,0.09 -0.17,0.23l0.15 0.16c0.28,0.29 0.28,0.75 -0.01,1.02 -0.27,0.27 -0.69,0.28 -0.97,0.04 -0.11,0.14 -0.27,0.24 -0.46,0.27 -0.3,0.04 -0.58,-0.1 -0.73,-0.34 -0.11,0.01 -0.22,0.01 -0.33,0 -0.69,-0.05 -1.17,-0.38 -1.59,-0.65 -0.14,-0.1 -0.08,-0.37 -0.16,-0.27 -0.26,0.31 -0.72,0.35 -1.02,0.09 -0.31,-0.25 -0.35,-0.71 -0.1,-1.02 0.75,-0.89 1.33,-0.51 2.08,-0.01 0.27,0.18 0.59,0.39 0.9,0.41 0.15,0.01 0.3,-0.01 0.42,-0.06zm2.11 -3.73c0.37,0.15 0.54,0.58 0.39,0.95 -0.16,0.37 -0.58,0.54 -0.95,0.38 -0.01,0 -2.35,-1.02 -3.86,0.89 -0.25,0.32 -0.7,0.37 -1.02,0.13 -0.31,-0.25 -0.37,-0.71 -0.12,-1.02 2.2,-2.8 5.55,-1.33 5.56,-1.33zm-13.35 3.69c0.03,0.01 0.06,0.02 0.08,0.04 0.13,0.05 0.28,0.07 0.43,0.06 0.31,-0.02 0.63,-0.23 0.9,-0.41 0.75,-0.5 1.33,-0.88 2.08,0.01 0.25,0.31 0.21,0.77 -0.1,1.02 -0.3,0.26 -0.76,0.22 -1.02,-0.09 -0.08,-0.1 -0.02,0.17 -0.16,0.27 -0.42,0.27 -0.9,0.6 -1.59,0.65 -0.11,0.01 -0.22,0.01 -0.33,0 -0.15,0.24 -0.43,0.38 -0.73,0.34 -0.19,-0.03 -0.35,-0.13 -0.46,-0.27 -0.28,0.24 -0.7,0.23 -0.97,-0.04 -0.29,-0.27 -0.29,-0.73 -0.01,-1.02l0.15 -0.16c-0.11,-0.14 -0.17,-0.23 -0.17,-0.23 -0.22,-0.34 -0.12,-0.79 0.22,-1.01 0.33,-0.21 0.78,-0.11 1,0.22 0,0 0.13,0.21 0.36,0.4 0.03,0.03 0.07,0.06 0.11,0.09 0.06,0.05 0.13,0.09 0.21,0.13z"/>
  <path class="fil1" d="M7.18 15c0.26,0.3 0.23,0.76 -0.08,1.02 -0.3,0.26 -0.76,0.22 -1.02,-0.08 -0.01,-0.01 -3.46,-3.98 -1.34,-9.28 0.15,-0.37 0.57,-0.55 0.94,-0.4 0.37,0.14 0.55,0.57 0.4,0.94 -1.79,4.48 1.09,7.79 1.1,7.8z"/>
  <path class="fil1" d="M19.18 37.1c-0.4,0 -0.72,-0.32 -0.72,-0.72 0,-0.4 0.32,-0.73 0.72,-0.73 0.3,0 0.66,-0.07 1,-0.17 0.39,-0.11 0.76,-0.27 1,-0.42 0.39,-0.24 0.73,-0.59 1.07,-0.95l0.05 -0.05c1.03,-1.06 2.23,-2.35 3.31,-3.69 1.07,-1.33 2.02,-2.73 2.58,-4.06 0.17,-0.39 0.3,-0.82 0.38,-1.26 0.09,-0.43 0.13,-0.86 0.12,-1.29 -0.02,-1 -0.04,-1.82 -0.01,-2.63 0.02,-0.82 0.08,-1.64 0.21,-2.65 0.05,-0.39 0.41,-0.68 0.81,-0.63 0.4,0.06 0.68,0.42 0.63,0.81 -0.12,0.96 -0.18,1.74 -0.2,2.51 -0.02,0.71 -0.02,1.43 0,2.29 0.64,-0.98 0.76,-2.66 0.85,-3.96l0.02 -0.31c0.02,-0.17 0.05,-0.61 0.05,-0.92 0.01,-0.16 0.01,-0.28 0,-0.29 -0.01,-0.06 0.04,-0.07 0.02,-0.07 -0.1,-0.02 -0.29,0.02 -0.51,0.08 -0.38,0.11 -0.78,-0.12 -0.89,-0.5 -0.11,-0.39 0.11,-0.79 0.5,-0.9 0.4,-0.11 0.81,-0.19 1.21,-0.1 0.52,0.12 0.91,0.44 1.08,1.14 0.04,0.15 0.05,0.4 0.04,0.67 -0.01,0.4 -0.03,0.84 -0.05,1l-0.02 0.3c-0.11,1.59 -0.27,3.69 -1.33,4.98 -0.34,0.41 -0.73,0.64 -1.12,0.87 -0.11,0.48 -0.26,0.96 -0.46,1.43 -0.61,1.45 -1.64,2.97 -2.78,4.39 -1.13,1.41 -2.36,2.73 -3.4,3.8l-0.05 0.06c-0.41,0.42 -0.81,0.83 -1.35,1.16 -0.34,0.22 -0.83,0.43 -1.35,0.59 -0.47,0.13 -0.97,0.22 -1.41,0.22z"/>
  <path class="fil1" d="M19.18 26.67c-0.4,0 -0.72,-0.33 -0.72,-0.73 0,-0.4 0.32,-0.73 0.72,-0.73l0.93 0 0.03 0c0.01,0 0.03,-0.01 0.05,-0.01l0.02 -0.01c0.01,-0.01 0.01,-0.02 0.02,-0.03 0.01,-0.01 0.02,-0.03 0.03,-0.04 0.01,-0.01 0.01,-0.02 0.01,-0.03 0.01,-0.03 0.01,-0.06 0.01,-0.09l0 0c-0.02,-0.05 -0.05,-0.13 -0.09,-0.21 -0.03,-0.07 -0.06,-0.14 -0.09,-0.23 -0.14,-0.38 0.05,-0.79 0.43,-0.93 0.38,-0.14 0.79,0.05 0.93,0.43 0.01,0.04 0.04,0.09 0.06,0.15 0.07,0.16 0.14,0.31 0.18,0.52 0.01,0.03 0.01,0.06 0.02,0.1 0.02,0.2 0.01,0.41 -0.04,0.62 -0.05,0.18 -0.13,0.36 -0.25,0.52l0 0.01c-0.13,0.19 -0.31,0.35 -0.51,0.47 -0.03,0.01 -0.05,0.03 -0.07,0.04 -0.21,0.1 -0.44,0.16 -0.67,0.17 -0.02,0.01 -0.05,0.01 -0.07,0.01l-0.93 0z"/>
  <path class="fil1" d="M32.29 15.94c-0.26,0.3 -0.72,0.34 -1.02,0.08 -0.31,-0.26 -0.34,-0.72 -0.08,-1.02 0.01,-0.01 2.89,-3.32 1.1,-7.8 -0.15,-0.37 0.03,-0.8 0.4,-0.94 0.37,-0.15 0.79,0.03 0.94,0.4 2.12,5.3 -1.33,9.27 -1.34,9.28z"/>
  <path class="fil2" d="M29.11 35.44c-0.4,0 -0.73,-0.32 -0.73,-0.72 0,-0.4 0.33,-0.73 0.73,-0.73l0.46 0 0 -0.85c0,-0.4 0.33,-0.73 0.73,-0.73 0.4,0 0.73,0.33 0.73,0.73l0 0.85 0.46 0c0.4,0 0.73,0.33 0.73,0.73 0,0.4 -0.33,0.72 -0.73,0.72l-0.46 0 0 0.85c0,0.41 -0.33,0.73 -0.73,0.73 -0.4,0 -0.73,-0.32 -0.73,-0.73l0 -0.85 -0.46 0zm-0.3 2.53c0,0.27 -0.22,0.49 -0.5,0.49 -0.27,0 -0.49,-0.22 -0.49,-0.49l0 -0.3c0,-0.27 0.22,-0.49 0.49,-0.49 0.28,0 0.5,0.22 0.5,0.49l0 0.3zm3.82 -6.21c0,0.28 -0.22,0.5 -0.5,0.5 -0.27,0 -0.49,-0.22 -0.49,-0.5l0 -0.29c0,-0.27 0.22,-0.5 0.49,-0.5 0.28,0 0.5,0.23 0.5,0.5l0 0.29z"/>
  <path class="fil2" d="M3.59 23.93c0.4,0 0.73,0.32 0.73,0.72 0,0.41 -0.33,0.73 -0.73,0.73l-0.46 0 0 0.85c0,0.4 -0.33,0.73 -0.73,0.73 -0.4,0 -0.72,-0.33 -0.72,-0.73l0 -0.85 -0.47 0c-0.4,0 -0.72,-0.32 -0.72,-0.73 0,-0.4 0.32,-0.72 0.72,-0.72l0.47 0 0 -0.85c0,-0.4 0.32,-0.73 0.72,-0.73 0.4,0 0.73,0.33 0.73,0.73l0 0.85 0.46 0zm1.29 3.97c0,0.28 -0.22,0.5 -0.49,0.5 -0.27,0 -0.49,-0.22 -0.49,-0.5l0 -0.29c0,-0.27 0.22,-0.49 0.49,-0.49 0.27,0 0.49,0.22 0.49,0.49l0 0.29zm-3.82 -6.2c0,0.27 -0.22,0.49 -0.49,0.49 -0.27,0 -0.49,-0.22 -0.49,-0.49l0 -0.3c0,-0.27 0.22,-0.49 0.49,-0.49 0.27,0 0.49,0.22 0.49,0.49l0 0.3z"/>
  <path class="fil2" d="M36.78 16.64c-0.4,0 -0.73,-0.33 -0.73,-0.73 0,-0.4 0.33,-0.73 0.73,-0.73l0.46 0 0 -0.85c0,-0.4 0.32,-0.72 0.73,-0.72 0.4,0 0.72,0.32 0.72,0.72l0 0.85 0.47 0c0.4,0 0.72,0.33 0.72,0.73 0,0.4 -0.32,0.73 -0.72,0.73l-0.47 0 0 0.85c0,0.4 -0.32,0.72 -0.72,0.72 -0.41,0 -0.73,-0.32 -0.73,-0.72l0 -0.85 -0.46 0zm-0.31 2.52c0,0.27 -0.22,0.49 -0.49,0.49 -0.27,0 -0.5,-0.22 -0.5,-0.49l0 -0.29c0,-0.28 0.23,-0.5 0.5,-0.5 0.27,0 0.49,0.22 0.49,0.5l0 0.29zm3.82 -6.2c0,0.27 -0.22,0.49 -0.49,0.49 -0.27,0 -0.49,-0.22 -0.49,-0.49l0 -0.3c0,-0.27 0.22,-0.49 0.49,-0.49 0.27,0 0.49,0.22 0.49,0.49l0 0.3z"/>
 </g>
</svg>
