<?xml version="1.0" encoding="UTF-8"?>
<!DOCTYPE svg PUBLIC "-//W3C//DTD SVG 1.1//EN" "http://www.w3.org/Graphics/SVG/1.1/DTD/svg11.dtd">
<!-- Creator: CorelDRAW 2019 (64-Bit) -->
<svg xmlns="http://www.w3.org/2000/svg" xml:space="preserve" width="300px" height="300px" version="1.1" style="shape-rendering:geometricPrecision; text-rendering:geometricPrecision; image-rendering:optimizeQuality; fill-rule:evenodd; clip-rule:evenodd"
viewBox="0 0 261.84 261.84"
 xmlns:xlink="http://www.w3.org/1999/xlink">
 <defs>
  <style type="text/css">
   <![CDATA[
    .fil0 {fill:none}
    .fil1 {fill:#1F124E;fill-rule:nonzero}
   ]]>
  </style>
 </defs>
 <g id="Слой_x0020_1">
  <metadata id="CorelCorpID_0Corel-Layer"/>
  <rect class="fil0" width="261.84" height="261.84"/>
  <path class="fil1" d="M134.03 82.69c1.94,1.72 2.12,4.69 0.4,6.63 -1.71,1.94 -4.68,2.12 -6.62,0.41 -1.09,-0.97 -2.38,-1.67 -3.74,-2.18 -1.79,-0.67 -3.76,-1.02 -5.63,-1.18 -2.59,-0.21 -4.52,-2.48 -4.31,-5.08 0.22,-2.59 2.49,-4.52 5.09,-4.31 2.56,0.22 5.37,0.73 8.13,1.77 2.38,0.89 4.67,2.16 6.68,3.94z"/>
  <path class="fil1" d="M143 88.76c2.6,-0.05 4.73,2.02 4.77,4.62 0.04,2.59 -2.03,4.73 -4.62,4.77 -2.09,0.03 -3.56,0.22 -4.83,0.71 -1.26,0.5 -2.6,1.42 -4.4,2.91 -2,1.66 -4.97,1.38 -6.63,-0.63 -1.66,-2 -1.38,-4.97 0.63,-6.63 2.54,-2.1 4.62,-3.48 7.01,-4.41 2.4,-0.93 4.84,-1.29 8.07,-1.34z"/>
  <path class="fil1" d="M135.61 191.47c-0.18,2.6 -2.43,4.55 -5.02,4.37 -2.6,-0.19 -4.55,-2.44 -4.37,-5.03 0.44,-5.97 2.82,-11.74 6.55,-16.42 3.68,-4.6 8.69,-8.15 14.48,-9.8 2.51,-0.7 5.1,0.76 5.8,3.26 0.71,2.5 -0.75,5.1 -3.26,5.8 -3.84,1.09 -7.2,3.49 -9.69,6.6 -2.56,3.2 -4.19,7.15 -4.49,11.22z"/>
  <path class="fil1" d="M61.33 139.46c0.12,0.13 0.23,0.27 0.33,0.41 1.27,1.49 2.81,2.73 4.54,3.68 2.55,1.4 5.51,2.18 8.63,2.22 2.59,0.04 4.66,2.18 4.62,4.77 -0.04,2.6 -2.17,4.67 -4.77,4.63 -4.68,-0.08 -9.14,-1.25 -13.01,-3.37 -0.89,-0.48 -1.74,-1.02 -2.56,-1.6 -1.63,4.07 -1.83,7.96 -0.86,11.35 1.02,3.6 3.38,6.74 6.74,9 0.94,0.64 1.94,1.2 3,1.68 1.87,0.84 2.92,2.75 2.76,4.68 -0.08,5.31 0.15,10.2 1.81,14.16 1.54,3.67 4.52,6.76 10.1,9.01 0.27,0.11 0.59,0.22 0.94,0.34 0.27,0.1 0.52,0.17 0.73,0.24 1.03,0.2 1.72,0.33 2.91,1.54 0.19,0.19 0.37,0.41 0.55,0.63l0.12 0.17c0.1,0.14 0.19,0.27 0.27,0.38l0.01 0.01 0.01 -0.01c0.15,0.23 0.4,0.66 0.64,1.09l0.25 0.43c1.42,2.31 3.38,4.29 5.67,5.81 2.32,1.54 4.95,2.6 7.68,3.05l0.23 0.04c2.55,0.45 5.19,0.36 7.74,-0.22 2.64,-0.61 5.14,-1.72 7.32,-3.28l0.04 -0.03 -0.01 -0.01c2.35,-1.66 4.52,-4.17 6.09,-7.01 1.45,-2.61 2.36,-5.43 2.37,-8 0.01,-2.59 2.12,-4.69 4.72,-4.68 2.58,0.01 4.66,2.1 4.67,4.68 0.02,2.57 0.92,5.39 2.37,8 1.58,2.84 3.75,5.35 6.09,7.01l0.25 0.18c2.12,1.49 4.55,2.55 7.11,3.14 2.59,0.59 5.28,0.68 7.87,0.2l0.1 -0.02c2.72,-0.45 5.35,-1.51 7.68,-3.05 2.28,-1.52 4.24,-3.5 5.67,-5.81l0.24 -0.43c0.21,-0.37 0.42,-0.73 0.65,-1.07 0.1,-0.16 0.24,-0.36 0.4,-0.56l0.01 -0.02 -0.01 0c0.14,-0.18 0.32,-0.38 0.56,-0.62 1.19,-1.21 1.87,-1.34 2.9,-1.54 0.22,-0.06 0.46,-0.14 0.73,-0.24 0.36,-0.12 0.67,-0.23 0.95,-0.34 5.57,-2.25 8.56,-5.34 10.1,-9.01 1.69,-4.03 1.89,-9.04 1.8,-14.48 -0.03,-1.93 1.11,-3.61 2.77,-4.36l-0.01 0c1.06,-0.48 2.06,-1.04 3,-1.68 3.36,-2.26 5.73,-5.4 6.75,-9 0.96,-3.39 0.77,-7.28 -0.86,-11.35 -0.82,0.58 -1.68,1.12 -2.56,1.6 -3.87,2.12 -8.33,3.29 -13.02,3.37 -2.59,0.04 -4.73,-2.03 -4.77,-4.63 -0.04,-2.59 2.03,-4.72 4.63,-4.76 3.11,-0.05 6.07,-0.83 8.63,-2.23 1.73,-0.95 3.27,-2.18 4.53,-3.68 0.1,-0.14 0.21,-0.28 0.33,-0.41 0.4,-0.5 0.76,-1.02 1.09,-1.57 2.44,-4.06 3.24,-8.08 2.63,-11.81 -0.63,-3.87 -2.82,-7.57 -6.32,-10.81 -1.44,-1.2 -2.09,-3.2 -1.46,-5.1 0.38,-1.16 0.66,-2.28 0.84,-3.35 0.71,-4.32 0.07,-8.53 -1.79,-11.98 -1.79,-3.33 -4.76,-5.97 -8.78,-7.3 -0.83,-0.27 -1.67,-0.49 -2.51,-0.64 -0.15,-0.01 -0.3,-0.04 -0.44,-0.07 -0.75,-0.15 -1.51,-0.24 -2.26,-0.28l-0.21 0c-1.66,-0.06 -3.31,0.14 -4.9,0.57 -2.48,0.68 -4.82,1.93 -6.78,3.62 -1.8,1.57 -3.22,3.52 -4.21,5.68 -1.04,2.27 -1.61,4.75 -1.67,7.25 -0.06,2.59 -2.22,4.64 -4.81,4.58 -2.59,-0.06 -4.65,-2.21 -4.59,-4.8 0.09,-3.77 0.96,-7.52 2.52,-10.93 1.55,-3.37 3.77,-6.43 6.61,-8.88 3.01,-2.61 6.62,-4.52 10.46,-5.58 1.58,-0.43 3.21,-0.72 4.84,-0.85 1.78,-4.02 1.17,-7.63 -0.71,-10.3 -1,-1.42 -2.37,-2.62 -3.94,-3.52 -1.59,-0.91 -3.35,-1.49 -5.11,-1.66l-0.3 -0.03c-0.13,0 -0.26,0 -0.39,-0.02 -3.68,-0.11 -7.42,1.66 -9.72,6.09 -1.19,2.31 -4.03,3.22 -6.33,2.03 -2.31,-1.19 -3.22,-4.03 -2.03,-6.34 2.62,-5.06 6.33,-8.22 10.44,-9.85 -0.89,-0.88 -1.86,-1.68 -2.9,-2.39 -2.57,-1.74 -5.51,-2.91 -8.5,-3.31 -2.85,-0.39 -5.73,-0.07 -8.33,1.13 -2.27,1.05 -4.36,2.78 -6.09,5.3 -0.33,0.5 -0.77,0.95 -1.3,1.31 -2.15,1.46 -5.06,0.9 -6.52,-1.25 -1.74,-2.56 -3.85,-4.3 -6.13,-5.36 -2.61,-1.2 -5.49,-1.52 -8.34,-1.13 -2.99,0.4 -5.92,1.57 -8.49,3.31 -1.04,0.71 -2.02,1.51 -2.91,2.39 4.11,1.63 7.82,4.79 10.44,9.85 1.19,2.31 0.29,5.15 -2.02,6.34 -2.31,1.19 -5.15,0.28 -6.34,-2.03 -2.29,-4.43 -6.04,-6.2 -9.71,-6.09 -0.13,0.02 -0.27,0.02 -0.4,0.02l-0.3 0.03c-1.76,0.17 -3.51,0.75 -5.11,1.66 -1.56,0.9 -2.93,2.1 -3.94,3.52 -1.88,2.67 -2.49,6.27 -0.71,10.3 1.64,0.13 3.26,0.42 4.85,0.85 3.84,1.06 7.44,2.97 10.45,5.58 2.84,2.45 5.07,5.51 6.61,8.88 1.57,3.41 2.43,7.16 2.52,10.93 0.06,2.59 -1.99,4.74 -4.58,4.8 -2.6,0.06 -4.75,-1.99 -4.81,-4.58 -0.06,-2.5 -0.63,-4.98 -1.67,-7.25 -0.99,-2.16 -2.41,-4.11 -4.22,-5.68 -1.96,-1.69 -4.3,-2.94 -6.77,-3.62 -1.6,-0.43 -3.26,-0.64 -4.92,-0.57l-0.17 0c-0.76,0.04 -1.53,0.13 -2.28,0.28 -0.15,0.03 -0.29,0.06 -0.44,0.07 -0.84,0.15 -1.68,0.37 -2.51,0.64 -4.02,1.33 -7,3.97 -8.79,7.3 -1.86,3.45 -2.5,7.66 -1.78,11.98 0.18,1.07 0.46,2.19 0.84,3.35 0.62,1.9 -0.02,3.9 -1.47,5.1 -3.49,3.24 -5.68,6.94 -6.32,10.81 -0.61,3.73 0.2,7.75 2.64,11.81 0.33,0.55 0.69,1.07 1.08,1.57zm-10.39 5.9c0.39,-0.85 0.82,-1.71 1.29,-2.56l-0.05 -0.09c-3.64,-6.06 -4.82,-12.25 -3.85,-18.14 0.86,-5.21 3.38,-10.08 7.32,-14.32 -0.14,-0.64 -0.27,-1.28 -0.37,-1.92 -1.06,-6.37 -0.06,-12.68 2.78,-17.95 2.9,-5.39 7.68,-9.66 14.12,-11.79 0.39,-0.12 0.8,-0.25 1.21,-0.36 -1.92,-6.32 -0.53,-12.16 2.7,-16.74 1.82,-2.58 4.23,-4.72 6.96,-6.28 2.16,-1.24 4.55,-2.12 7.03,-2.58 2.17,-3.65 5.21,-6.79 8.72,-9.18 3.76,-2.55 8.08,-4.26 12.51,-4.86 4.55,-0.62 9.23,-0.08 13.53,1.91 2.15,0.99 4.2,2.34 6.08,4.08 1.88,-1.74 3.92,-3.09 6.08,-4.08 4.3,-1.99 8.97,-2.53 13.53,-1.91 4.42,0.6 8.75,2.31 12.5,4.86 3.52,2.39 6.55,5.53 8.72,9.19 2.48,0.45 4.87,1.33 7.04,2.57 2.72,1.56 5.13,3.7 6.96,6.29 3.23,4.57 4.62,10.41 2.7,16.73 0.41,0.11 0.81,0.24 1.2,0.36 6.44,2.13 11.23,6.4 14.13,11.79 2.84,5.27 3.83,11.58 2.78,17.95 -0.11,0.64 -0.23,1.28 -0.38,1.92 3.95,4.24 6.47,9.11 7.32,14.32 0.97,5.89 -0.2,12.08 -3.85,18.14l-0.05 0.09c0.48,0.85 0.91,1.71 1.3,2.56 2.97,6.55 3.38,13.01 1.75,18.73 -1.64,5.8 -5.34,10.76 -10.54,14.27 -0.52,0.35 -1.06,0.69 -1.62,1.02 -0.04,5.47 -0.55,10.63 -2.52,15.33 -2.47,5.89 -7.02,10.76 -15.29,14.09 -0.5,0.21 -0.98,0.38 -1.43,0.54l-0.26 0.08 -0.25 0.42c-2.16,3.5 -5.09,6.46 -8.47,8.71 -3.4,2.26 -7.29,3.82 -11.36,4.49 -3.86,0.7 -7.81,0.57 -11.58,-0.29 -3.72,-0.85 -7.3,-2.43 -10.45,-4.65l-0.22 -0.14c-2.92,-2.06 -5.62,-4.96 -7.74,-8.23 -2.12,3.27 -4.82,6.17 -7.74,8.23l-0.01 -0.01c-3.21,2.3 -6.86,3.93 -10.66,4.8 -3.76,0.85 -7.69,0.99 -11.52,0.3l-0.06 -0.01c-4.07,-0.67 -7.96,-2.23 -11.36,-4.49 -3.39,-2.25 -6.31,-5.21 -8.48,-8.71l-0.24 -0.42 -0.27 -0.08c-0.45,-0.16 -0.92,-0.33 -1.42,-0.54 -8.28,-3.33 -12.82,-8.2 -15.29,-14.09 -1.98,-4.7 -2.48,-9.86 -2.53,-15.33 -0.55,-0.33 -1.09,-0.67 -1.61,-1.02 -5.21,-3.51 -8.9,-8.47 -10.55,-14.27 -1.62,-5.72 -1.21,-12.18 1.76,-18.73zm33.38 55.3l-0.04 0 0.04 0zm24.73 -85.89c1.91,-1.75 4.88,-1.62 6.63,0.29 1.75,1.91 1.61,4.88 -0.3,6.63 -4.44,4.07 -9.53,6.48 -14.65,7.38 -1.08,4.63 -3.14,8.11 -5.93,10.7 -3.48,3.24 -7.94,4.9 -12.92,5.54 -2.58,0.33 -4.93,-1.5 -5.25,-4.07 -0.33,-2.57 1.5,-4.92 4.07,-5.25 3.11,-0.4 5.79,-1.34 7.69,-3.1 1.05,-0.98 1.92,-2.26 2.55,-3.9 -1.59,-0.32 -3.13,-0.78 -4.62,-1.38 -3.37,-1.38 -6.46,-3.5 -9.02,-6.3 -4.08,-4.46 -6.75,-10.59 -7.04,-18.12 -0.09,-2.6 1.93,-4.77 4.53,-4.86 2.59,-0.1 4.77,1.93 4.86,4.53 0.2,5.14 1.93,9.23 4.57,12.11 1.58,1.72 3.5,3.04 5.64,3.91 2.04,0.83 4.25,1.24 6.5,1.2 0.13,0 0.26,-0.01 0.39,-0.01 4.18,-0.16 8.53,-1.86 12.3,-5.3zm2.96 30.17c2.59,-0.15 4.81,1.84 4.95,4.43 0.15,2.6 -1.84,4.81 -4.43,4.96 -5.34,0.31 -9.11,2.31 -11.69,5.38 -2.68,3.18 -4.28,7.6 -5.12,12.55 2.97,1.34 5.68,3.26 7.98,5.57 4.53,4.56 7.52,10.74 7.8,17.28 0.02,0.49 0.02,1.01 0.01,1.55 -0.06,2.6 -2.21,4.65 -4.81,4.59 -2.59,-0.06 -4.64,-2.21 -4.58,-4.81 0.01,-0.29 0,-0.61 -0.01,-0.96 -0.18,-4.1 -2.12,-8.05 -5.07,-11.02 -2.12,-2.13 -4.73,-3.73 -7.54,-4.49l-0.25 -0.06c-1,-0.26 -2.02,-0.4 -3.05,-0.43 -0.28,0 -0.58,0 -0.91,0.01 -2.6,0.11 -4.78,-1.91 -4.88,-4.51 -0.1,-2.59 1.92,-4.78 4.51,-4.88 0.47,-0.02 0.97,-0.02 1.5,-0.01l0.14 0.01c1.15,-6.26 3.36,-11.99 7.1,-16.43 4.21,-5 10.15,-8.26 18.35,-8.73zm34.44 -23.25c-1.91,-1.75 -2.04,-4.72 -0.29,-6.63 1.75,-1.91 4.71,-2.04 6.63,-0.29 3.76,3.44 8.12,5.14 12.31,5.31 0.12,-0.01 0.24,0 0.37,0.01 2.25,0.03 4.46,-0.38 6.51,-1.21 2.13,-0.87 4.06,-2.19 5.63,-3.9 2.64,-2.89 4.38,-6.98 4.58,-12.12 0.09,-2.6 2.26,-4.63 4.86,-4.53 2.59,0.09 4.62,2.26 4.53,4.86 -0.29,7.53 -2.97,13.66 -7.04,18.12 -2.57,2.8 -5.65,4.92 -9.03,6.3 -1.48,0.6 -3.03,1.06 -4.62,1.38 0.64,1.64 1.5,2.92 2.55,3.9 1.91,1.76 4.58,2.7 7.7,3.1 2.57,0.33 4.39,2.68 4.07,5.25 -0.33,2.57 -2.68,4.4 -5.25,4.07 -4.98,-0.64 -9.44,-2.3 -12.93,-5.54 -2.79,-2.59 -4.85,-6.07 -5.93,-10.7 -5.12,-0.9 -10.2,-3.31 -14.65,-7.38zm2.86 32.64c-2.59,-0.14 -4.58,-2.36 -4.44,-4.96 0.14,-2.59 2.36,-4.58 4.96,-4.43 8.2,0.47 14.14,3.73 18.34,8.73 3.74,4.44 5.96,10.17 7.1,16.43l0.15 -0.01c0.52,-0.01 1.02,-0.01 1.49,0.01 2.6,0.1 4.62,2.29 4.52,4.88 -0.1,2.6 -2.29,4.62 -4.88,4.51 -0.33,-0.01 -0.64,-0.01 -0.91,-0.01 -1.04,0.03 -2.06,0.17 -3.07,0.43l-0.22 0.06c-2.82,0.76 -5.43,2.36 -7.55,4.49 -2.95,2.97 -4.9,6.92 -5.07,11.02 -0.02,0.35 -0.02,0.67 -0.01,0.96 0.06,2.6 -2,4.75 -4.59,4.81 -2.59,0.06 -4.74,-1.99 -4.81,-4.59 -0.01,-0.54 0,-1.06 0.02,-1.55 0.27,-6.54 3.27,-12.72 7.79,-17.28 2.3,-2.31 5.02,-4.23 7.99,-5.57 -0.84,-4.95 -2.44,-9.37 -5.13,-12.55 -2.58,-3.07 -6.34,-5.07 -11.68,-5.38z"/>
  <path class="fil1" d="M126.2 51.77c0,-2.61 2.11,-4.72 4.72,-4.72 2.6,0 4.71,2.11 4.71,4.72l0 143.5c0,2.6 -2.11,4.71 -4.71,4.71 -2.61,0 -4.72,-2.11 -4.72,-4.71l0 -143.5z"/>
 </g>
</svg>
