<?xml version="1.0" encoding="UTF-8"?>
<!DOCTYPE svg PUBLIC "-//W3C//DTD SVG 1.1//EN" "http://www.w3.org/Graphics/SVG/1.1/DTD/svg11.dtd">
<!-- Creator: CorelDRAW 2019 (64-Bit) -->
<svg xmlns="http://www.w3.org/2000/svg" xml:space="preserve" width="300px" height="300px" version="1.1" style="shape-rendering:geometricPrecision; text-rendering:geometricPrecision; image-rendering:optimizeQuality; fill-rule:evenodd; clip-rule:evenodd"
viewBox="0 0 55.2 55.2"
 xmlns:xlink="http://www.w3.org/1999/xlink">
 <defs>
  <style type="text/css">
   <![CDATA[
    .fil0 {fill:none}
    .fil1 {fill:#1F124E;fill-rule:nonzero}
   ]]>
  </style>
 </defs>
 <g id="Слой_x0020_1">
  <metadata id="CorelCorpID_0Corel-Layer"/>
  <rect class="fil0" width="55.2" height="55.2"/>
  <path class="fil1" d="M27.6 10.07c-0.55,0 -0.99,-0.45 -0.99,-0.99 0,-0.55 0.44,-1 0.99,-1 1.28,0 2.27,0.03 3.3,0.2 1.03,0.17 2.06,0.48 3.38,1.05 1.14,0.5 2.41,2.07 3.45,3.82 1.27,2.11 2.26,4.59 2.27,5.66 0.03,4.03 -2.42,8.94 -5.92,13.66 -4.23,5.7 -10.02,11.19 -14.75,14.47 -0.4,0.28 -0.93,0.22 -1.26,-0.11l-6.51 -6.4c-0.39,-0.39 -0.39,-1.01 -0.01,-1.4 0.06,-0.07 0.13,-0.12 0.21,-0.17 3.67,-2.13 6.55,-4.07 8.96,-5.99 2.4,-1.91 4.33,-3.81 6.14,-5.87 1.82,-2.07 3.54,-4.8 4.86,-7.63 1.25,-2.69 2.13,-5.45 2.35,-7.82l0 0c-0.21,-0.19 -0.4,-0.33 -0.58,-0.4 -1.15,-0.5 -2.03,-0.77 -2.91,-0.92 -0.87,-0.14 -1.78,-0.16 -2.98,-0.16zm8.43 4.1c-0.09,-0.16 -0.19,-0.32 -0.29,-0.48 -0.42,2.1 -1.2,4.34 -2.22,6.52 -1.39,2.98 -3.22,5.87 -5.17,8.1 -1.89,2.14 -3.91,4.12 -6.4,6.11 -2.23,1.78 -4.84,3.57 -8.08,5.5l5 4.92c4.45,-3.21 9.71,-8.29 13.61,-13.55 3.27,-4.41 5.57,-8.92 5.54,-12.47 -0.01,-0.76 -0.88,-2.8 -1.99,-4.65z"/>
  <path class="fil1" d="M27.6 8.08c0.55,0 1,0.45 1,1 0,0.54 -0.45,0.99 -1,0.99 -1.19,0 -2.11,0.02 -2.98,0.16 -0.87,0.15 -1.75,0.42 -2.91,0.92 -0.18,0.07 -0.37,0.21 -0.57,0.4l0 0c0.22,2.37 1.09,5.13 2.34,7.82 1.32,2.83 3.05,5.56 4.87,7.63 0.36,0.41 0.32,1.04 -0.1,1.4 -0.41,0.36 -1.03,0.32 -1.39,-0.09 -1.95,-2.23 -3.79,-5.12 -5.18,-8.1 -1.01,-2.18 -1.79,-4.42 -2.22,-6.52 -0.1,0.16 -0.19,0.32 -0.29,0.48 -1.11,1.85 -1.98,3.89 -1.99,4.65 -0.01,1.75 0.55,3.74 1.51,5.84 1.09,2.4 2.71,4.93 4.62,7.4 0.33,0.44 0.25,1.06 -0.18,1.39 -0.44,0.34 -1.06,0.26 -1.39,-0.17 -1.99,-2.59 -3.69,-5.25 -4.85,-7.8 -1.08,-2.35 -1.7,-4.62 -1.69,-6.67 0.01,-1.07 1.01,-3.55 2.27,-5.66 1.04,-1.75 2.32,-3.32 3.46,-3.82 1.32,-0.57 2.34,-0.88 3.37,-1.05 1.04,-0.17 2.03,-0.2 3.3,-0.2zm-0.71 31.12c-0.38,-0.39 -0.37,-1.02 0.02,-1.4 0.39,-0.38 1.02,-0.38 1.4,0.02 1.45,1.48 2.93,2.87 4.39,4.13 1.24,1.08 2.47,2.05 3.63,2.89l5 -4.92c-1.73,-1.03 -3.28,-2.02 -4.7,-3 -1.72,-1.18 -3.23,-2.34 -4.59,-3.49 -0.42,-0.36 -0.47,-0.98 -0.11,-1.4 0.35,-0.42 0.98,-0.47 1.39,-0.12 1.33,1.13 2.78,2.24 4.44,3.38 1.66,1.15 3.53,2.33 5.68,3.57 0.08,0.05 0.15,0.1 0.21,0.17 0.39,0.39 0.38,1.01 -0.01,1.4l-6.51 6.4c-0.33,0.33 -0.86,0.39 -1.26,0.11 -1.42,-0.98 -2.93,-2.16 -4.47,-3.49 -1.5,-1.29 -3.03,-2.73 -4.51,-4.25z"/>
  <path class="fil1" d="M21.93 17.55c-0.5,0.21 -1.08,-0.03 -1.29,-0.53 -0.21,-0.51 0.03,-1.09 0.53,-1.3 0.01,0 2.86,-1.22 6.43,-1.22 3.57,0 6.42,1.22 6.43,1.22 0.51,0.21 0.75,0.79 0.54,1.3 -0.21,0.5 -0.79,0.74 -1.3,0.53 -0.01,0 -2.49,-1.06 -5.67,-1.06 -3.17,0 -5.66,1.06 -5.67,1.06z"/>
 </g>
</svg>
