<?xml version="1.0" encoding="UTF-8"?>
<!DOCTYPE svg PUBLIC "-//W3C//DTD SVG 1.1//EN" "http://www.w3.org/Graphics/SVG/1.1/DTD/svg11.dtd">
<!-- Creator: CorelDRAW 2019 (64-Bit) -->
<svg xmlns="http://www.w3.org/2000/svg" xml:space="preserve" width="300px" height="300px" version="1.1" style="shape-rendering:geometricPrecision; text-rendering:geometricPrecision; image-rendering:optimizeQuality; fill-rule:evenodd; clip-rule:evenodd"
viewBox="0 0 40.37 40.37"
 xmlns:xlink="http://www.w3.org/1999/xlink">
 <defs>
  <style type="text/css">
   <![CDATA[
    .fil0 {fill:none}
    .fil1 {fill:#1F124E;fill-rule:nonzero}
   ]]>
  </style>
 </defs>
 <g id="Слой_x0020_1">
  <metadata id="CorelCorpID_0Corel-Layer"/>
  <rect class="fil0" width="40.37" height="40.37"/>
  <path class="fil1" d="M15.77 9.47c-0.07,-0.4 0.19,-0.77 0.58,-0.84 0.39,-0.07 0.77,0.19 0.84,0.58 0,0.02 1.24,6.81 0.65,12.45 -0.26,2.55 -0.97,4.38 -1.85,5.65 -1.21,1.74 -2.77,2.48 -4.08,2.6 -0.37,0.04 -0.56,0.05 -0.75,0.07 -1.41,0.11 -2.72,0.22 -2.72,1.02 0,0.6 0.18,1.11 0.68,1.43 0.62,0.41 1.68,0.6 3.38,0.48 1.02,-0.07 1.92,-0.08 2.7,-0.1 1.85,-0.03 2.99,-0.06 4.31,-0.88 0.92,-0.58 1.58,-1.6 2.3,-2.7 0.75,-1.16 1.56,-2.42 2.84,-3.49 0.92,-0.78 2.11,-1.31 3.3,-1.85 1.99,-0.9 3.98,-1.79 3.98,-3.66 0,-1.82 -0.74,-2.61 -1.75,-3.69 -0.8,-0.86 -1.74,-1.87 -2.67,-3.56 -2.1,-3.84 -3.22,-5.94 -3.23,-5.94 -0.19,-0.36 -0.05,-0.79 0.3,-0.98 0.35,-0.19 0.79,-0.06 0.98,0.3 0,0 0.94,1.76 3.22,5.92 0.85,1.54 1.72,2.48 2.46,3.27 1.24,1.32 2.14,2.29 2.14,4.68 0,2.8 -2.41,3.89 -4.83,4.98 -1.11,0.5 -2.21,1 -2.97,1.63 -1.11,0.94 -1.86,2.1 -2.56,3.18 -0.81,1.24 -1.55,2.39 -2.74,3.14 -1.66,1.03 -2.96,1.06 -5.05,1.1 -0.74,0.01 -1.58,0.03 -2.64,0.1 -2.03,0.14 -3.39,-0.14 -4.26,-0.71 -0.98,-0.64 -1.34,-1.58 -1.34,-2.65 0,-2.14 1.96,-2.3 4.05,-2.47 0.3,-0.02 0.6,-0.05 0.73,-0.06 0.95,-0.09 2.1,-0.65 3.03,-1.99 0.76,-1.09 1.36,-2.7 1.6,-4.97 0.57,-5.44 -0.63,-12.02 -0.63,-12.04z"/>
  <path class="fil1" d="M25.71 16.94c-0.32,-0.23 -0.4,-0.68 -0.18,-1.01 0.23,-0.32 0.68,-0.4 1.01,-0.17 0.61,0.42 1.11,0.95 1.4,1.49 0.23,0.43 0.33,0.87 0.29,1.3 -0.05,0.48 -0.27,0.91 -0.69,1.26 -0.34,0.27 -0.82,0.49 -1.45,0.62 -0.39,0.07 -0.77,-0.18 -0.85,-0.57 -0.08,-0.39 0.17,-0.78 0.57,-0.85 0.38,-0.08 0.65,-0.19 0.81,-0.33 0.11,-0.08 0.16,-0.17 0.17,-0.27 0.01,-0.13 -0.04,-0.3 -0.13,-0.48 -0.18,-0.34 -0.52,-0.69 -0.95,-0.99z"/>
 </g>
</svg>
