<?xml version="1.0" encoding="UTF-8"?>
<!DOCTYPE svg PUBLIC "-//W3C//DTD SVG 1.1//EN" "http://www.w3.org/Graphics/SVG/1.1/DTD/svg11.dtd">
<!-- Creator: CorelDRAW 2019 (64-Bit) -->
<svg xmlns="http://www.w3.org/2000/svg" xml:space="preserve" width="300px" height="300px" version="1.1" style="shape-rendering:geometricPrecision; text-rendering:geometricPrecision; image-rendering:optimizeQuality; fill-rule:evenodd; clip-rule:evenodd"
viewBox="0 0 95.45 95.45"
 xmlns:xlink="http://www.w3.org/1999/xlink">
 <defs>
  <style type="text/css">
   <![CDATA[
    .fil0 {fill:none}
    .fil1 {fill:#1F124E}
    .fil2 {fill:#2E7AC5}
   ]]>
  </style>
 </defs>
 <g id="Слой_x0020_1">
  <metadata id="CorelCorpID_0Corel-Layer"/>
  <rect class="fil0" width="95.45" height="95.45"/>
  <path class="fil1" d="M40.58 17.89c4.74,-1.99 10.15,-1.99 14.9,0 4.85,-6.35 15.41,-3.06 15.41,4.89 0,3.2 -1.89,6.03 -4.76,7.39 0.81,3.32 0.62,6.81 -0.56,10.02 4.34,-0.27 8.23,3.05 8.23,7.46 0,3.65 -2.7,6.66 -6.22,7.33l0.05 3.92c7.2,0.86 8.39,9.33 6.76,15.16 -2.2,7.86 -13.19,9.25 -17.41,2.2 -5.74,3.2 -12.6,3.12 -18.27,-0.2 -4.06,7.3 -15.4,6.1 -17.65,-1.93 -0.96,-3.43 -0.96,-8.12 0.86,-11.27 1.38,-2.4 3.75,-3.83 6.51,-3.95l0.05 -3.93c-3.52,-0.67 -6.23,-3.68 -6.23,-7.33 0,-4.41 3.9,-7.73 8.23,-7.46 -1.17,-3.21 -1.37,-6.7 -0.56,-10.02 -2.86,-1.36 -4.75,-4.19 -4.75,-7.39 0,-7.94 10.56,-11.24 15.41,-4.89zm5.73 30.72l0 -8.73c-3.82,-1.62 -5.18,-8.1 1.72,-8.1 6.89,0 5.54,6.48 1.72,8.1l0 8.73c10.81,-1.17 16.86,-12.58 11.4,-21.57 -1.17,-1.93 1.77,-3.71 2.94,-1.78 0.32,0.53 0.61,1.08 0.88,1.64 4.43,-2.49 2.51,-8.93 -2.62,-8.93 -1.95,0 -3.82,1.08 -4.66,2.86 -0.42,0.89 -1.49,1.25 -2.35,0.79 -4.54,-2.38 -10.09,-2.38 -14.62,0 -0.86,0.46 -1.94,0.1 -2.35,-0.79 -2.22,-4.71 -9.76,-3.22 -9.76,1.95 0,2.27 1.65,4.13 3.83,4.65 0.98,0.24 1.55,1.29 1.21,2.24 -3.11,8.84 3.26,17.92 12.66,18.94zm9.76 -14.6c-1.38,0 -2.58,-1.08 -2.58,-2.49 0,-1.41 1.2,-2.49 2.58,-2.49 1.39,0 2.59,1.08 2.59,2.49 0,1.41 -1.2,2.49 -2.59,2.49zm-16.09 0c-1.38,0 -2.58,-1.08 -2.58,-2.49 0,-1.41 1.2,-2.49 2.58,-2.49 1.39,0 2.59,1.08 2.59,2.49 0,1.41 -1.2,2.49 -2.59,2.49zm19.05 -9.67c-1.64,-1.58 0.76,-4.09 2.42,-2.44 1.63,1.62 -0.86,4 -2.42,2.44zm-0.73 24.82l-3.07 1.59c-4.59,1.86 -9.81,1.86 -14.41,0l-3.06 -1.59c-1.84,-1.17 -3.47,-2.67 -4.78,-4.41 -0.82,-0.75 -1.89,-1.14 -2.99,-1.14 -2.26,0 -4.3,1.71 -4.3,4.04 0,2.45 2.25,4.2 4.62,4.03 1.11,-0.08 2.01,0.92 1.81,2.02 -0.35,1.95 -0.41,3.93 -0.17,5.89 4.22,1.87 8.22,8.34 7.75,13.04 4.91,3.25 11.06,3.39 16.1,0.34 -0.75,-5.03 3.68,-12.08 8.35,-13.7 0.19,-1.86 0.12,-3.73 -0.22,-5.57 -0.19,-1.1 0.7,-2.1 1.82,-2.02 2.37,0.17 4.62,-1.58 4.62,-4.03 0,-2.33 -2.05,-4.04 -4.3,-4.04 -1.11,0 -2.17,0.39 -2.99,1.14 -1.32,1.74 -2.94,3.24 -4.78,4.41zm-8.83 -13.74c-0.6,-0.27 -2.28,-0.27 -2.88,0 0.08,0.61 0.84,1.38 1.44,1.38 0.6,0 1.36,-0.77 1.44,-1.38zm-18.84 42.04c3.64,-0.19 6.49,-3.57 5.48,-7.19 -0.95,-3.36 -4.16,-8.89 -8.5,-7.78 -4.3,1.11 -4.16,7.44 -3.24,10.71 0.76,2.73 3.47,4.45 6.26,4.26zm40.45 -4.32c1.04,-3.7 0.86,-10.87 -4.39,-10.87 -3.68,0 -6.48,4.83 -7.35,7.93 -1.03,3.7 1.96,7.21 5.88,7.21 2.65,0 5.13,-1.68 5.86,-4.27z"/>
  <path class="fil2" d="M37.76 49.16l3.06 1.59c-3.16,5.02 -0.32,11.69 5.49,12.88l0 -3.36c0,-2.26 3.44,-2.26 3.44,0l0 3.36c5.81,-1.19 8.65,-7.86 5.48,-12.88l3.07 -1.59c4.72,7.92 -0.98,18.08 -10.27,18.08 -9.29,0 -14.99,-10.16 -10.27,-18.08zm8.55 6.31c0,-2.25 3.44,-2.29 3.44,0.03 0,2.25 -3.44,2.3 -3.44,-0.03z"/>
 </g>
</svg>
