<?xml version="1.0" encoding="UTF-8"?>
<!DOCTYPE svg PUBLIC "-//W3C//DTD SVG 1.1//EN" "http://www.w3.org/Graphics/SVG/1.1/DTD/svg11.dtd">
<!-- Creator: CorelDRAW 2019 (64-Bit) -->
<svg xmlns="http://www.w3.org/2000/svg" xml:space="preserve" width="300px" height="300px" version="1.1" style="shape-rendering:geometricPrecision; text-rendering:geometricPrecision; image-rendering:optimizeQuality; fill-rule:evenodd; clip-rule:evenodd"
viewBox="0 0 261.84 261.84"
 xmlns:xlink="http://www.w3.org/1999/xlink">
 <defs>
  <style type="text/css">
   <![CDATA[
    .fil0 {fill:none}
    .fil2 {fill:#1F124E;fill-rule:nonzero}
    .fil1 {fill:#2E7AC5;fill-rule:nonzero}
   ]]>
  </style>
 </defs>
 <g id="Слой_x0020_1">
  <metadata id="CorelCorpID_0Corel-Layer"/>
  <rect class="fil0" width="261.84" height="261.84"/>
  <path class="fil1" d="M135.81 53.02c0,-1.77 1.44,-3.2 3.21,-3.2 1.77,0 3.2,1.43 3.2,3.2l0 18.41 3.55 0c1.04,-1.13 2.25,-2.06 3.58,-2.75 1.85,-0.96 3.91,-1.48 6.05,-1.48 3.62,0 6.89,1.46 9.26,3.84 2.37,2.37 3.84,5.64 3.84,9.26 0,3.62 -1.47,6.89 -3.84,9.26 -2.37,2.37 -5.64,3.84 -9.26,3.84 -2.14,0 -4.21,-0.52 -6.05,-1.48 -1.33,-0.69 -2.54,-1.62 -3.58,-2.75l-3.55 0 0 18.65c0,1.77 -1.43,3.21 -3.2,3.21 -1.77,0 -3.21,-1.44 -3.21,-3.21l0 -21.84 0.01 0c0,-1.77 1.43,-3.2 3.2,-3.2l8.27 0c1.01,0 2,0.48 2.62,1.37 0.62,0.88 1.44,1.59 2.4,2.08 0.94,0.49 1.99,0.76 3.09,0.76 1.85,0 3.52,-0.75 4.73,-1.96 1.21,-1.21 1.96,-2.88 1.96,-4.73 0,-1.85 -0.75,-3.52 -1.96,-4.73 -1.21,-1.21 -2.88,-1.96 -4.73,-1.96 -1.1,0 -2.15,0.27 -3.09,0.75 -0.94,0.49 -1.75,1.18 -2.36,2.04 -0.58,0.85 -1.55,1.42 -2.66,1.42l-7.99 0c-0.09,0 -0.19,0.01 -0.28,0.01 -1.77,0 -3.21,-1.44 -3.21,-3.21l0 -21.6z"/>
  <path class="fil1" d="M193.82 104.62c1.77,0 3.2,1.43 3.2,3.2 0,1.77 -1.43,3.21 -3.2,3.21l-18.41 0 0 3.55c1.13,1.03 2.06,2.25 2.75,3.58 0.96,1.84 1.48,3.91 1.48,6.04 0,3.62 -1.46,6.9 -3.83,9.27 -2.37,2.37 -5.65,3.84 -9.27,3.84 -3.61,0 -6.89,-1.47 -9.26,-3.84 -2.37,-2.37 -3.84,-5.65 -3.84,-9.27 0,-2.13 0.52,-4.2 1.48,-6.04 0.69,-1.33 1.62,-2.55 2.75,-3.58l0 -3.55 -18.65 0c-1.77,0 -3.21,-1.44 -3.21,-3.21 0,-1.77 1.44,-3.2 3.21,-3.2l21.85 0 0 0.01c1.76,0 3.19,1.43 3.19,3.19l0 8.28c0,1 -0.48,1.99 -1.37,2.61 -0.88,0.62 -1.59,1.45 -2.08,2.4 -0.49,0.94 -0.76,2 -0.76,3.09 0,1.85 0.75,3.52 1.96,4.73 1.21,1.22 2.88,1.96 4.73,1.96 1.85,0 3.52,-0.74 4.73,-1.96 1.21,-1.21 1.96,-2.88 1.96,-4.73 0,-1.09 -0.26,-2.15 -0.75,-3.09 -0.49,-0.93 -1.18,-1.75 -2.04,-2.36 -0.85,-0.57 -1.42,-1.55 -1.42,-2.65l0 -8c0,-0.09 -0.01,-0.18 -0.01,-0.28 0,-1.77 1.44,-3.2 3.21,-3.2l21.6 0z"/>
  <path class="fil1" d="M142.22 162.62c0,1.77 -1.43,3.21 -3.2,3.21 -1.77,0 -3.21,-1.44 -3.21,-3.21l0 -18.4 -3.55 0c-1.03,1.13 -2.25,2.06 -3.58,2.75 -1.84,0.96 -3.91,1.48 -6.04,1.48 -3.62,0 -6.9,-1.47 -9.27,-3.84 -2.37,-2.37 -3.83,-5.65 -3.83,-9.26 0,-3.62 1.46,-6.9 3.83,-9.27 2.37,-2.37 5.65,-3.83 9.27,-3.83 2.13,0 4.2,0.52 6.04,1.48 1.33,0.69 2.55,1.62 3.58,2.75l3.55 0 0 -18.66c0,-1.77 1.44,-3.2 3.21,-3.2 1.77,0 3.2,1.43 3.2,3.2l0 21.85 -0.01 0c0,1.76 -1.43,3.19 -3.19,3.19l-8.28 0c-1,0 -1.99,-0.47 -2.61,-1.36 -0.62,-0.88 -1.45,-1.59 -2.4,-2.09 -0.94,-0.49 -2,-0.75 -3.09,-0.75 -1.85,0 -3.52,0.75 -4.73,1.96 -1.21,1.21 -1.96,2.88 -1.96,4.73 0,1.84 0.75,3.52 1.96,4.73 1.21,1.21 2.88,1.96 4.73,1.96 1.09,0 2.15,-0.27 3.09,-0.76 0.93,-0.48 1.75,-1.18 2.36,-2.03 0.57,-0.86 1.55,-1.42 2.65,-1.42l8 0c0.09,-0.01 0.18,-0.01 0.28,-0.01 1.77,0 3.2,1.43 3.2,3.2l0 21.6z"/>
  <path class="fil1" d="M84.22 111.03c-1.77,0 -3.21,-1.44 -3.21,-3.21 0,-1.77 1.44,-3.2 3.21,-3.2l18.4 0 0.01 -3.55c-1.14,-1.04 -2.06,-2.25 -2.76,-3.58 -0.96,-1.84 -1.48,-3.91 -1.48,-6.05 0,-3.61 1.47,-6.89 3.84,-9.26 2.37,-2.37 5.65,-3.84 9.26,-3.84 3.62,0 6.9,1.47 9.27,3.84 2.37,2.37 3.84,5.65 3.84,9.26 0,2.14 -0.53,4.21 -1.49,6.05 -0.69,1.33 -1.62,2.54 -2.75,3.58l0 3.55 18.66 0c1.77,0 3.2,1.43 3.2,3.2 0,1.77 -1.43,3.21 -3.2,3.21l-21.85 0 0 -0.01c-1.76,0 -3.19,-1.43 -3.19,-3.2l0 -8.27c0,-1.01 0.47,-2 1.36,-2.62 0.88,-0.61 1.59,-1.44 2.09,-2.4 0.49,-0.93 0.75,-1.99 0.75,-3.09 0,-1.84 -0.74,-3.52 -1.96,-4.73 -1.21,-1.21 -2.88,-1.96 -4.73,-1.96 -1.84,0 -3.52,0.75 -4.73,1.96 -1.21,1.21 -1.96,2.89 -1.96,4.73 0,1.1 0.27,2.16 0.76,3.09 0.49,0.94 1.18,1.75 2.04,2.37 0.85,0.57 1.41,1.54 1.41,2.65l0 7.99c0.01,0.09 0.01,0.19 0.01,0.28 0,1.77 -1.43,3.21 -3.2,3.21l-21.6 0z"/>
  <path class="fil2" d="M194.39 206.59c1.24,2.28 0.4,5.13 -1.87,6.37 -2.28,1.24 -5.14,0.4 -6.38,-1.88l-1.69 -3.08 -0.01 0c-5.11,-9.23 -10.31,-18.62 -12.2,-29.45l-0.01 -0.04c-0.63,-3.03 -0.74,-6.07 -0.49,-9.06 0.24,-2.93 0.84,-5.84 1.63,-8.68l0.04 -0.13c2.26,-7.3 5.79,-13.92 9.3,-20.53 4.42,-8.29 8.83,-16.57 10.14,-25.63l0.05 -0.31c1.91,-8.85 0.81,-18.19 -2.68,-26.55 -3.47,-8.3 -9.31,-15.59 -16.92,-20.39l-0.15 -0.1 0 0.01c-5.99,-4.1 -12.8,-6.8 -19.91,-8.22 -7.6,-1.52 -15.51,-1.58 -23.12,-0.35 -6.13,1.4 -12.09,3.68 -17.57,6.79 -5.22,2.96 -10,6.7 -14.04,11.18 -0.13,0.14 -0.26,0.27 -0.4,0.39 -3.07,2.98 -5.66,6.43 -7.76,10.2 -2.26,4.02 -3.93,8.36 -5.02,12.8l0.01 0c-0.68,2.9 -0.52,6.13 -0.36,9.35 0.11,2.37 0.23,4.73 0.08,7.18 -0.01,0.27 -0.05,0.54 -0.11,0.81l0 0c-0.82,3.48 -4.43,9.2 -8.29,15.33 -2.51,3.99 -5.14,8.17 -6.97,11.63 0.92,0.18 1.88,0.31 2.85,0.44 2.42,0.34 4.85,0.68 7.34,1.57 1.91,0.67 3.11,2.45 3.14,4.36 0.21,2.8 -0.13,5.39 -0.68,7.88 1.71,0.1 3.48,0.11 5.3,0.02 2.59,-0.11 4.79,1.9 4.9,4.5 0.11,2.59 -1.9,4.78 -4.49,4.9 -1.78,0.08 -3.5,0.09 -5.14,0.03 0.84,5.36 0.89,11.63 0.93,16.12 0.01,1.02 0.01,1.94 0.03,2.76 0.37,0.19 0.88,0.38 1.35,0.56 4.66,1.78 9.86,2.41 15.06,3.04 4.38,0.54 8.76,1.07 13.16,2.26 3.77,1.02 7.83,2.76 11.23,5.43 2.98,2.33 5.44,5.33 6.82,9.13 0.89,2.44 -0.37,5.14 -2.82,6.03 -2.44,0.88 -5.13,-0.38 -6.02,-2.82 -0.72,-2 -2.09,-3.63 -3.76,-4.94 -2.28,-1.79 -5.15,-3 -7.88,-3.73 -3.75,-1.02 -7.79,-1.51 -11.83,-2 -5.79,-0.7 -11.58,-1.41 -17.31,-3.59 -1.32,-0.5 -2.81,-1.12 -4.19,-2.2 -1.92,-1.51 -3.26,-3.57 -3.19,-6.56 -0.02,-0.85 -0.03,-2 -0.04,-3.3 -0.05,-6.08 -0.14,-15.96 -2.04,-19.27 -0.07,-0.11 -0.13,-0.22 -0.18,-0.33 -0.17,-0.37 -0.29,-0.72 -0.37,-1.11 -0.14,-0.69 -0.13,-1.41 0.06,-2.13l0.24 -0.91 0.05 -0.21c0.53,-1.95 1.06,-3.93 1.31,-5.83 -0.74,-0.12 -1.51,-0.23 -2.27,-0.34 -3.32,-0.46 -6.64,-0.92 -9.97,-2.75 -2.13,-1.01 -3.21,-3.48 -2.44,-5.77 1.65,-4.84 5.9,-11.58 9.87,-17.88 3.25,-5.16 6.3,-10 6.99,-12.19 0.08,-1.84 -0.02,-3.76 -0.11,-5.68 -0.2,-3.9 -0.39,-7.8 0.58,-11.92l0.01 0 0.01 -0.04c1.3,-5.32 3.28,-10.49 5.94,-15.24 2.53,-4.51 5.68,-8.7 9.44,-12.35 4.71,-5.2 10.27,-9.54 16.34,-12.99 6.29,-3.57 13.13,-6.18 20.15,-7.79 0.14,-0.03 0.29,-0.06 0.43,-0.09 8.77,-1.43 17.87,-1.37 26.59,0.38 8.29,1.65 16.28,4.83 23.37,9.69 9.24,5.86 16.29,14.66 20.46,24.64 4.19,10.02 5.5,21.26 3.23,31.97 -1.56,10.56 -6.35,19.55 -11.14,28.55 -3.29,6.18 -6.58,12.37 -8.59,18.85 -0.62,2.22 -1.09,4.52 -1.28,6.84 -0.18,2.15 -0.11,4.29 0.31,6.35 0.03,0.12 0.06,0.24 0.08,0.36 1.63,9.34 6.42,17.99 11.14,26.51l-0.01 0 1.74 3.15z"/>
 </g>
</svg>
