<?xml version="1.0" encoding="UTF-8"?>
<!DOCTYPE svg PUBLIC "-//W3C//DTD SVG 1.1//EN" "http://www.w3.org/Graphics/SVG/1.1/DTD/svg11.dtd">
<!-- Creator: CorelDRAW 2019 (64-Bit) -->
<svg xmlns="http://www.w3.org/2000/svg" xml:space="preserve" width="300px" height="300px" version="1.1" style="shape-rendering:geometricPrecision; text-rendering:geometricPrecision; image-rendering:optimizeQuality; fill-rule:evenodd; clip-rule:evenodd"
viewBox="0 0 55.2 55.2"
 xmlns:xlink="http://www.w3.org/1999/xlink">
 <defs>
  <style type="text/css">
   <![CDATA[
    .fil0 {fill:none}
    .fil1 {fill:#1F124E;fill-rule:nonzero}
    .fil2 {fill:#2E7AC5;fill-rule:nonzero}
   ]]>
  </style>
 </defs>
 <g id="Слой_x0020_1">
  <metadata id="CorelCorpID_0Corel-Layer"/>
  <rect class="fil0" width="55.2" height="55.2"/>
  <path class="fil1" d="M40.99 43.56c0.26,0.48 0.08,1.08 -0.4,1.34 -0.48,0.26 -1.08,0.08 -1.34,-0.4l-0.36 -0.65 0 0c-1.08,-1.94 -2.18,-3.92 -2.58,-6.21l0 0c-0.13,-0.64 -0.15,-1.28 -0.1,-1.91 0.05,-0.62 0.18,-1.24 0.34,-1.83l0.01 -0.03c0.48,-1.54 1.22,-2.94 1.96,-4.33 0.93,-1.75 1.86,-3.49 2.14,-5.4l0.01 -0.07c0.4,-1.86 0.17,-3.83 -0.57,-5.6 -0.73,-1.75 -1.96,-3.28 -3.56,-4.3l-0.03 -0.02 0 0c-1.27,-0.86 -2.7,-1.43 -4.2,-1.73 -1.6,-0.32 -3.27,-0.33 -4.88,-0.07 -1.29,0.29 -2.55,0.77 -3.7,1.43 -1.1,0.62 -2.11,1.41 -2.96,2.36 -0.03,0.03 -0.06,0.05 -0.08,0.08 -0.65,0.63 -1.2,1.36 -1.64,2.15 -0.48,0.85 -0.83,1.76 -1.06,2.7l0 0c-0.14,0.61 -0.11,1.29 -0.07,1.97 0.02,0.5 0.05,1 0.01,1.51 0,0.06 -0.01,0.12 -0.02,0.17l0 0c-0.17,0.74 -0.93,1.94 -1.75,3.24 -0.53,0.84 -1.08,1.72 -1.47,2.45 0.2,0.04 0.4,0.06 0.6,0.09 0.51,0.07 1.03,0.14 1.55,0.33 0.4,0.14 0.66,0.52 0.66,0.92 0.05,0.59 -0.02,1.14 -0.14,1.66 0.36,0.02 0.73,0.03 1.12,0.01 0.54,-0.03 1.01,0.4 1.03,0.95 0.02,0.54 -0.4,1 -0.95,1.03 -0.37,0.02 -0.73,0.02 -1.08,0.01 0.18,1.13 0.19,2.45 0.2,3.39 0,0.22 0,0.41 0,0.59 0.08,0.04 0.19,0.08 0.29,0.12 0.98,0.37 2.08,0.5 3.17,0.64 0.93,0.11 1.85,0.22 2.78,0.47 0.79,0.22 1.65,0.58 2.37,1.15 0.62,0.49 1.14,1.12 1.43,1.92 0.19,0.52 -0.08,1.09 -0.59,1.27 -0.52,0.19 -1.08,-0.08 -1.27,-0.59 -0.15,-0.42 -0.44,-0.77 -0.79,-1.04 -0.49,-0.38 -1.09,-0.64 -1.67,-0.79 -0.79,-0.21 -1.64,-0.32 -2.49,-0.42 -1.22,-0.15 -2.44,-0.3 -3.65,-0.76 -0.28,-0.1 -0.59,-0.23 -0.88,-0.46 -0.41,-0.32 -0.69,-0.75 -0.67,-1.38 -0.01,-0.18 -0.01,-0.43 -0.01,-0.7 -0.01,-1.28 -0.03,-3.37 -0.43,-4.06 -0.02,-0.03 -0.03,-0.05 -0.04,-0.07 -0.04,-0.08 -0.06,-0.16 -0.08,-0.24 -0.03,-0.14 -0.03,-0.29 0.01,-0.45l0.05 -0.19 0.02 -0.04c0.11,-0.41 0.22,-0.83 0.27,-1.23 -0.16,-0.03 -0.32,-0.05 -0.48,-0.07 -0.7,-0.1 -1.4,-0.2 -2.1,-0.58 -0.45,-0.22 -0.68,-0.74 -0.51,-1.22 0.34,-1.02 1.24,-2.44 2.08,-3.77 0.68,-1.09 1.32,-2.11 1.47,-2.57 0.02,-0.39 0,-0.79 -0.02,-1.2 -0.04,-0.82 -0.09,-1.64 0.12,-2.51l0 0 0 -0.01c0.28,-1.12 0.7,-2.21 1.26,-3.21 0.53,-0.95 1.19,-1.84 1.99,-2.61 0.99,-1.09 2.16,-2.01 3.44,-2.73 1.33,-0.76 2.77,-1.31 4.25,-1.65 0.03,0 0.06,-0.01 0.09,-0.01 1.85,-0.31 3.77,-0.29 5.61,0.07 1.74,0.35 3.43,1.02 4.92,2.05 1.95,1.23 3.44,3.09 4.32,5.19 0.88,2.11 1.16,4.49 0.68,6.74 -0.33,2.23 -1.34,4.12 -2.35,6.02 -0.69,1.31 -1.39,2.61 -1.81,3.98 -0.13,0.46 -0.23,0.95 -0.27,1.44 -0.04,0.45 -0.02,0.9 0.06,1.34 0.01,0.02 0.02,0.05 0.02,0.07 0.34,1.97 1.35,3.8 2.35,5.59l0 0 0.37 0.67z"/>
  <path class="fil2" d="M24.98 25.74c-1.11,0.09 -3.33,0.03 -4.09,-1.71 -0.39,-0.89 -0.63,-1.6 -0.74,-2.24 -0.13,-0.71 -0.1,-1.33 0.06,-1.96 0.16,-0.62 0.47,-1.24 0.92,-1.81 0.42,-0.54 0.96,-1.04 1.6,-1.49 0.59,-0.41 1.09,-0.71 1.65,-0.99 0.56,-0.27 1.15,-0.5 1.89,-0.74 0.77,-0.25 1.53,-0.44 2.32,-0.56 0.79,-0.11 1.6,-0.15 2.45,-0.11 0.87,0.05 1.74,0.17 2.58,0.46 0.88,0.3 1.71,0.78 2.43,1.54 0.72,0.76 1.08,1.43 1.37,1.97 0.18,0.32 0.31,0.58 0.43,0.65 0.06,0.04 0.13,0.09 0.19,0.14 0.47,0.38 0.9,1.09 1.12,1.81 0.25,0.79 0.27,1.67 -0.13,2.31 -0.04,0.06 -0.08,0.12 -0.13,0.17 -0.11,0.14 -0.23,0.25 -0.35,0.34 0.27,0.77 0.43,1.77 -0.02,2.68 -0.68,1.35 -1.59,1.35 -2.44,1.34 -0.3,0 -0.56,0 -0.46,1.81 0.01,0.25 0.02,0.62 0.03,1.06l0 0.05c0,0.51 -0.01,1.13 -0.06,1.78 -0.05,0.81 -0.16,1.69 -0.35,2.51 -0.39,1.65 -0.59,3.1 -0.53,4.53 0.07,1.4 0.39,2.8 1.05,4.36 0.22,0.51 -0.02,1.09 -0.52,1.3 -0.51,0.22 -1.09,-0.02 -1.3,-0.52 -0.76,-1.79 -1.13,-3.41 -1.21,-5.06 -0.07,-1.63 0.15,-3.25 0.58,-5.06 0.16,-0.71 0.25,-1.48 0.3,-2.19 0.04,-0.51 0.05,-0.99 0.06,-1.41 -0.34,-0.6 -1.37,-2.29 -2.38,-2.79 -0.64,-0.31 -1.38,-0.3 -2.06,-0.3 -0.75,0.01 -1.46,0.01 -2.16,-0.28 -0.73,-0.3 -1.48,-0.74 -1.95,-1.38 -0.06,-0.07 -0.1,-0.14 -0.15,-0.21zm-2.27 -2.5c0.26,0.6 1.35,0.6 2.02,0.54 0.07,-0.24 0.17,-0.49 0.32,-0.75 0.86,-1.56 1.91,-1.81 2.64,-1.83 0.34,-0.45 0.83,-0.85 1.39,-1.14 0.51,-0.25 1.09,-0.42 1.69,-0.44 0.35,-0.49 0.84,-0.92 1.41,-1.22 0.7,-0.35 1.54,-0.5 2.44,-0.28 0.53,0.13 0.86,0.67 0.73,1.2 -0.13,0.53 -0.67,0.86 -1.2,0.73 -0.39,-0.1 -0.76,-0.03 -1.07,0.12 -0.4,0.21 -0.7,0.55 -0.87,0.9 -0.18,0.39 -0.61,0.63 -1.07,0.55 -0.39,-0.06 -0.81,0.03 -1.16,0.21 -0.41,0.21 -0.72,0.49 -0.81,0.73l0 0c-0.15,0.36 -0.5,0.62 -0.91,0.62 -0.08,0 -0.13,0 -0.2,0 -0.28,-0.01 -0.81,-0.03 -1.28,0.82 -0.2,0.35 -0.18,0.6 -0.06,0.77 0.22,0.3 0.67,0.54 1.11,0.73 0.34,0.14 0.85,0.13 1.4,0.13 0.91,-0.01 1.89,-0.01 2.94,0.5 0.55,0.26 1.08,0.72 1.55,1.24 0.29,-1.82 1.29,-1.81 2.37,-1.81 0.26,0 0.54,0.01 0.67,-0.25 0.25,-0.51 -0.07,-1.25 -0.31,-1.68l-0.03 0c-0.57,-0.13 -1.26,-0.28 -1.89,-0.1 -1.38,0.39 -1.99,1.26 -2,1.27 -0.32,0.44 -0.94,0.53 -1.38,0.21 -0.44,-0.32 -0.54,-0.95 -0.22,-1.39 0.01,0 1,-1.41 3.07,-2 1.11,-0.32 2.06,-0.11 2.84,0.07 0.08,0.01 0.14,0.04 0.19,0.07 0.12,-0.01 0.23,0.01 0.35,0.04 -0.01,-0.13 -0.05,-0.31 -0.11,-0.51 -0.12,-0.38 -0.3,-0.72 -0.48,-0.86l0 0c-0.56,-0.35 -0.8,-0.81 -1.12,-1.39 -0.23,-0.44 -0.52,-0.98 -1.05,-1.54 -0.49,-0.51 -1.05,-0.84 -1.65,-1.04 -0.63,-0.22 -1.32,-0.31 -2.03,-0.35 -0.71,-0.04 -1.39,0 -2.06,0.1 -0.68,0.1 -1.34,0.26 -1.99,0.47 -0.68,0.22 -1.19,0.42 -1.64,0.64 -0.45,0.22 -0.87,0.48 -1.39,0.84 -0.47,0.33 -0.86,0.69 -1.16,1.08 -0.28,0.36 -0.47,0.72 -0.56,1.08 -0.09,0.36 -0.11,0.71 -0.04,1.13 0.09,0.48 0.29,1.05 0.61,1.79z"/>
 </g>
</svg>
