<?xml version="1.0" encoding="UTF-8"?>
<!DOCTYPE svg PUBLIC "-//W3C//DTD SVG 1.1//EN" "http://www.w3.org/Graphics/SVG/1.1/DTD/svg11.dtd">
<!-- Creator: CorelDRAW 2019 (64-Bit) -->
<svg xmlns="http://www.w3.org/2000/svg" xml:space="preserve" width="300px" height="300px" version="1.1" style="shape-rendering:geometricPrecision; text-rendering:geometricPrecision; image-rendering:optimizeQuality; fill-rule:evenodd; clip-rule:evenodd"
viewBox="0 0 40.37 40.37"
 xmlns:xlink="http://www.w3.org/1999/xlink">
 <defs>
  <style type="text/css">
   <![CDATA[
    .fil0 {fill:none}
    .fil1 {fill:#1F124E;fill-rule:nonzero}
   ]]>
  </style>
 </defs>
 <g id="Слой_x0020_1">
  <metadata id="CorelCorpID_0Corel-Layer"/>
  <rect class="fil0" width="40.37" height="40.37"/>
  <path class="fil1" d="M16.95 33.67c-0.23,0.33 -0.68,0.42 -1.01,0.19 -0.33,-0.22 -0.42,-0.68 -0.19,-1.01 0.01,-0.01 3.02,-4.38 2.7,-7.83 -0.17,-1.9 -1.1,-3.38 -1.92,-4.71 -0.46,-0.73 -0.89,-1.42 -1.18,-2.14 -0.29,0.15 -0.61,0.24 -0.97,0.27 -0.88,0.07 -1.7,0.18 -2.39,0.38 -0.61,0.18 -1.1,0.42 -1.37,0.75 -0.26,0.3 -0.72,0.34 -1.02,0.09 -0.31,-0.26 -0.35,-0.72 -0.09,-1.02 0.48,-0.57 1.21,-0.96 2.08,-1.21 0.8,-0.24 1.72,-0.37 2.69,-0.44 0.17,-0.01 0.32,-0.06 0.45,-0.14 0.15,-0.09 0.29,-0.23 0.39,-0.38 0.11,-0.16 0.29,-0.28 0.49,-0.31 0.4,-0.06 0.77,0.21 0.83,0.61 0.14,0.88 0.7,1.78 1.32,2.78 0.91,1.46 1.93,3.09 2.13,5.34 0.37,3.97 -2.93,8.77 -2.94,8.78zm0.66 -26.9c0.18,-0.35 0.62,-0.49 0.98,-0.31 0.35,0.19 0.49,0.62 0.31,0.98 0,0 -1.02,1.96 -1.79,3.65 -0.23,0.52 -0.39,1.1 -0.55,1.68 -0.48,1.71 -0.93,3.34 -2.85,3.59 -0.87,0.11 -1.7,0.27 -2.39,0.51 -0.62,0.22 -1.12,0.5 -1.41,0.85 -0.25,0.32 -0.7,0.37 -1.01,0.12 -0.32,-0.26 -0.37,-0.71 -0.12,-1.02 0.48,-0.59 1.2,-1.01 2.06,-1.31 0.79,-0.28 1.72,-0.46 2.68,-0.59 0.97,-0.13 1.29,-1.3 1.64,-2.54 0.18,-0.63 0.36,-1.28 0.63,-1.88 0.78,-1.72 1.82,-3.72 1.82,-3.73z"/>
  <path class="fil1" d="M21.79 33.68c-0.23,0.33 -0.69,0.41 -1.01,0.18 -0.33,-0.23 -0.41,-0.69 -0.18,-1.01 0,-0.01 1.29,-1.82 2.09,-4.16 0.13,-0.38 0.55,-0.58 0.93,-0.45 0.17,0.05 0.3,0.17 0.39,0.32 0.11,0.15 0.24,0.29 0.39,0.39 0.14,0.09 0.29,0.15 0.47,0.18 0.97,0.13 1.89,0.31 2.68,0.59 0.87,0.3 1.59,0.72 2.06,1.31 0.25,0.31 0.2,0.77 -0.11,1.02 -0.31,0.25 -0.77,0.2 -1.02,-0.11 -0.29,-0.36 -0.79,-0.64 -1.4,-0.85 -0.7,-0.25 -1.52,-0.41 -2.4,-0.53 -0.38,-0.05 -0.72,-0.18 -1.01,-0.36 -0.85,2.02 -1.88,3.47 -1.88,3.48zm0.71 -26.98c0.23,-0.33 0.68,-0.42 1.01,-0.19 0.33,0.22 0.42,0.67 0.19,1.01 -0.01,0.01 -3.02,4.38 -2.7,7.83 0.15,1.66 0.95,3.01 1.76,4.35 0.88,1.49 1.77,2.98 1.96,4.97 0,0.01 0.17,2.06 1.43,2.22 0.96,0.13 1.88,0.31 2.68,0.59 0.86,0.3 1.58,0.72 2.05,1.31 0.25,0.31 0.2,0.77 -0.11,1.02 -0.31,0.25 -0.77,0.2 -1.02,-0.11 -0.28,-0.36 -0.78,-0.64 -1.4,-0.85 -0.69,-0.25 -1.52,-0.41 -2.39,-0.52 -2.42,-0.32 -2.69,-3.52 -2.69,-3.53 -0.15,-1.66 -0.95,-3.01 -1.76,-4.35 -0.88,-1.49 -1.77,-2.98 -1.96,-4.97 -0.37,-3.97 2.94,-8.77 2.95,-8.78z"/>
  <path class="fil1" d="M28.45 28.19c-0.14,0.37 -0.56,0.55 -0.94,0.41 -0.37,-0.15 -0.55,-0.57 -0.41,-0.94 0.36,-0.93 0.9,-1.71 1.59,-2.23 0.67,-0.52 1.47,-0.78 2.39,-0.7 0.4,0.03 0.7,0.38 0.66,0.78 -0.03,0.4 -0.38,0.7 -0.78,0.66 -0.54,-0.04 -1,0.11 -1.39,0.41 -0.47,0.36 -0.85,0.92 -1.12,1.61z"/>
  <path class="fil1" d="M15.96 27.88c-0.09,0.39 -0.48,0.63 -0.87,0.54 -0.39,-0.09 -0.63,-0.48 -0.54,-0.87 0.39,-1.65 1.54,-1.93 2.63,-2.21 0.58,-0.14 1.14,-0.28 1.27,-0.77 0.09,-0.39 0.49,-0.63 0.88,-0.53 0.39,0.1 0.62,0.49 0.52,0.88 -0.33,1.33 -1.31,1.58 -2.32,1.83 -0.68,0.17 -1.38,0.35 -1.57,1.13z"/>
  <path class="fil1" d="M24.76 14.59c0.38,0.13 0.59,0.54 0.46,0.92 -0.13,0.38 -0.54,0.59 -0.92,0.46 -0.61,-0.2 -1.05,0.22 -1.46,0.62 -0.67,0.66 -1.32,1.28 -2.51,0.9 -0.39,-0.12 -0.6,-0.52 -0.48,-0.91 0.13,-0.38 0.53,-0.59 0.91,-0.47 0.37,0.12 0.71,-0.21 1.07,-0.56 0.72,-0.7 1.48,-1.44 2.93,-0.96z"/>
  <path class="fil1" d="M13.69 15.54c0.11,0.39 -0.12,0.79 -0.51,0.89 -0.39,0.11 -0.79,-0.12 -0.89,-0.51 -0.22,-0.82 -0.59,-1.4 -1.05,-1.75 -0.48,-0.37 -1.09,-0.51 -1.77,-0.45 -0.4,0.04 -0.75,-0.26 -0.79,-0.66 -0.03,-0.4 0.26,-0.75 0.66,-0.79 1.05,-0.09 2,0.15 2.78,0.74 0.71,0.55 1.26,1.39 1.57,2.53z"/>
 </g>
</svg>
