<?xml version="1.0" encoding="UTF-8"?>
<!DOCTYPE svg PUBLIC "-//W3C//DTD SVG 1.1//EN" "http://www.w3.org/Graphics/SVG/1.1/DTD/svg11.dtd">
<!-- Creator: CorelDRAW 2019 (64-Bit) -->
<svg xmlns="http://www.w3.org/2000/svg" xml:space="preserve" width="300px" height="300px" version="1.1" style="shape-rendering:geometricPrecision; text-rendering:geometricPrecision; image-rendering:optimizeQuality; fill-rule:evenodd; clip-rule:evenodd"
viewBox="0 0 95.45 95.45"
 xmlns:xlink="http://www.w3.org/1999/xlink">
 <defs>
  <style type="text/css">
   <![CDATA[
    .fil0 {fill:none}
    .fil2 {fill:#1F124E;fill-rule:nonzero}
    .fil1 {fill:#2E7AC5;fill-rule:nonzero}
   ]]>
  </style>
 </defs>
 <g id="Слой_x0020_1">
  <metadata id="CorelCorpID_0Corel-Layer"/>
  <rect class="fil0" width="95.45" height="95.45"/>
  <path class="fil1" d="M37.05 63.06c0,0.95 -0.77,1.72 -1.72,1.72 -0.95,0 -1.72,-0.77 -1.72,-1.72l0 -9.46c0,-1.6 0.66,-3.07 1.72,-4.12 1.05,-1.06 2.52,-1.72 4.12,-1.72 0.95,0 1.72,0.77 1.72,1.72 0,0.95 -0.77,1.72 -1.72,1.72 -0.66,0 -1.26,0.27 -1.69,0.71 -0.44,0.43 -0.71,1.04 -0.71,1.69l0 9.46zm18.95 -11.86c-0.95,0 -1.72,-0.77 -1.72,-1.72 0,-0.95 0.77,-1.72 1.72,-1.72 1.61,0 3.07,0.66 4.13,1.72 1.06,1.05 1.71,2.52 1.71,4.12l0 9.46c0,0.95 -0.77,1.72 -1.71,1.72 -0.95,0 -1.72,-0.77 -1.72,-1.72l0 -9.46c0,-0.65 -0.27,-1.26 -0.71,-1.69 -0.44,-0.44 -1.04,-0.71 -1.7,-0.71z"/>
  <path class="fil2" d="M38.58 53.96l0.08 -0.14c0.43,-0.82 0.75,-1.73 0.98,-2.67 0.25,-1.01 0.4,-2.03 0.49,-3.03l0 0 0.01 -0.09c-1.69,-1.33 -3.08,-3.07 -4.22,-5.16 -0.57,-1.05 -0.98,-2.38 -1.26,-3.77 -0.35,-1.74 -0.51,-3.59 -0.57,-5l0 -0.1 0.02 -1.48c0.02,-0.94 0.79,-1.7 1.74,-1.68 0.95,0.01 1.7,0.79 1.69,1.74l-0.03 1.41c0.06,1.27 0.2,2.92 0.51,4.44 0.22,1.08 0.51,2.08 0.91,2.81 1.01,1.85 2.24,3.34 3.73,4.41l0.12 0.09c0.07,0.04 0.14,0.08 0.2,0.13 1.35,0.89 2.92,1.46 4.75,1.68 1.82,-0.22 3.39,-0.79 4.74,-1.68 0.06,-0.05 0.13,-0.09 0.2,-0.13l0.12 -0.09c1.49,-1.07 2.73,-2.56 3.74,-4.41 0.39,-0.73 0.69,-1.73 0.9,-2.81 0.31,-1.52 0.46,-3.17 0.51,-4.44l-0.02 -1.41c-0.02,-0.95 0.74,-1.73 1.68,-1.74 0.95,-0.02 1.73,0.74 1.74,1.68l0.03 1.42c0,0.05 0,0.11 0,0.16 -0.06,1.41 -0.23,3.26 -0.58,5 -0.28,1.39 -0.68,2.72 -1.26,3.77 -1.13,2.09 -2.53,3.83 -4.21,5.16l0.01 0.09 -0.01 0c0.09,1 0.24,2.02 0.49,3.03 0.24,0.94 0.56,1.85 0.98,2.67l0.08 0.14c0.22,-0.08 0.45,-0.11 0.68,-0.1l0.68 0.04c4.18,0.25 7.79,1.83 10.37,4.25 2.67,2.51 4.25,5.9 4.25,9.65l0 9.86c0,0.95 -0.77,1.72 -1.72,1.72l-46.81 0c-0.94,0 -1.71,-0.77 -1.71,-1.72l0 -9.86c0,-3.74 1.57,-7.14 4.25,-9.65 2.58,-2.42 6.18,-4 10.36,-4.25l0.69 -0.04c0.23,-0.01 0.46,0.03 0.67,0.1zm3.05 1.57l-0.3 0.53 5.49 4.42c0.27,0.21 0.59,0.32 0.91,0.32 0.32,0 0.64,-0.11 0.9,-0.32l5.49 -4.42 -0.3 -0.53c-0.02,-0.03 -0.04,-0.07 -0.06,-0.11 -0.57,-1.09 -0.98,-2.26 -1.28,-3.45 -0.16,-0.67 -0.29,-1.35 -0.39,-2.03 -1.27,0.52 -2.65,0.87 -4.14,1.03 -0.13,0.02 -0.26,0.02 -0.4,0.01 -1.51,-0.16 -2.91,-0.51 -4.18,-1.04 -0.1,0.68 -0.23,1.36 -0.4,2.03 -0.29,1.19 -0.71,2.36 -1.28,3.45 -0.02,0.04 -0.04,0.08 -0.06,0.11zm-15.59 12.27l0 8.14 43.37 0 0 -8.14c0,-2.77 -1.17,-5.29 -3.16,-7.16 -2.02,-1.88 -4.87,-3.12 -8.21,-3.31l-0.03 -0.01 -7.23 5.83c-0.9,0.72 -1.98,1.08 -3.05,1.08 -1.08,0 -2.16,-0.36 -3.05,-1.08l-7.24 -5.83 -0.03 0.01c-3.34,0.19 -6.19,1.43 -8.2,3.31 -1.99,1.87 -3.17,4.39 -3.17,7.16z"/>
  <path class="fil2" d="M38.91 33.15l-2.44 0.99c-0.88,0.36 -1.88,-0.07 -2.24,-0.95 -0.08,-0.21 -0.12,-0.42 -0.12,-0.64l-0.01 0c0,-1.28 -0.09,-2.3 -0.17,-3.19 -0.33,-3.51 -0.51,-5.45 3.35,-7.23 0.75,-0.34 1.27,-1.15 1.8,-1.98 2.18,-3.39 4.45,-6.93 18.81,-0.69 3.77,1.64 3.64,5.86 3.51,10.52 -0.03,0.75 -0.05,1.52 -0.05,2.57 0,0.95 -0.77,1.72 -1.72,1.72 -0.26,0 -0.5,-0.06 -0.73,-0.16l-2.35 -0.96c-2.34,-0.94 -5.56,-1.42 -8.82,-1.42 -3.26,0 -6.49,0.48 -8.82,1.42zm-1.48 -3.1l0.19 -0.08c2.75,-1.12 6.44,-1.68 10.11,-1.68 3.66,0 7.35,0.56 10.11,1.68l0.13 0.05 0 -0.13c0.1,-3.45 0.2,-6.57 -1.45,-7.29 -11.68,-5.08 -13.15,-2.79 -14.55,-0.59 -0.8,1.24 -1.59,2.47 -3.26,3.24 -1.66,0.76 -1.56,1.84 -1.37,3.81 0.03,0.31 0.06,0.64 0.09,0.99z"/>
  <path class="fil1" d="M37.05 64.08c0,0.95 -0.77,1.72 -1.72,1.72 -0.95,0 -1.72,-0.77 -1.72,-1.72l0 -10.48c0,-0.94 0.77,-1.71 1.72,-1.71 0.95,0 1.72,0.77 1.72,1.71l0 10.48z"/>
  <path class="fil1" d="M35.33 62.36c1.54,0 2.93,0.62 3.93,1.63 1.01,1.01 1.64,2.4 1.64,3.94 0,1.53 -0.63,2.92 -1.64,3.93 -1,1.01 -2.39,1.63 -3.93,1.63 -1.54,0 -2.93,-0.62 -3.94,-1.63 -1,-1.01 -1.63,-2.4 -1.63,-3.93 0,-1.54 0.63,-2.93 1.63,-3.94 1.01,-1.01 2.4,-1.63 3.94,-1.63zm1.5 4.06c-0.38,-0.39 -0.91,-0.62 -1.5,-0.62 -0.59,0 -1.12,0.23 -1.51,0.62 -0.38,0.38 -0.62,0.92 -0.62,1.51 0,0.58 0.24,1.12 0.62,1.5 0.39,0.39 0.92,0.62 1.51,0.62 0.59,0 1.12,-0.23 1.5,-0.62 0.39,-0.38 0.63,-0.92 0.63,-1.5 0,-0.59 -0.24,-1.13 -0.63,-1.51z"/>
  <path class="fil1" d="M61.84 64.08c0,0.95 -0.77,1.72 -1.71,1.72 -0.95,0 -1.72,-0.77 -1.72,-1.72l0 -10.78c0,-0.95 0.77,-1.72 1.72,-1.72 0.94,0 1.71,0.77 1.71,1.72l0 10.78z"/>
  <path class="fil1" d="M56.21 77.66c0,0.95 -0.77,1.72 -1.72,1.72 -0.95,0 -1.72,-0.77 -1.72,-1.72l0 -9.46c0,-1.61 0.66,-3.07 1.71,-4.13 1.06,-1.05 2.52,-1.71 4.13,-1.71l3.03 0c1.61,0 3.07,0.66 4.13,1.71 1.06,1.06 1.71,2.52 1.71,4.13l0 9.46c0,0.95 -0.77,1.72 -1.72,1.72 -0.95,0 -1.71,-0.77 -1.71,-1.72l0 -9.46c0,-0.66 -0.28,-1.26 -0.71,-1.7 -0.44,-0.43 -1.04,-0.7 -1.7,-0.7l-3.03 0c-0.66,0 -1.26,0.27 -1.7,0.7 -0.43,0.44 -0.7,1.04 -0.7,1.7l0 9.46z"/>
 </g>
</svg>
