<?xml version="1.0" encoding="UTF-8"?>
<!DOCTYPE svg PUBLIC "-//W3C//DTD SVG 1.1//EN" "http://www.w3.org/Graphics/SVG/1.1/DTD/svg11.dtd">
<!-- Creator: CorelDRAW 2019 (64-Bit) -->
<svg xmlns="http://www.w3.org/2000/svg" xml:space="preserve" width="300px" height="300px" version="1.1" style="shape-rendering:geometricPrecision; text-rendering:geometricPrecision; image-rendering:optimizeQuality; fill-rule:evenodd; clip-rule:evenodd"
viewBox="0 0 261.84 261.84"
 xmlns:xlink="http://www.w3.org/1999/xlink">
 <defs>
  <style type="text/css">
   <![CDATA[
    .fil0 {fill:none}
    .fil2 {fill:#1F124E;fill-rule:nonzero}
    .fil1 {fill:#2E7AC5;fill-rule:nonzero}
   ]]>
  </style>
 </defs>
 <g id="Слой_x0020_1">
  <metadata id="CorelCorpID_0Corel-Layer"/>
  <rect class="fil0" width="261.84" height="261.84"/>
  <path class="fil1" d="M163.48 107.87c2.6,0 4.71,2.11 4.71,4.71 0,2.61 -2.11,4.72 -4.71,4.72l-11.72 0c-1.19,0 -2.26,0.48 -3.05,1.27 -0.78,0.78 -1.27,1.86 -1.27,3.04l0 52.81c0,2.61 -2.11,4.72 -4.71,4.72 -2.61,0 -4.72,-2.11 -4.72,-4.72l0 -52.81c0,-3.78 1.55,-7.22 4.04,-9.71 2.48,-2.49 5.92,-4.03 9.71,-4.03l11.72 0z"/>
  <path class="fil1" d="M163.48 83.11c2.6,0 4.71,2.11 4.71,4.71 0,2.6 -2.11,4.72 -4.71,4.72l-11.72 0c-3.79,0 -7.23,-1.55 -9.71,-4.04 -2.49,-2.49 -4.04,-5.92 -4.04,-9.71l0 -11.4c0,-2.61 2.11,-4.72 4.72,-4.72 2.6,0 4.71,2.11 4.71,4.72l0 11.4c0,1.18 0.49,2.26 1.27,3.05 0.79,0.78 1.86,1.27 3.05,1.27l11.72 0z"/>
  <path class="fil1" d="M98.36 117.3c-2.61,0 -4.72,-2.11 -4.72,-4.72 0,-2.6 2.11,-4.71 4.72,-4.71l11.72 0c3.78,0 7.22,1.54 9.71,4.03 2.49,2.49 4.03,5.93 4.03,9.71l0 52.81c0,2.61 -2.11,4.72 -4.71,4.72 -2.6,0 -4.72,-2.11 -4.72,-4.72l0 -52.81c0,-1.18 -0.48,-2.26 -1.27,-3.04 -0.78,-0.79 -1.86,-1.27 -3.04,-1.27l-11.72 0z"/>
  <path class="fil1" d="M98.36 92.54c-2.61,0 -4.72,-2.12 -4.72,-4.72 0,-2.6 2.11,-4.71 4.72,-4.71l11.72 0c1.19,0 2.27,-0.48 3.04,-1.26l0.02 -0.01c0.77,-0.78 1.25,-1.85 1.25,-3.05l0 -11.4c0,-2.61 2.12,-4.72 4.72,-4.72 2.6,0 4.71,2.11 4.71,4.72l0 11.4c0,3.76 -1.54,7.19 -4.02,9.68l-0.03 0.03c-2.5,2.49 -5.93,4.04 -9.69,4.04l-11.72 0z"/>
  <path class="fil2" d="M158.2 100.2c-0.15,-4.28 1.18,-6.29 2.64,-8.51 0.83,-1.26 1.75,-2.65 1.73,-5.86 -0.02,-3.26 -1.02,-5.42 -2.04,-7.62 -1.49,-3.24 -3.02,-6.55 -3.02,-12.51l-0.01 0 0 -0.02 0.01 0c0.01,-5.69 1.37,-11.96 5.16,-16.92 3.91,-5.12 10.18,-8.72 19.79,-8.71l0 -0.02 0.02 0 0 0.02c10.2,0 23.14,6.5 32.37,19.39 7.05,9.85 12.04,23.46 12.04,40.76 0,17.3 -4.99,30.92 -12.04,40.76 -9.23,12.9 -22.17,19.39 -32.37,19.4l0 0.02 -0.02 0 0 -0.02c-9.61,0 -15.88,-3.6 -19.79,-8.72 -3.79,-4.95 -5.15,-11.23 -5.16,-16.92l-0.01 0 0 -0.01 0.01 0c0,-5.97 1.53,-9.27 3.02,-12.52 1.02,-2.19 2.02,-4.36 2.04,-7.62 0.02,-3.21 -0.9,-4.6 -1.73,-5.86 -1.46,-2.22 -2.79,-4.23 -2.64,-8.51zm10.49 -3.32c-0.6,0.91 -1.15,1.74 -1.08,3.1 0,0.15 0,0.29 0,0.44 -0.07,1.36 0.48,2.19 1.08,3.1 1.57,2.38 3.31,5.02 3.27,11.09 -0.03,5.36 -1.45,8.42 -2.88,11.53 -1.08,2.33 -2.18,4.7 -2.17,8.57l0.01 0 0 0.01 -0.01 0c0,3.9 0.85,8.1 3.24,11.21 2.25,2.96 6.11,5.04 12.31,5.04l0 -0.02 0.02 0 0 0.02c7.52,-0.01 17.34,-5.2 24.71,-15.49 6.01,-8.4 10.27,-20.16 10.27,-35.28 0,-15.12 -4.26,-26.87 -10.27,-35.27 -7.37,-10.3 -17.19,-15.49 -24.71,-15.49l0 0.02 -0.02 0 0 -0.02c-6.2,0 -10.06,2.07 -12.31,5.03 -2.38,3.11 -3.24,7.31 -3.24,11.21l0.01 0 0 0.02 -0.01 0c-0.01,3.86 1.09,6.23 2.17,8.57 1.43,3.11 2.85,6.16 2.88,11.52 0.04,6.08 -1.7,8.71 -3.27,11.09z"/>
  <path class="fil2" d="M94.23 99.98c0.07,-1.36 -0.48,-2.19 -1.08,-3.1 -1.57,-2.38 -3.32,-5.01 -3.27,-11.09 0.03,-5.36 1.44,-8.41 2.88,-11.52 1.07,-2.34 2.17,-4.71 2.17,-8.57l-0.02 0 0 -0.02 0.02 0c0,-3.9 -0.86,-8.1 -3.24,-11.21 -2.26,-2.96 -6.11,-5.03 -12.31,-5.03l0 0.02 -0.02 0 0 -0.02c-7.52,0 -17.34,5.19 -24.71,15.49 -6.02,8.4 -10.27,20.15 -10.27,35.27 0,15.12 4.25,26.88 10.27,35.28 7.37,10.29 17.19,15.48 24.71,15.49l0 -0.02 0.02 0 0 0.02c6.2,0 10.05,-2.08 12.31,-5.04 2.38,-3.11 3.24,-7.31 3.24,-11.21l-0.02 0 0 -0.01 0.02 0c0,-3.87 -1.1,-6.24 -2.17,-8.57 -1.44,-3.11 -2.85,-6.17 -2.88,-11.53 -0.05,-6.07 1.7,-8.71 3.27,-11.09 0.6,-0.91 1.15,-1.73 1.08,-3.1 -0.01,-0.15 -0.01,-0.29 0,-0.44zm6.76 -8.29c1.47,2.22 2.8,4.23 2.64,8.51 0.16,4.28 -1.17,6.29 -2.64,8.51 -0.83,1.26 -1.74,2.65 -1.72,5.86 0.02,3.26 1.02,5.43 2.03,7.63 1.5,3.24 3.02,6.54 3.02,12.51l0.02 0 0 0.01 -0.02 0c0,5.69 -1.36,11.97 -5.15,16.92 -3.91,5.12 -10.18,8.72 -19.79,8.72l0 0.02 -0.02 0 0 -0.02c-10.21,-0.01 -23.15,-6.5 -32.37,-19.4 -7.05,-9.84 -12.04,-23.46 -12.04,-40.76 0,-17.3 4.99,-30.91 12.04,-40.76 9.23,-12.89 22.16,-19.39 32.37,-19.39l0 -0.02 0.02 0 0 0.02c9.61,-0.01 15.88,3.59 19.79,8.71 3.78,4.96 5.15,11.23 5.15,16.92l0.02 0 0 0.02 -0.02 0c0,5.96 -1.52,9.27 -3.02,12.51 -1.01,2.2 -2.01,4.36 -2.03,7.62 -0.02,3.21 0.89,4.6 1.72,5.86z"/>
  <path class="fil2" d="M84.5 96.22c-2.49,0.73 -5.1,-0.71 -5.82,-3.2 -0.72,-2.49 0.72,-5.1 3.21,-5.82 1.57,-0.46 3.19,-1.17 4.81,-2.19 1.53,-0.96 3.04,-2.19 4.51,-3.73 1.79,-1.88 4.77,-1.95 6.65,-0.16 1.88,1.79 1.95,4.76 0.16,6.64 -2.02,2.13 -4.15,3.84 -6.31,5.2 -2.38,1.5 -4.81,2.56 -7.21,3.26z"/>
  <path class="fil2" d="M81.89 113.2c-2.49,-0.72 -3.93,-3.33 -3.21,-5.82 0.72,-2.49 3.33,-3.92 5.82,-3.2 2.4,0.7 4.83,1.77 7.21,3.26 2.16,1.36 4.29,3.08 6.31,5.2 1.79,1.88 1.72,4.86 -0.16,6.65 -1.88,1.79 -4.86,1.71 -6.65,-0.17 -1.47,-1.54 -2.98,-2.76 -4.51,-3.72 -1.62,-1.02 -3.24,-1.74 -4.81,-2.2z"/>
  <path class="fil1" d="M130.92 171.47c15.48,0 29.58,1.44 39.88,3.78 12.22,2.77 19.77,7.46 19.77,13.4 0,5.37 -9.52,16.56 -24.27,24.2 -9.81,5.08 -22.07,8.96 -35.38,8.96 -13.32,0 -25.57,-3.88 -35.38,-8.96 -14.75,-7.64 -24.28,-18.83 -24.28,-24.2 0,-5.94 7.56,-10.63 19.78,-13.4 10.29,-2.34 24.4,-3.78 39.88,-3.78zm37.82 12.95c-9.59,-2.18 -22.96,-3.52 -37.82,-3.52 -14.87,0 -28.23,1.34 -37.82,3.52 -7.67,1.74 -12.41,3.29 -12.41,4.23 0,2.73 7.52,9.81 19.15,15.84 8.65,4.47 19.42,7.89 31.08,7.89 11.66,0 22.43,-3.42 31.07,-7.89 11.64,-6.03 19.16,-13.11 19.16,-15.84 0,-0.94 -4.75,-2.49 -12.41,-4.23z"/>
  <path class="fil2" d="M179.95 87.2c2.49,0.72 3.92,3.33 3.2,5.82 -0.72,2.49 -3.32,3.93 -5.82,3.2 -2.4,-0.7 -4.83,-1.76 -7.21,-3.26 -2.16,-1.36 -4.28,-3.07 -6.31,-5.2 -1.79,-1.88 -1.71,-4.85 0.17,-6.64 1.88,-1.79 4.86,-1.72 6.65,0.16 1.46,1.54 2.98,2.77 4.5,3.73 1.62,1.02 3.24,1.73 4.82,2.19z"/>
  <path class="fil2" d="M177.33 104.18c2.5,-0.72 5.1,0.71 5.82,3.2 0.72,2.49 -0.71,5.1 -3.2,5.82 -1.58,0.46 -3.2,1.18 -4.82,2.2 -1.52,0.96 -3.04,2.18 -4.5,3.72 -1.79,1.88 -4.77,1.96 -6.65,0.17 -1.88,-1.79 -1.96,-4.77 -0.17,-6.65 2.03,-2.12 4.15,-3.84 6.31,-5.2 2.38,-1.49 4.81,-2.56 7.21,-3.26z"/>
 </g>
</svg>
