<svg xmlns="http://www.w3.org/2000/svg" x="0px" y="0px" viewBox="0 0 390.1 132.2" style="enable-background:new 0 0 390.1 132.2;" xml:space="preserve"><style type="text/css">.st0{fill:#1F114D;}.st1{fill:#FFFFFF;}</style><g><g><path class="st0" d="M24.9,131l1.7-3.1c0.6,0.4,1.3,0.5,1.8,0.5c0.4,0,0.9-0.1,1.4-0.7l-6.1-11.6h4.8l3.6,7.4l3.4-7.4h4.7l-6.1,12 c-1.4,2.8-2.9,3.9-5.3,3.9C27.1,132.1,25.9,131.7,24.9,131z"/><path class="st0" d="M43.7,116.2H48v5.9h5.6v-5.9H58v15.7h-4.3v-6H48v6h-4.3V116.2z"/><path class="st0" d="M63.1,116.2h4.4v15.7h-4.4V116.2z"/><path class="st0" d="M72.5,116.2h8c2,0,3.4,0.5,4.3,1.4c0.6,0.6,1,1.5,1,2.6c0,1.8-1,2.9-2.4,3.5c1.9,0.6,3.1,1.7,3.1,3.9 c0,2.7-2.2,4.3-5.9,4.3h-8.1V116.2z M79.5,122.4c1.3,0,2.1-0.4,2.1-1.4c0-0.9-0.7-1.3-2-1.3h-2.8v2.8H79.5z M80.1,128.4 c1.3,0,2.1-0.5,2.1-1.5c0-0.9-0.7-1.4-2.1-1.4h-3.3v2.9H80.1z"/><path class="st0" d="M90.8,116.2h12.6v3.7h-8.3v2.4h7.5v3.4h-7.5v2.5h8.4v3.7H90.8V116.2z"/><path class="st0" d="M108,116.2h6.7c4,0,6.5,2,6.5,5.6c0,3.7-2.8,5.6-6.7,5.6h-2.2v4.5H108V116.2z M114.4,124 c1.5,0,2.5-0.8,2.5-2.1c0-1.3-0.9-2.1-2.5-2.1h-2v4.1H114.4z"/><path class="st0" d="M124.8,124c0-4.6,3.5-8.2,8.3-8.2c3.2,0,5.2,1.4,6.6,3.3l-3.2,2.5c-0.9-1.1-2-1.8-3.5-1.8 c-2.2,0-3.7,1.9-3.7,4.2c0,2.4,1.5,4.2,3.7,4.2c1.6,0,2.6-0.8,3.5-1.9l3.3,2.3c-1.5,2-3.5,3.5-6.9,3.5 C128.4,132.2,124.8,128.8,124.8,124z"/><path class="st0" d="M148.7,116.1h4.2l6.7,15.8h-4.7l-1.1-2.8h-6.1l-1.1,2.8H142L148.7,116.1z M152.5,125.7l-1.7-4.5l-1.8,4.5 H152.5z"/><path class="st0" d="M161.6,131.7l0.3-3.3c0.2,0,0.8,0.1,1,0.1c1.2,0,2.4-0.6,2.4-10.1v-2.2h12.1v15.7H173V120h-3.7v0.6 c0,9.6-2.1,11.5-5.2,11.5C163.1,132.1,161.9,131.9,161.6,131.7z"/><path class="st0" d="M182.4,116.2h4.3v4.9h2.4c3.8,0,6.5,1.8,6.5,5.3c0,3.4-2.5,5.4-6.3,5.4h-6.9V116.2z M189,128.2 c1.4,0,2.3-0.7,2.3-1.9c0-1.1-0.9-1.8-2.3-1.8h-2.3v3.7H189z"/><path class="st0" d="M199.7,116.2h4.3v5.9h5.6v-5.9h4.3v15.7h-4.3v-6H204v6h-4.3V116.2z"/><path class="st0" d="M224.4,116.1h4.2l6.7,15.8h-4.7l-1.1-2.8h-6.1l-1.1,2.8h-4.6L224.4,116.1z M228.2,125.7l-1.7-4.5l-1.8,4.5 H228.2z"/><path class="st0" d="M245.8,131.7l0.3-3.3c0.2,0,0.8,0.1,1,0.1c1.2,0,2.4-0.6,2.4-10.1v-2.2h12.1v15.7h-4.3V120h-3.7v0.6 c0,9.6-2.1,11.5-5.2,11.5C247.3,132.1,246.1,131.9,245.8,131.7z"/><path class="st0" d="M266.7,116.2h4.4v15.7h-4.4V116.2z"/><path class="st0" d="M276.1,116.2h4.3v6.4l5.4-6.4h5.2l-5.9,6.7l6.1,8.9H286l-3.9-5.8l-1.6,1.8v4.1h-4.3V116.2z"/><path class="st0" d="M300.2,116.1h4.2l6.7,15.8h-4.7l-1.1-2.8h-6.1l-1.1,2.8h-4.6L300.2,116.1z M304,125.7l-1.7-4.5l-1.8,4.5H304z"/><path class="st0" d="M314.8,116.2h6.7c4,0,6.5,2,6.5,5.6c0,3.7-2.8,5.6-6.7,5.6h-2.2v4.5h-4.3V116.2z M321.2,124 c1.5,0,2.5-0.8,2.5-2.1c0-1.3-0.9-2.1-2.5-2.1h-2v4.1H321.2z"/><path class="st0" d="M332.1,116.2h4.3v5.9h5.6v-5.9h4.3v15.7H342v-6h-5.6v6h-4.3V116.2z"/><path class="st0" d="M354.4,126.4c-2-0.8-3.2-2.4-3.2-4.9c0-3.7,2.9-5.4,6.5-5.4h7.4v15.7h-4.3v-4.8h-1.9l-3.2,4.8h-5L354.4,126.4 z M360.8,123.8v-3.9h-2.8c-1.5,0-2.4,0.7-2.4,2c0,1.1,0.9,1.9,2.3,1.9H360.8z"/></g><rect class="st0" width="390.1" height="98.7"/><g><path class="st1" d="M77.8,54.5c0,15.1-10,22.9-27.1,22.9s-27.2-7.8-27.2-22.9V21.9h17.5v32.3c0,5.9,3.2,10.1,9.6,10.1 s9.7-4.2,9.7-10.1V21.9h17.5V54.5z"/><path class="st1" d="M151.8,76.4h-15.3L113.6,50v26.5H97.5V21.9h15.3l22.9,26.9V21.9h16.1V76.4z"/><path class="st1" d="M189.7,76.4h-17.5V21.9h17.5V76.4z"/><path class="st1" d="M210.2,76.4V21.9h17.5v40.6h28v13.9H210.2z"/><path class="st1" d="M289.3,76.4h-17.5V21.9h17.5V76.4z"/><path class="st1" d="M327.2,45.2l19.4-23.3h21.7l-19.6,22.4l20,32.1h-20.7l-11.3-20l-9.5,7.8v12.2h-17.5V21.9h17.5V45.2z"/></g></g></svg>