<svg xmlns="http://www.w3.org/2000/svg" viewBox="0 0 390.08 271.92"><defs><style>.cls-1{isolation:isolate;}.cls-2{fill:#1f114d;}.cls-3{fill:#f49600;}.cls-4{opacity:0.83;mix-blend-mode:multiply;fill:url(#linear-gradient);}</style><linearGradient id="linear-gradient" x1="20.94" y1="66.73" x2="390.08" y2="66.73" gradientUnits="userSpaceOnUse"><stop offset="0" stop-color="#e6007e"/><stop offset="1" stop-color="#e30613"/></linearGradient></defs><g class="cls-1"><g id="Layer_2" data-name="Layer 2"><g id="Layer_1-2" data-name="Layer 1"><path class="cls-2" d="M1.49,270.61,3.43,267a3.8,3.8,0,0,0,2,.61A2,2,0,0,0,7,266.88L0,253.64H5.53l4.07,8.42,3.84-8.42h5.4l-7,13.67c-1.63,3.2-3.3,4.51-6.06,4.51A8.11,8.11,0,0,1,1.49,270.61Z"/><path class="cls-2" d="M23,253.64h5v6.71h6.37v-6.71h5v17.92h-5v-6.81H28v6.81H23Z"/><path class="cls-2" d="M45.12,253.64h5v17.92h-5Z"/><path class="cls-2" d="M56,253.64h9.19A6.61,6.61,0,0,1,70,255.25a4,4,0,0,1,1.15,2.95,4.15,4.15,0,0,1-2.77,4c2.18.72,3.56,1.95,3.56,4.43,0,3.07-2.51,4.94-6.78,4.94H56Zm8,7.14c1.51,0,2.35-.51,2.35-1.61s-.77-1.54-2.25-1.54H60.78v3.15Zm.71,6.79c1.51,0,2.38-.59,2.38-1.69s-.76-1.62-2.43-1.62H60.78v3.31Z"/><path class="cls-2" d="M76.8,253.64H91.21v4.23H81.72v2.71h8.6v3.92h-8.6v2.84h9.62v4.22H76.8Z"/><path class="cls-2" d="M96.43,253.64h7.68c4.53,0,7.45,2.33,7.45,6.35,0,4.22-3.25,6.45-7.71,6.45H101.4v5.12h-5Zm7.32,8.91c1.77,0,2.84-.92,2.84-2.38s-1.07-2.36-2.86-2.36H101.4v4.74Z"/><path class="cls-2" d="M115.6,262.6a9.21,9.21,0,0,1,9.45-9.32,8.65,8.65,0,0,1,7.52,3.79l-3.63,2.82a4.84,4.84,0,0,0-3.94-2.08c-2.51,0-4.28,2.13-4.28,4.79s1.77,4.79,4.28,4.79a4.9,4.9,0,0,0,4-2.18l3.74,2.66a9.43,9.43,0,0,1-17.18-5.27Z"/><path class="cls-2" d="M142.88,253.51h4.79l7.63,18.05H150l-1.3-3.2h-6.91l-1.28,3.2h-5.23Zm4.35,11-2-5.1-2,5.1Z"/><path class="cls-2" d="M157.65,271.41l.33-3.82a9,9,0,0,0,1.15.11c1.41,0,2.74-.72,2.74-11.57v-2.49h13.77v17.92h-5V258H166.5v.69c0,10.93-2.4,13.14-5.88,13.14A11.16,11.16,0,0,1,157.65,271.41Z"/><path class="cls-2" d="M181.37,253.64h5v5.63h2.71c4.3,0,7.45,2.05,7.45,6.1,0,3.86-2.82,6.19-7.19,6.19h-7.94Zm7.55,13.75c1.64,0,2.61-.74,2.61-2.15s-1-2.08-2.58-2.08h-2.61v4.23Z"/><path class="cls-2" d="M201.15,253.64h5v6.71h6.37v-6.71h5v17.92h-5v-6.81h-6.37v6.81h-5Z"/><path class="cls-2" d="M229.38,253.51h4.79l7.63,18.05h-5.33l-1.3-3.2h-6.91l-1.28,3.2h-5.23Zm4.35,11-2-5.1-2,5.1Z"/><path class="cls-2" d="M253.79,271.41l.34-3.82a9,9,0,0,0,1.15.11c1.41,0,2.74-.72,2.74-11.57v-2.49h13.77v17.92h-5V258h-4.17v.69c0,10.93-2.4,13.14-5.89,13.14A11.31,11.31,0,0,1,253.79,271.41Z"/><path class="cls-2" d="M277.62,253.64h5v17.92h-5Z"/><path class="cls-2" d="M288.45,253.64h5v7.27l6.17-7.27h5.89l-6.78,7.71,7,10.21h-6l-4.51-6.65-1.82,2v4.63h-5Z"/><path class="cls-2" d="M315.88,253.51h4.79l7.63,18.05H323l-1.3-3.2h-6.91l-1.28,3.2h-5.23Zm4.35,11-2-5.1-2,5.1Z"/><path class="cls-2" d="M332.59,253.64h7.68c4.53,0,7.45,2.33,7.45,6.35,0,4.22-3.25,6.45-7.7,6.45h-2.46v5.12h-5Zm7.32,8.91c1.77,0,2.85-.92,2.85-2.38s-1.08-2.36-2.87-2.36h-2.33v4.74Z"/><path class="cls-2" d="M352.38,253.64h5v6.71h6.38v-6.71h5v17.92h-5v-6.81h-6.38v6.81h-5Z"/><path class="cls-2" d="M377.87,265.32a5.7,5.7,0,0,1-3.69-5.56c0-4.2,3.35-6.12,7.42-6.12h8.48v17.92h-5v-5.43h-2.18l-3.6,5.43h-5.74Zm7.24-3v-4.45h-3.25c-1.66,0-2.69.79-2.69,2.25,0,1.3,1,2.2,2.66,2.2Z"/><path class="cls-2" d="M61.34,195.2c0,17-11.28,25.88-30.63,25.88S0,212.21,0,195.2V158.39H19.79v36.54c0,6.63,3.58,11.37,10.83,11.37s10.93-4.74,10.93-11.37V158.39H61.34Z"/><path class="cls-2" d="M144.89,220H127.61l-25.88-29.91V220H83.55V158.39h17.28l25.88,30.36V158.39h18.18Z"/><path class="cls-2" d="M187.79,220H168V158.39h19.79Z"/><path class="cls-2" d="M210.89,220V158.39h19.79v45.85h31.61V220Z"/><path class="cls-2" d="M300.26,220H280.47V158.39h19.79Z"/><path class="cls-2" d="M343.15,184.72l21.94-26.33h24.54l-22.12,25.35L390.08,220H366.71L353.9,197.44l-10.75,8.77V220H323.36V158.39h19.79Z"/><path class="cls-3" d="M216.61,0C181.37,0,106.23,33.47,66,41.92S-8,44.8,1.69,66.73s63.63-.14,63.63,7S23.77,80.87,29,99.7s58.44-6.49,72.72,0,42,3.9,69.07-14.28,54.3-33.77,86.76-15.59S347.88.07,216.61,0Z"/><path class="cls-4" d="M21.17,9.45c2.69-16.67,42.2-7.14,76.62-2.6s54.76,11.69,95.55,2.6,59.63,0,107,19.48,92.2,3.25,89.6,52.59-74.67,67.53-136.35,37S132.2,38,90.64,34.77,17.92,29.58,21.17,9.45Z"/></g></g></g></svg>