<?xml version="1.0" encoding="UTF-8"?>
<!DOCTYPE svg PUBLIC "-//W3C//DTD SVG 1.1//EN" "http://www.w3.org/Graphics/SVG/1.1/DTD/svg11.dtd">
<!-- Creator: CorelDRAW 2020 (64-Bit) -->
<svg xmlns="http://www.w3.org/2000/svg" xml:space="preserve" width="42.3332mm" height="42.3332mm" version="1.1" style="shape-rendering:geometricPrecision; text-rendering:geometricPrecision; image-rendering:optimizeQuality; fill-rule:evenodd; clip-rule:evenodd"
viewBox="0 0 4233.32 4233.32"
 xmlns:xlink="http://www.w3.org/1999/xlink"
 xmlns:xodm="http://www.corel.com/coreldraw/odm/2003">
 <defs>
  <style type="text/css">
   <![CDATA[
    .fil0 {fill:none}
    .fil1 {fill:#EF7F1A;fill-rule:nonzero}
   ]]>
  </style>
 </defs>
 <g id="Слой_x0020_1">
  <metadata id="CorelCorpID_0Corel-Layer"/>
  <rect class="fil0" x="237.06" y="237.06" width="3759.2" height="3759.2"/>
  <path class="fil1" d="M1082.88 2401.32c-76.95,-149.82 -96.7,-279.21 -76.95,-395.67 21.11,-121.22 84.44,-224.05 173.66,-316.67 25.87,-27.24 68.1,-27.92 95.34,-2.04 26.56,25.88 27.24,68.78 1.36,95.34 -70.83,74.23 -121.22,154.59 -136.88,246.53 -8.18,47.67 -7.5,99.42 5.44,155.95 22.47,-45.63 52.44,-89.9 89.21,-126.67 25.88,-26.56 68.78,-26.56 95.34,-0.68 26.56,26.56 26.56,69.46 0,95.34 -29.28,29.96 -53.11,67.42 -70.14,105.55 -23.16,50.4 -36.09,101.47 -40.18,137.57 -8.18,70.15 -1.36,132.8 17.71,190.69 19.06,59.93 51.07,117.13 91.93,175.02 12.94,18.38 27.24,36.77 44.27,55.16 14.98,17.02 30.65,32.68 46.99,46.99 1.36,1.36 2.72,2.04 4.09,3.4 63.33,57.89 123.26,119.86 183.19,181.15 132.8,136.89 264.91,272.41 431.08,365.71l0 0 2.04 1.36c14.98,9.54 30.65,14.3 45.63,15.66 15.66,1.37 32.69,-1.36 49.71,-6.12 34.05,-9.54 65.38,-25.2 95.34,-43.59 30.65,-19.07 60.61,-42.22 88.53,-67.42 22.48,-20.43 43.59,-41.55 62.66,-63.34 19.06,-21.11 38.13,-44.94 55.84,-70.14 31.33,-42.9 57.89,-86.49 81.72,-131.43 23.15,-45.63 42.9,-92.62 59.93,-142.34 21.11,-62.65 34.73,-127.35 38.14,-191.36 3.4,-62.65 -3.41,-125.99 -23.84,-186.6 -1.36,-4.77 -4.09,-12.25 -8.18,-21.11 -12.93,-32.01 -29.96,-73.55 -27.92,-106.24l0 -4.09c1.37,-11.57 4.09,-21.11 8.85,-29.96l0 0c4.77,-8.17 8.85,-14.98 14.31,-20.43l0 0c31.32,-36.09 59.93,-74.91 80.36,-116.45 18.38,-38.14 30.64,-78.32 33.37,-120.55 -0.69,-2.72 -0.69,-5.44 0,-8.17 2.04,-23.15 0,-44.94 -4.77,-65.38 -5.45,-22.47 -14.31,-44.26 -25.2,-66.05 -17.02,-33.37 -3.4,-74.23 29.97,-90.58 33.37,-16.34 74.23,-3.4 90.57,29.97 14.98,30.64 27.24,61.97 35.41,95.34 8.18,34.73 12.26,70.82 8.85,108.28l-0.68 2.04c-2.72,63.33 -20.43,121.22 -46.31,174.34 -23.15,46.99 -53.8,90.57 -86.48,130.75 3.4,8.86 9.53,23.16 14.3,35.42 4.77,11.58 8.85,21.79 11.58,29.96 26.56,78.31 35.41,157.32 30.64,236.31 -4.08,76.96 -20.43,153.23 -44.94,226.78 -19.07,57.21 -41.54,110.33 -68.1,162.08 -26.56,51.76 -57.21,100.79 -91.94,148.46 -19.75,27.24 -40.86,53.8 -64.7,81.04 -23.15,26.56 -47.67,51.08 -72.87,73.55 -32.68,29.29 -68.78,57.89 -108.28,82.4 -40.18,24.52 -83.08,45.63 -128.71,58.57 -32,8.85 -64.69,13.62 -98.74,10.9 -34.05,-3.41 -68.1,-13.62 -102.15,-34.05l0 0c-182.51,-102.84 -321.44,-245.85 -461.73,-388.86 -57.89,-59.93 -116.45,-119.18 -177.75,-176.39l-0.68 -0.68c-21.79,-19.06 -42.22,-38.81 -59.93,-59.25 -18.38,-19.74 -36.09,-42.9 -53.12,-67.42 -49.03,-68.78 -87.17,-137.56 -111,-211.79 -22.48,-70.15 -32.01,-143.7 -25.2,-226.1l0.01 0.01z"/>
  <path class="fil1" d="M3170.19 1750.27c22.47,11.58 32,39.5 20.43,61.97 -11.58,22.48 -39.5,32.01 -61.97,20.44 -0.68,-0.69 -168.89,-87.86 -438.57,-53.81 -218.61,27.25 -371.15,115.78 -423.6,149.83 2.04,49.71 3.41,162.76 -12.25,257.42 34.05,5.45 68.1,14.98 102.15,29.97 51.08,23.15 100.79,58.56 147.1,109.64 17.02,19.07 15.66,48.35 -3.41,64.7 -19.06,17.03 -47.67,15.66 -64.7,-3.41 -37.45,-40.86 -76.95,-69.46 -116.45,-87.17 -39.5,-17.7 -79.68,-25.87 -119.86,-27.24 -4.77,0 -8.85,-0.68 -12.94,-2.04 -24.52,-6.81 -38.81,-32.01 -32,-56.52 31.33,-111.69 19.75,-305.78 19.75,-306.46 -0.69,-14.98 5.44,-29.97 18.38,-39.5 0.68,0 190,-143.01 486.25,-180.47 298.28,-37.46 491.01,62.65 491.69,62.65z"/>
  <path class="fil1" d="M2164.33 2256.95c-17.02,-18.39 -15.66,-47.67 3.41,-64.7 18.38,-17.02 47.67,-15.66 64.7,3.41 54.48,60.61 89.21,127.35 108.28,199.53 18.38,70.15 21.79,145.06 12.93,223.38 -8.85,75.59 -25.87,154.59 -61.29,247.21 -34.73,90.57 -87.17,194.76 -167.53,322.12 -13.62,21.79 -41.54,27.92 -63.33,14.3 -21.12,-12.94 -27.93,-41.55 -14.31,-62.65 76.28,-121.9 126.67,-220.65 159.36,-306.46 32.01,-84.45 47.67,-156.63 55.84,-225.42 7.49,-66.74 4.77,-130.75 -10.21,-189.32 -15.67,-57.89 -43.59,-111.68 -87.86,-161.4l0.01 0z"/>
  <path class="fil1" d="M2274.66 2581.11c17.71,-18.39 46.99,-18.39 65.37,-0.68 17.71,17.71 18.39,46.31 0.69,64.7 -0.69,0.68 -183.2,189.32 -431.08,273.08 -23.84,8.18 -50.4,-4.77 -57.89,-28.6 -8.18,-24.52 4.77,-50.39 28.6,-58.56 226.78,-76.28 394.3,-249.25 394.3,-249.94l0.01 0z"/>
  <path class="fil1" d="M2222.9 2829.68c-11.58,-22.47 -2.73,-50.39 20.43,-61.97 22.47,-11.58 49.71,-2.72 61.29,19.75 0.68,0.68 69.47,130.08 58.57,295.56 -1.37,25.2 -23.16,44.27 -48.35,42.91 -25.2,-1.37 -44.27,-23.16 -42.91,-48.35 8.86,-140.29 -48.35,-247.21 -49.03,-247.89l0 -0.01z"/>
  <path class="fil1" d="M3185.17 1541.88c23.16,10.22 34.05,36.78 24.52,60.62 -9.53,23.15 -36.77,34.05 -59.93,24.51 -179.1,-74.23 -349.36,-99.42 -512.8,-86.48 -163.45,13.62 -320.08,65.37 -472.63,145.73 -19.75,10.9 -44.26,4.77 -57.2,-12.25 -10.9,-12.94 -22.48,-30.65 -36.78,-53.12 -40.18,-62.66 -107.6,-166.17 -225.41,-262.19 26.56,-23.16 55.16,-40.18 84.44,-49.72 111.69,97.39 177.75,199.54 217.93,262.87l10.21 14.98c151.87,-75.59 308.5,-124.62 472.63,-137.56 177.06,-14.31 360.94,12.94 555.02,92.61zm-1579.95 -324.84c-103.52,-41.55 -226.78,-72.19 -375.92,-82.4 -25.2,-1.37 -44.95,-23.84 -42.9,-49.04 1.36,-25.19 23.15,-44.26 49.03,-42.9 177.74,12.26 322.8,51.76 440.62,104.2 -25.2,21.11 -49.04,44.27 -70.83,70.14l0 0z"/>
  <path class="fil1" d="M1664.47 2227.67c-24.52,6.13 -49.72,-8.18 -55.85,-32.69 -6.81,-24.52 7.5,-49.71 32.01,-56.52 61.29,-16.35 112.37,-25.2 159.36,-34.06 19.06,-3.4 37.45,-6.13 55.16,-9.53 2.72,-15.66 4.08,-31.33 5.44,-46.99 9.54,-125.31 -17.02,-271.72 -101.46,-398.39 -15.67,-23.16 -32.69,-45.63 -52.44,-67.42 10.9,-33.37 23.83,-64.02 38.14,-92.62 35.41,34.05 65.37,70.82 90.57,108.96 97.39,145.74 128.04,313.27 117.14,456.28 -2.72,29.28 -6.13,57.89 -12.26,85.12 -2.72,18.39 -15.66,33.37 -34.73,38.14 -29.97,6.81 -58.57,11.58 -89.9,17.71 -44.94,7.49 -93.98,16.35 -151.18,32.01zm-185.92 -805.64c-51.08,-21.79 -108.28,-40.18 -172.3,-53.8 -46.99,-9.54 -98.74,-17.03 -153.91,-21.12 -25.19,-2.04 -44.26,-23.83 -42.22,-49.03 2.04,-25.2 23.84,-44.27 49.03,-42.9 59.25,4.77 114.42,12.25 166.17,23.15 71.51,14.98 136.2,36.09 194.09,61.29 -14.98,25.88 -28.6,53.81 -40.86,82.41z"/>
  <path class="fil1" d="M1611.35 1951.86c5.44,36.77 -20.43,71.51 -57.21,76.95 -36.77,4.77 -71.51,-20.43 -76.95,-57.2 -3.41,-24.52 -6.13,-49.04 -7.5,-73.55 -2.04,-25.88 -2.72,-50.4 -2.72,-74.24 0,-196.13 55.16,-374.55 145.05,-505.31 93.99,-137.57 227.47,-222.69 375.92,-222.69 72.87,0 143.7,21.11 208.39,59.93 62.66,38.14 119.86,92.62 168.21,162.76 21.12,30.65 12.94,72.87 -17.71,93.98 -30.64,21.12 -72.18,13.62 -93.29,-17.02 -37.46,-53.8 -80.37,-95.34 -126.67,-123.95 -44.27,-25.88 -91.26,-40.18 -138.93,-40.18 -101.47,0 -195.45,62.65 -264.91,164.13 -74.91,108.28 -121.23,259.46 -121.23,428.35 0,22.48 1.37,43.59 2.73,64.7 1.36,21.12 3.4,42.22 6.81,63.34l0.01 0z"/>
  <path class="fil1" d="M1934.15 758.72c-12.94,-34.74 4.77,-73.55 39.5,-87.17 34.73,-12.94 74.23,4.08 87.17,39.49 0,0.69 99.43,249.94 -52.44,491.01 -19.75,31.33 -61.29,40.87 -92.62,21.12 -31.33,-19.75 -40.86,-61.97 -21.11,-93.3 114.41,-182.51 40.18,-370.48 39.5,-371.15z"/>
  <path class="fil1" d="M2416.31 759.4c9.53,-36.09 46.99,-57.21 83.08,-46.99 36.09,9.53 57.21,46.99 47.67,82.4 0,1.36 -63.33,241.76 -353.44,467.18 -29.29,22.47 -72.19,17.71 -94.67,-12.26 -23.15,-29.28 -17.71,-71.51 11.58,-94.66 254.02,-197.5 305.78,-394.99 305.78,-395.67z"/>
 </g>
</svg>
