<?xml version="1.0" encoding="UTF-8"?>
<!DOCTYPE svg PUBLIC "-//W3C//DTD SVG 1.1//EN" "http://www.w3.org/Graphics/SVG/1.1/DTD/svg11.dtd">
<!-- Creator: CorelDRAW 2020 (64-Bit) -->
<svg xmlns="http://www.w3.org/2000/svg" xml:space="preserve" width="84.6666mm" height="84.6666mm" version="1.1" style="shape-rendering:geometricPrecision; text-rendering:geometricPrecision; image-rendering:optimizeQuality; fill-rule:evenodd; clip-rule:evenodd"
viewBox="0 0 8466.66 8466.66"
 xmlns:xlink="http://www.w3.org/1999/xlink"
 xmlns:xodm="http://www.corel.com/coreldraw/odm/2003">
 <defs>
  <style type="text/css">
   <![CDATA[
    .fil0 {fill:none}
    .fil1 {fill:#EF7F1A;fill-rule:nonzero}
   ]]>
  </style>
 </defs>
 <g id="Слой_x0020_1">
  <metadata id="CorelCorpID_0Corel-Layer"/>
  <polygon class="fil0" points="660.91,8202.08 8202.08,8202.08 8202.08,668.57 660.91,668.57 "/>
  <path class="fil1" d="M4233.75 2500.72c-54.05,0 -97.3,-43.24 -97.3,-97.3 0,-54.05 43.24,-97.3 97.3,-97.3 155.51,0 289.39,-4.16 416.63,-11.64 128.06,-7.48 251.14,-18.29 382.53,-31.6l177.96 -26.61c53.22,-8.32 102.29,28.27 110.6,81.5 3.33,24.95 -2.49,49.9 -15.8,69.02 -150.52,242.82 -153.01,293.55 -164.65,570.47l-0.83 22.45c5.82,141.37 -2.49,264.44 -30.77,382.53 -29.11,121.41 -79,234.51 -158,354.26l-3.33 4.16c-38.25,53.22 -69.02,92.31 -96.46,127.23 -121.41,156.34 -182.95,235.34 -196.25,495.63 0.83,106.44 2.49,213.72 5.82,322.66 3.33,106.44 8.32,214.55 15.8,325.98 3.33,53.22 -37.42,99.79 -90.64,103.12 -53.22,3.33 -99.79,-37.42 -103.12,-90.64 -6.65,-107.27 -11.64,-218.71 -14.97,-332.63 -3.33,-108.11 -5.82,-217.04 -6.65,-326.81 0,-3.33 0,-6.65 0,-9.98 16.63,-323.49 90.64,-418.29 237,-606.23 29.11,-38.25 62.37,-80.66 92.31,-121.41 65.7,-99.79 107.27,-192.93 130.56,-290.22 24.12,-99.79 29.94,-207.07 24.95,-333.47l0 -7.48 0.83 -26.61c10.81,-244.49 14.14,-336.79 93.97,-492.3 -131.39,12.47 -253.63,23.28 -380.87,30.77 -134.72,8.32 -272.76,12.47 -426.6,12.47l-0.02 -0.02z"/>
  <path class="fil1" d="M5784.66 2474.94c24.12,214.55 98.96,398.33 193.76,543.03 120.58,182.12 266.94,298.54 379.2,332.63 107.27,33.26 202.08,39.92 284.4,26.61 95.63,-15.8 176.3,-61.54 240.33,-127.23l0 0c68.19,-69.85 119.75,-162.99 151.35,-267.77 43.24,-139.71 53.22,-300.2 27.44,-458.2 -14.14,-63.2 -41.58,-122.24 -79,-175.46 -38.25,-54.88 -88.15,-102.29 -145.53,-138.88 -42.41,-27.44 -93.97,-48.23 -149.69,-63.2 -66.53,-18.29 -136.38,-27.44 -198.75,-29.94 -97.3,-2.49 -202.08,9.15 -306.02,19.96l-9.15 0.83c-27.44,3.33 -69.02,14.14 -112.26,24.95 -47.4,11.64 -96.46,24.12 -148.02,32.43l-64.86 123.07 -4.16 7.48c-13.31,24.12 -24.95,50.73 -35.76,79.83 -8.32,22.45 -16.63,45.74 -23.28,69.85l0 0.01zm-44.08 699.36c-9.15,-14.14 -18.29,-28.27 -26.61,-42.41 -5.82,65.7 -13.31,132.22 -24.12,197.92 -20.79,127.23 -54.05,252.8 -110.6,375.88 -11.64,28.27 -23.28,54.05 -37.42,79 -14.14,25.78 -29.94,51.56 -47.4,77.34 -46.57,65.7 -94.8,118.09 -144.7,171.31l-6.65 8.32c-49.06,51.56 -88.98,103.95 -119.75,159.66 -29.94,54.05 -52.39,113.1 -65.7,178.79 -24.95,127.23 -20.79,271.93 -16.63,409.97l0.83 22.45c2.49,85.65 4.99,171.31 2.49,258.62 -3.33,92.31 -10.81,183.78 -28.27,273.59 -5.82,29.94 -14.14,59.87 -24.95,89.81 -10.81,27.44 -23.28,54.88 -37.42,82.33 -28.27,54.88 -61.54,99.79 -93.97,144.7l-19.13 26.61c-1.66,58.21 -2.49,114.76 -3.33,169.64 -0.83,70.68 -0.83,141.37 0,212.05 1.66,66.53 3.33,129.73 9.15,191.27 4.99,56.55 13.31,114.76 29.11,178.79 12.47,53.22 28.27,115.59 45.74,167.98 17.46,49.9 38.25,96.46 61.54,128.06 47.4,62.37 35.76,151.35 -27.44,198.75 -62.37,48.23 -151.35,35.76 -198.75,-26.61 -44.91,-59.04 -78.17,-132.22 -103.95,-207.07 -25.78,-73.18 -42.41,-140.54 -55.72,-195.42 -17.46,-73.18 -27.44,-145.53 -34.1,-220.37 -6.65,-69.85 -9.15,-139.71 -9.98,-212.05 -0.83,-72.35 -0.83,-145.53 0,-217.88 0.83,-73.18 2.49,-143.86 4.16,-213.72 0,-26.61 7.48,-54.05 24.12,-79 13.31,-19.96 30.77,-44.07 49.06,-68.19 25.78,-36.59 52.39,-72.35 71.52,-108.94 7.48,-14.97 14.97,-30.77 20.79,-48.23 5.82,-14.14 9.98,-29.94 13.31,-47.4 14.97,-75.67 21.62,-151.35 23.28,-226.19 2.49,-79.83 0,-161.33 -2.49,-243.66l0 -21.62c-4.99,-153.84 -9.98,-314.34 22.45,-474 19.13,-96.46 51.56,-182.12 95.63,-261.12 42.41,-78.17 96.46,-148.02 159.66,-216.21l6.65 -8.32c44.07,-46.57 87.32,-93.14 119.75,-139.71 10.81,-15.8 21.62,-33.26 31.6,-50.73 8.32,-15.8 15.8,-30.77 21.62,-46.57 1.66,-4.16 3.33,-8.32 5.82,-13.31 44.07,-97.3 71.52,-199.58 88.15,-304.36 18.29,-109.77 25.78,-223.7 33.26,-339.29 4.99,-86.49 12.47,-187.94 24.12,-284.4 9.15,-77.34 19.96,-153.84 34.1,-221.2 0.83,-4.16 1.66,-8.32 2.49,-12.47 10.81,-41.58 23.28,-82.33 39.08,-123.07 14.14,-37.42 31.6,-75.67 52.39,-113.93l3.33 -7.48c-19.13,-4.16 -39.08,-8.32 -58.21,-13.31 -88.98,-20.79 -175.46,-52.39 -266.11,-93.14 -93.97,-31.6 -188.77,-69.85 -282.74,-108.94 -222.87,-90.64 -438.25,-178.79 -755.91,-178.79 -79,0 -143.03,-64.03 -143.03,-143.03 0,-79 64.03,-143.03 143.03,-143.03 370.89,0 612.88,98.96 863.19,202.08 83.99,34.1 168.81,68.19 270.27,102.29 7.48,2.49 14.14,4.99 19.96,8.32 78.17,34.93 148.85,60.71 218.71,77.34 69.85,17.46 139.71,25.78 215.38,24.95l0.83 0c45.74,-0.83 108.94,-16.63 167.98,-31.6 51.56,-13.31 100.62,-25.78 153.01,-31.6l9.15 -0.83c111.43,-12.47 224.53,-24.12 343.45,-20.79 83.99,2.49 177.13,15.8 266.11,39.92 82.33,22.45 162.16,54.88 228.69,97.3 87.32,56.55 163.82,129.73 224.53,214.55 59.87,83.99 103.12,178.79 125.57,278.58l-0.83 0 1.66 7.48c34.1,202.91 21.62,411.64 -34.93,595.42 -45.74,148.85 -118.92,281.91 -219.54,384.19l-0.83 0 0 0c-104.78,107.27 -237.83,182.12 -397.5,208.73 -123.91,20.79 -262.78,11.64 -414.96,-34.93 -166.32,-50.73 -375.05,-208.73 -533.05,-449.06l0 -0.01z"/>
  <path class="fil1" d="M4233.75 2306.13c53.22,0 97.3,43.24 97.3,97.3 0,54.05 -44.07,97.3 -97.3,97.3 -154.68,0 -292.72,-4.16 -427.44,-12.47 -126.4,-7.48 -249.48,-18.29 -380.04,-30.77 79,155.51 83.16,247.81 93.14,492.3l1.66 26.61 0 7.48c-5.82,126.4 0.83,233.68 24.95,333.47 23.28,97.3 64.03,190.43 129.73,290.22 30.77,40.75 63.2,83.16 93.14,121.41 146.36,187.94 220.37,282.74 236.17,606.23 0,3.33 0,6.65 0,9.98 -0.83,109.77 -2.49,218.71 -5.82,326.81 -3.33,113.93 -8.32,225.36 -15.8,332.63 -3.33,53.22 -49.06,93.97 -102.29,90.64 -54.05,-3.33 -94.8,-49.9 -91.47,-103.12 7.48,-111.43 12.47,-219.54 15.8,-325.98 3.33,-108.94 4.99,-216.21 5.82,-322.66 -13.31,-260.29 -74.01,-339.29 -196.25,-495.63 -27.44,-34.93 -57.38,-74.01 -96.46,-127.23l-3.33 -4.16c-78.17,-119.75 -128.9,-232.84 -158,-354.26 -28.27,-118.09 -35.76,-241.16 -29.94,-382.53l-0.83 -22.45c-12.47,-276.92 -14.14,-327.65 -164.65,-570.47 -13.31,-19.13 -19.96,-44.07 -15.8,-69.02 7.48,-53.22 57.38,-89.81 110.6,-81.5l177.96 26.61c130.56,13.31 253.63,24.12 382.53,31.6 126.4,7.48 260.29,11.64 416.63,11.64l-0.01 0.02z"/>
  <path class="fil1" d="M2753.52 3131.89c-9.15,14.14 -18.29,28.27 -27.44,42.41 -158,240.33 -366.73,398.33 -533.05,449.06 -152.18,46.57 -290.22,55.72 -414.13,34.93 -159.66,-26.61 -292.72,-101.45 -397.5,-208.73l-0.83 0 0 0c-100.62,-102.29 -174.63,-235.34 -219.54,-384.19 -56.55,-183.78 -69.02,-392.51 -35.76,-595.42l1.66 -7.48 0 0c21.62,-99.79 65.7,-194.59 125.57,-278.58 59.87,-84.82 136.38,-158 223.7,-214.55 66.53,-42.41 146.36,-74.84 228.69,-97.3 88.98,-24.12 182.12,-37.42 266.11,-39.92 118.92,-3.33 232.01,8.32 344.28,20.79l8.32 0.83c52.39,5.82 102.29,18.29 153.01,31.6 59.87,14.97 123.07,30.77 168.81,31.6l0 0c75.67,0.83 146.36,-7.48 216.21,-24.95 69.02,-16.63 140.54,-42.41 217.88,-77.34 6.65,-3.33 13.31,-5.82 19.96,-8.32 102.29,-34.1 187.11,-68.19 270.27,-102.29 251.14,-103.12 493.13,-202.08 864.02,-202.08 79,0 143.03,64.03 143.03,143.03 0,79 -64.03,143.03 -143.03,143.03 -318.5,0 -533.88,88.15 -756.74,178.79 -93.97,39.08 -188.77,77.34 -282.74,108.94 -90.64,40.75 -177.13,72.35 -266.11,93.14 -19.13,4.99 -38.25,9.15 -58.21,13.31l4.16 7.48c20.79,38.25 37.42,76.51 51.56,113.93 15.8,40.75 29.11,81.5 39.08,123.07 1.66,4.16 2.49,8.32 2.49,12.47 14.14,67.36 25.78,143.86 34.93,221.2 10.81,96.46 19.13,197.92 24.12,284.4 6.65,115.59 14.14,229.52 32.43,339.29 17.46,104.78 44.07,207.07 88.98,304.36 1.66,4.99 3.33,9.15 4.99,13.31 6.65,15.8 14.14,30.77 22.45,46.57 9.15,17.46 19.96,34.93 31.6,50.73 32.43,46.57 75.67,93.14 118.92,139.71l7.48 8.32c63.2,68.19 116.42,138.04 159.66,216.21 44.07,79 75.67,164.65 95.63,261.12 31.6,159.66 26.61,320.16 22.45,474l-0.83 21.62c-2.49,82.33 -4.99,163.82 -2.49,243.66 2.49,74.84 9.15,150.52 23.28,226.19 3.33,17.46 8.32,33.26 13.31,47.4 6.65,17.46 13.31,33.26 21.62,48.23 19.13,36.59 44.91,72.35 71.52,108.94 17.46,24.12 34.93,48.23 49.06,68.19 15.8,24.95 24.12,52.39 24.12,79 1.66,69.85 3.33,140.54 4.16,213.72 0.83,72.35 0.83,145.53 -0.83,217.88 -0.83,72.35 -3.33,142.2 -9.15,212.05 -6.65,74.84 -17.46,147.19 -34.93,220.37 -13.31,54.88 -29.94,122.24 -54.88,195.42 -26.61,74.84 -59.87,148.02 -103.95,207.07 -47.4,62.37 -137.21,74.84 -199.58,26.61 -62.37,-47.4 -74.84,-136.38 -27.44,-198.75 24.12,-31.6 44.07,-78.17 61.54,-128.06 18.29,-52.39 34.1,-114.76 46.57,-167.98 14.97,-64.03 24.12,-122.24 29.11,-178.79 4.99,-61.54 7.48,-124.74 8.32,-191.27 0.83,-70.68 0.83,-141.37 0,-212.05 0,-54.88 -1.66,-111.43 -3.33,-169.64l-19.13 -26.61c-32.43,-44.91 -64.86,-89.81 -93.97,-144.7 -14.14,-27.44 -26.61,-54.88 -36.59,-82.33 -10.81,-29.94 -19.96,-59.87 -25.78,-89.81 -17.46,-89.81 -24.95,-181.29 -27.44,-273.59 -2.49,-87.32 0,-172.97 2.49,-258.62l0 -22.45c4.16,-138.04 9.15,-282.74 -16.63,-409.97 -13.31,-65.7 -34.93,-124.74 -65.7,-178.79 -30.77,-55.72 -70.68,-108.11 -118.92,-159.66l-7.48 -8.32c-49.06,-53.22 -98.13,-105.61 -143.86,-171.31 -17.46,-25.78 -34.1,-51.56 -48.23,-77.34 -13.31,-24.95 -25.78,-50.73 -36.59,-79 -56.55,-123.07 -89.81,-248.64 -110.6,-375.88 -10.81,-65.7 -18.29,-132.22 -24.12,-197.92l-0.02 0.01zm-265.28 -113.92c95.63,-144.7 170.48,-328.48 193.76,-543.03 -6.65,-24.12 -14.14,-47.4 -22.45,-69.85 -11.64,-29.11 -23.28,-55.72 -35.76,-79.83l-4.16 -7.48 -65.7 -123.07c-50.73,-8.32 -99.79,-20.79 -147.19,-32.43 -43.24,-10.81 -84.82,-21.62 -113.1,-24.95l-9.15 -0.83c-103.12,-10.81 -207.9,-22.45 -305.19,-19.96 -63.2,2.49 -133.05,11.64 -199.58,29.94 -54.88,14.97 -107.27,35.76 -149.69,63.2 -56.55,36.59 -106.44,83.99 -145.53,138.88 -37.42,53.22 -64.86,112.26 -79,175.46 -24.95,158 -14.97,318.5 27.44,458.2 32.43,104.78 83.16,197.92 152.18,267.77l-0.83 0c64.03,65.7 144.7,111.43 241.16,127.23 82.33,13.31 177.13,6.65 284.4,-26.61 111.43,-34.1 258.62,-150.52 378.37,-332.63l0.02 -0.01z"/>
 </g>
</svg>
